<svg id="Logo_FIXED" data-name="Logo FIXED" xmlns="http://www.w3.org/2000/svg" viewBox="0 0 400 400"><defs><style>.cls-1{fill:none;}.cls-2{fill:#1da1f2;}</style></defs><rect class="cls-1" width="400" height="400"/><path class="cls-2" d="M78.62,203.14C173,203.14,224.56,125,224.56,57.2c0-2.22,0-4.43-.15-6.63A104.36,104.36,0,0,0,250,24a102.24,102.24,0,0,1-29.46,8.07A51.46,51.46,0,0,0,243.09,3.72a103,103,0,0,1-32.57,12.45A51.34,51.34,0,0,0,123.11,63,145.63,145.63,0,0,1,17.4,9.36,51.33,51.33,0,0,0,33.28,77.83,51,51,0,0,1,10,71.41v.65a51.32,51.32,0,0,0,41.15,50.28,51.2,51.2,0,0,1-23.16.88,51.36,51.36,0,0,0,47.92,35.62,103,103,0,0,1-63.7,22A106,106,0,0,1,0,180.1a145.22,145.22,0,0,0,78.62,23" transform="translate(75 98.45)"/></svg>