<svg id="レイヤー_1" data-name="レイヤー 1" xmlns="http://www.w3.org/2000/svg" viewBox="0 0 348.33 128"><defs><style>.cls-1{fill:#b0b1b0;}.cls-2{fill:#fff;}</style></defs><path class="cls-1" d="M317.83,0H27c-1,0-2,0-2.94,0a42.17,42.17,0,0,0-6.42.56,21.52,21.52,0,0,0-6.08,2A20.92,20.92,0,0,0,6.39,6.39a20.06,20.06,0,0,0-3.77,5.19,21.35,21.35,0,0,0-2,6.09,41.72,41.72,0,0,0-.57,6.41c0,1,0,2,0,2.94v74c0,1,0,2,.05,3a41.7,41.7,0,0,0,.57,6.4,21.42,21.42,0,0,0,2,6.1,19.91,19.91,0,0,0,3.77,5.16,20.46,20.46,0,0,0,5.18,3.78,21.21,21.21,0,0,0,6.08,2,42.19,42.19,0,0,0,6.42.57c1,0,2,0,2.94,0H321.3c1,0,2,0,2.95,0a41.59,41.59,0,0,0,6.4-.57,21.6,21.6,0,0,0,6.11-2,20.91,20.91,0,0,0,8.95-8.94,21.07,21.07,0,0,0,2-6.1,43,43,0,0,0,.6-6.4c0-1,0-2,0-3,0-1.17,0-2.32,0-3.5v-67c0-1.18,0-2.34,0-3.5,0-1,0-2,0-2.94a43,43,0,0,0-.6-6.41,21,21,0,0,0-2-6.09,20.33,20.33,0,0,0-3.78-5.19,20.68,20.68,0,0,0-5.17-3.77,21.92,21.92,0,0,0-6.11-2,41.58,41.58,0,0,0-6.4-.56c-1,0-2,0-2.95,0Z"/><path d="M27,125.2c-1,0-1.92,0-2.89,0a39.52,39.52,0,0,1-6-.53,18.56,18.56,0,0,1-5.3-1.75,17.38,17.38,0,0,1-4.47-3.25,17,17,0,0,1-3.27-4.47,18.34,18.34,0,0,1-1.74-5.3,39.58,39.58,0,0,1-.53-6c0-.68,0-2.93,0-2.93V27s0-2.21,0-2.86a38.93,38.93,0,0,1,.53-6,18.27,18.27,0,0,1,1.74-5.32A17,17,0,0,1,8.36,8.38,17.63,17.63,0,0,1,12.85,5.1a18.79,18.79,0,0,1,5.29-1.74,40.67,40.67,0,0,1,6-.52L27,2.8H321.28l2.93,0a39.82,39.82,0,0,1,5.94.52,19.1,19.1,0,0,1,5.35,1.75,17.93,17.93,0,0,1,7.73,7.75,18.41,18.41,0,0,1,1.71,5.27,42.15,42.15,0,0,1,.56,6c0,.91,0,1.88,0,2.85,0,1.2,0,2.34,0,3.5v67c0,1.16,0,2.29,0,3.44s0,2,0,3a40.59,40.59,0,0,1-.54,5.93,18.45,18.45,0,0,1-1.73,5.35,17.53,17.53,0,0,1-3.25,4.43,17.08,17.08,0,0,1-4.48,3.27,18.33,18.33,0,0,1-5.34,1.76,39.08,39.08,0,0,1-6,.53c-.94,0-1.92,0-2.87,0H27Z"/><path class="cls-2" d="M131.74,53h-13l-3.11,9.2h-5.49l12.28-34h5.7l12.28,34h-5.58Zm-11.63-4.24h10.28l-5.07-14.92h-.14Z"/><path class="cls-2" d="M167,49.77c0,7.71-4.12,12.66-10.35,12.66a8.4,8.4,0,0,1-7.8-4.34h-.12V70.37h-5.09v-33h4.93v4.12h.09a8.81,8.81,0,0,1,7.9-4.38C162.8,37.11,167,42.09,167,49.77Zm-5.23,0c0-5-2.59-8.32-6.55-8.32s-6.51,3.37-6.51,8.32,2.62,8.34,6.51,8.34S161.72,54.84,161.72,49.77Z"/><path class="cls-2" d="M194.25,49.77c0,7.71-4.13,12.66-10.35,12.66a8.39,8.39,0,0,1-7.8-4.34H176V70.37h-5.09v-33h4.92v4.12h.1a8.79,8.79,0,0,1,7.89-4.38C190.1,37.11,194.25,42.09,194.25,49.77Zm-5.23,0c0-5-2.6-8.32-6.56-8.32s-6.5,3.37-6.5,8.32,2.61,8.34,6.5,8.34S189,54.84,189,49.77Z"/><path class="cls-2" d="M212.29,52.69c.37,3.37,3.65,5.59,8.13,5.59,4.29,0,7.37-2.22,7.37-5.26,0-2.64-1.86-4.22-6.27-5.3l-4.4-1.06c-6.25-1.51-9.15-4.43-9.15-9.17,0-5.87,5.11-9.9,12.37-9.9s12.12,4,12.29,9.9h-5.14c-.31-3.4-3.11-5.45-7.22-5.45s-6.9,2.08-6.9,5.09c0,2.41,1.79,3.82,6.17,4.91l3.75.92c7,1.65,9.88,4.45,9.88,9.43,0,6.36-5.07,10.35-13.13,10.35-7.54,0-12.64-3.9-13-10.05Z"/><path class="cls-2" d="M244.16,31.5v5.87h4.71v4h-4.71V55.07c0,2.13.94,3.12,3,3.12.51,0,1.34-.08,1.67-.12v4a13.35,13.35,0,0,1-2.83.24c-5,0-7-1.89-7-6.7V41.4h-3.6v-4H239V31.5Z"/><path class="cls-2" d="M251.6,49.77c0-7.8,4.6-12.71,11.76-12.71S275.13,42,275.13,49.77s-4.55,12.71-11.77,12.71S251.6,57.59,251.6,49.77Zm18.34,0c0-5.35-2.45-8.51-6.58-8.51s-6.57,3.18-6.57,8.51,2.45,8.51,6.57,8.51S269.94,55.14,269.94,49.77Z"/><path class="cls-2" d="M279.33,37.37h4.85v4.22h.12a5.91,5.91,0,0,1,6-4.48,8.13,8.13,0,0,1,1.75.19v4.76a7.29,7.29,0,0,0-2.29-.31c-3.28,0-5.3,2.22-5.3,5.71V62.17h-5.09Z"/><path class="cls-2" d="M315.48,54.88c-.69,4.51-5.07,7.6-10.68,7.6-7.22,0-11.69-4.84-11.69-12.59s4.5-12.83,11.47-12.83,11.18,4.72,11.18,12.24V51H298.24v.31c0,4.24,2.67,7,6.68,7,2.82,0,5-1.34,5.72-3.49Zm-17.21-7.4h12.4c-.12-3.79-2.55-6.29-6.09-6.29S298.53,43.74,298.27,47.48Z"/><path class="cls-2" d="M115.93,90.55c0-3.34,1.87-6.38,4.91-8.67-2.74.24-7.86.6-11.17.78l-.21-2.8c3.55-.09,11-.57,13.52-.78,2.17-.15,4.85-.46,6.75-.7l.33,2.86c-1.2.06-3.19.33-4.09.49a7.45,7.45,0,0,0-2,.87c-3.14,2.05-5.06,4.73-5.06,7.83s2.8,5.21,9.18,5.52l-.39,2.86C120.3,98.54,115.93,95.73,115.93,90.55Zm8.8-5.63,1.78-.84a20.49,20.49,0,0,1,2.17,4.06l-1.93.91A16.67,16.67,0,0,0,124.73,84.92Zm3.35-1.24,1.77-.84a20.53,20.53,0,0,1,2.29,4.07l-2,.9A17.17,17.17,0,0,0,128.08,83.68Z"/><path class="cls-2" d="M142,99.77,141.44,97c.81.06,2,.06,2.89.06s1.3-.12,1.3-.78V86.85H135.05V84.38h10.76a32.61,32.61,0,0,0-4.43-3.23l1.93-1.65A41,41,0,0,1,147,81.91a44.09,44.09,0,0,0,3.68-3H138.79V76.43h15.33L156,77.6a61,61,0,0,1-7.23,5.81c.33.31.6.64.94.91l-.1.06H157l1.77.27a41.75,41.75,0,0,1-5.06,7.29l-3-.84a33.67,33.67,0,0,0,3.46-4.25h-5.69v9.82c0,2.47-.84,3.16-3.47,3.16C144.09,99.83,142.92,99.8,142,99.77Z"/><path class="cls-2" d="M185.71,80c-.27,19.22-.75,19.85-4,19.85-.72,0-1.83,0-2.65-.06l-.45-2.71c.85.09,2,.12,2.59.12,1.15,0,1.48-.24,1.72-14.64h-6.24a21.64,21.64,0,0,1-2,3.7l-2.39-1.17a16.46,16.46,0,0,1,2.17,4.07l-2.17,1.08c-.15-.36-.33-.72-.45-1.11l-2.14.24V99.8h-2.74V89.62l-4.49.39-.48-2.5,1.78-.06c.75-1,1.53-1.9,2.26-2.83A29.17,29.17,0,0,0,162.21,81l1.45-1.8a7.68,7.68,0,0,0,.78.6A31.46,31.46,0,0,0,167,75.7l2.44,1.06a43.51,43.51,0,0,1-3.22,4.61,11.1,11.1,0,0,1,1.17,1.29,52.26,52.26,0,0,0,3-4.61l2.47,1.17a88.65,88.65,0,0,1-6,8l3.86-.21A16.23,16.23,0,0,0,169.29,85l2.08-1.08c.27.36.54.72.78,1.08A22.32,22.32,0,0,0,176,75.7l2.71.51a27.78,27.78,0,0,1-1,3.77ZM163.66,90.86l2.38.39a23.5,23.5,0,0,1-1.75,6.9L162,97.27A19.72,19.72,0,0,0,163.66,90.86Zm9.25-.18a28.23,28.23,0,0,1,1.41,5.48l-2.47.6a23.55,23.55,0,0,0-1.35-5.45Zm7.8,1.59-2.59,1.09a20.21,20.21,0,0,0-3-6.48l2.26-1.09A22.11,22.11,0,0,1,180.71,92.27Z"/><path class="cls-2" d="M189.58,84.77l1.54-1.9a22.5,22.5,0,0,1,4.79,3.26l-1.84,2A18.21,18.21,0,0,0,189.58,84.77Zm7,6.5a57.68,57.68,0,0,1-4.27,8.44L190,98.06a60.22,60.22,0,0,0,4.67-8.35Zm-5.9-13.43,1.5-1.9a21.08,21.08,0,0,1,4.67,3l-1.83,2A19,19,0,0,0,190.73,77.84Zm23,18.74v2.53H196.12V96.58h7.53V90.77h-5.51V88.23h5.51V83.08h-6.72v-2.5h7.39a26.2,26.2,0,0,0-3.77-3.19l1.84-1.69a24.19,24.19,0,0,1,4.73,3.83l-1.27,1h7.35v2.5h-6.72v5.15h5.43v2.54h-5.43v5.81Z"/><path class="cls-2" d="M216.83,97.3a24.42,24.42,0,0,0,10.27-4.85,25.55,25.55,0,0,1-5.33-9.58H217V80.25h10.43V75.67h3v4.58H241v2.62H236.3a25.38,25.38,0,0,1-5.22,9.55,26.14,26.14,0,0,0,10,4.76L239,99.77a26.9,26.9,0,0,1-9.94-5.36,26.35,26.35,0,0,1-10.27,5.36Zm16.36-14.43h-8.55A21,21,0,0,0,229,90.55,21.1,21.1,0,0,0,233.19,82.87Z"/><path class="cls-2" d="M79.26,65c-.08-8.8,7.21-13.08,7.54-13.28A16.2,16.2,0,0,0,74,44.77C68.66,44.21,63.45,48,60.71,48s-7-3.16-11.55-3.07a17,17,0,0,0-14.31,8.73c-6.19,10.71-1.57,26.46,4.35,35.12,3,4.24,6.44,9,11,8.81s6.1-2.83,11.46-2.83,6.86,2.83,11.49,2.73,7.76-4.26,10.62-8.54A35,35,0,0,0,88.6,79,15.3,15.3,0,0,1,79.26,65Z"/><path class="cls-2" d="M70.52,39.07A15.57,15.57,0,0,0,74.09,27.9a15.88,15.88,0,0,0-10.27,5.32C61.62,35.79,59.65,40,60.16,44,64,44.26,68,42,70.52,39.07Z"/></svg>