<svg id="レイヤー_1" data-name="レイヤー 1" xmlns="http://www.w3.org/2000/svg" xmlns:xlink="http://www.w3.org/1999/xlink" viewBox="0 0 432 128"><defs><style>.cls-1{fill:#a6a6a6;}.cls-10,.cls-2,.cls-9{fill:#fff;}.cls-3{fill:url(#linear-gradient);}.cls-4{fill:url(#linear-gradient-2);}.cls-5{fill:url(#linear-gradient-3);}.cls-6{fill:url(#linear-gradient-4);}.cls-7{opacity:0.2;}.cls-7,.cls-8,.cls-9{isolation:isolate;}.cls-8{opacity:0.12;}.cls-9{opacity:0.25;}.cls-10{stroke:#fff;stroke-miterlimit:10;stroke-width:0.2px;}</style><linearGradient id="linear-gradient" x1="69.76" y1="102.15" x2="16.06" y2="48.45" gradientTransform="matrix(1, 0, 0, -1, 0, 130.02)" gradientUnits="userSpaceOnUse"><stop offset="0" stop-color="#00a0ff"/><stop offset="0.01" stop-color="#00a1ff"/><stop offset="0.26" stop-color="#00beff"/><stop offset="0.51" stop-color="#00d2ff"/><stop offset="0.76" stop-color="#00dfff"/><stop offset="1" stop-color="#00e3ff"/></linearGradient><linearGradient id="linear-gradient-2" x1="108.27" y1="66.02" x2="30.84" y2="66.02" gradientTransform="matrix(1, 0, 0, -1, 0, 130.02)" gradientUnits="userSpaceOnUse"><stop offset="0" stop-color="#ffe000"/><stop offset="0.41" stop-color="#ffbd00"/><stop offset="0.78" stop-color="orange"/><stop offset="1" stop-color="#ff9c00"/></linearGradient><linearGradient id="linear-gradient-3" x1="79.45" y1="58.68" x2="6.62" y2="-14.15" gradientTransform="matrix(1, 0, 0, -1, 0, 130.02)" gradientUnits="userSpaceOnUse"><stop offset="0" stop-color="#ff3a44"/><stop offset="1" stop-color="#c31162"/></linearGradient><linearGradient id="linear-gradient-4" x1="23.35" y1="129.46" x2="55.87" y2="96.94" gradientTransform="matrix(1, 0, 0, -1, 0, 130.02)" gradientUnits="userSpaceOnUse"><stop offset="0" stop-color="#32a071"/><stop offset="0.07" stop-color="#2da771"/><stop offset="0.48" stop-color="#15cf74"/><stop offset="0.8" stop-color="#06e775"/><stop offset="1" stop-color="#00f076"/></linearGradient></defs><rect width="432" height="128" rx="16"/><path class="cls-1" d="M416,2.56A13.46,13.46,0,0,1,429.44,16v96A13.46,13.46,0,0,1,416,125.44H16A13.46,13.46,0,0,1,2.56,112V16A13.46,13.46,0,0,1,16,2.56H416M416,0H16A16,16,0,0,0,0,16v96a16,16,0,0,0,16,16H416a16,16,0,0,0,16-16V16A16,16,0,0,0,416,0Z"/><path class="cls-2" d="M207.12,40.93a11.9,11.9,0,1,0,11.94,11.9A11.72,11.72,0,0,0,207.12,40.93Zm0,19.1a6.88,6.88,0,0,1-6.72-7.2,6.85,6.85,0,0,1,6.72-7.21c3.6,0,6.71,2.92,6.71,7.21A6.88,6.88,0,0,1,207.12,60Zm-26.05-19.1A11.9,11.9,0,1,0,193,52.83,11.72,11.72,0,0,0,181.07,40.93Zm0,19.1a6.88,6.88,0,0,1-6.72-7.2,6.85,6.85,0,0,1,6.72-7.21c3.6,0,6.71,2.92,6.71,7.21A6.88,6.88,0,0,1,181.07,60Zm-31-15.45v5.05h12.08A10.55,10.55,0,0,1,159.41,56a12.37,12.37,0,0,1-9.33,3.69,13.43,13.43,0,0,1,0-26.85,12.85,12.85,0,0,1,9.1,3.6l3.56-3.56a17.62,17.62,0,0,0-12.66-5.09,18.73,18.73,0,0,0-18.75,18.48,18.73,18.73,0,0,0,18.75,18.47c5.5,0,9.64-1.8,12.89-5.18s4.37-8,4.37-11.81a16.44,16.44,0,0,0-.27-3.15ZM276.81,48.5c-1-2.66-4-7.57-10.18-7.57s-11.22,4.82-11.22,11.9a11.64,11.64,0,0,0,11.8,11.89,11.81,11.81,0,0,0,9.91-5.27l-4.05-2.7A6.79,6.79,0,0,1,267.21,60a6,6,0,0,1-5.77-3.6l15.91-6.58Zm-16.22,4a6.53,6.53,0,0,1,6.22-6.94,4.59,4.59,0,0,1,4.41,2.53ZM247.65,64h5.23V29h-5.23Zm-8.56-20.41h-.18a8.22,8.22,0,0,0-6.26-2.66c-6,0-11.4,5.23-11.4,11.94a11.78,11.78,0,0,0,11.4,11.85,8.1,8.1,0,0,0,6.26-2.7h.18v1.71c0,4.55-2.43,7-6.35,7a6.57,6.57,0,0,1-6-4.23l-4.56,1.89a11.34,11.34,0,0,0,10.55,7c6.13,0,11.31-3.6,11.31-12.39V41.65h-5ZM233.1,60c-3.61,0-6.62-3-6.62-7.16s3-7.25,6.62-7.25,6.35,3.06,6.35,7.25S236.66,60,233.1,60Zm68.19-31h-12.5V64H294V50.75h7.28c5.79,0,11.48-4.19,11.48-10.86S307.08,29,301.29,29Zm.14,16.86H294v-12h7.42a6,6,0,1,1,0,12Zm32.25-5c-3.77,0-7.69,1.67-9.31,5.36L329,48.15a4.94,4.94,0,0,1,4.76-2.56c2.7,0,5.45,1.62,5.49,4.5v.36a11.52,11.52,0,0,0-5.44-1.35c-5,0-10.08,2.74-10.08,7.87,0,4.68,4.1,7.69,8.68,7.69a7.35,7.35,0,0,0,6.66-3.42h.18v2.7h5V50.54C344.3,44.33,339.67,40.86,333.68,40.86ZM333.05,60c-1.7,0-4.09-.86-4.09-3,0-2.7,3-3.73,5.53-3.73a9.22,9.22,0,0,1,4.77,1.17A6.33,6.33,0,0,1,333.05,60Zm29.61-18.4-6,15.16h-.18l-6.21-15.16h-5.62L354,62.82,348.66,74.6h5.45l14.35-33ZM315.65,64h5.21V29h-5.21Z"/><path class="cls-3" d="M33.39,24.12a6.43,6.43,0,0,0-1.48,4.5V99.39a6.39,6.39,0,0,0,1.48,4.49l.24.23L73.27,64.47v-.93L33.63,23.89Z"/><path class="cls-4" d="M86.49,77.69,73.27,64.47v-.93L86.49,50.32l.3.17,15.66,8.89c4.47,2.55,4.47,6.7,0,9.24l-15.66,8.9Z"/><path class="cls-5" d="M86.79,77.52,73.27,64,33.39,103.88c1.48,1.56,3.91,1.76,6.65.2L86.79,77.52"/><path class="cls-6" d="M86.79,50.49,40,23.93c-2.74-1.56-5.17-1.37-6.65.19L73.27,64Z"/><path class="cls-7" d="M86.49,77.22,40,103.61c-2.6,1.48-4.92,1.38-6.41,0h0l-.24.24h0l.24.23h0c1.49,1.35,3.81,1.45,6.41,0L86.79,77.52Z"/><path class="cls-8" d="M33.39,103.42a6.43,6.43,0,0,1-1.48-4.5v.47a6.43,6.43,0,0,0,1.48,4.5l.24-.24Z"/><path class="cls-8" d="M102.45,68.16l-16,9.06.3.3,15.66-8.9c2.23-1.27,3.35-2.94,3.35-4.62h0C105.61,65.52,104.47,67,102.45,68.16Z"/><path class="cls-9" d="M40,24.39l62.41,35.46c2,1.15,3.16,2.64,3.35,4.15h0c0-1.67-1.12-3.35-3.35-4.62L40,23.93c-4.47-2.54-8.13-.43-8.13,4.69v.47C31.91,24,35.57,21.85,40,24.39Z"/><path class="cls-10" d="M133.76,86.49c1.87-.17,7.26-.69,12.5-1.15,3.12-.26,5.8-.41,7.7-.49v2.3a23.21,23.21,0,0,0-5.59.47,10,10,0,0,0-6.51,9c0,5.56,5.18,7.32,9.82,7.49l-.84,2.42c-5.27-.23-11.29-3.05-11.29-9.42a11.53,11.53,0,0,1,5.3-9.62c-2.5.29-10.28,1-13.36,1.67l-.26-2.54C132.32,86.61,133.21,86.55,133.76,86.49Zm18.52,8.15-1.46.69a27.48,27.48,0,0,0-2.37-4.06l1.47-.63A34.36,34.36,0,0,1,152.28,94.64Zm3.29-1.23-1.5.69a25.43,25.43,0,0,0-2.45-4l1.44-.66A43.19,43.19,0,0,1,155.57,93.41Z"/><path class="cls-10" d="M184.18,98.42H172.36v6.39c0,1.53-.46,2.16-1.52,2.51s-2.91.4-5.94.37a10.39,10.39,0,0,0-.92-2.13c2.42.09,4.67.06,5.33,0s.89-.2.89-.81V98.42H158.36v-2.1H170.2V91.65h-9.91V89.6h9.91V85.17c-3.17.34-6.42.54-9.39.69a8.73,8.73,0,0,0-.55-1.9c6.8-.32,15.16-1.07,19.48-2.42l1.61,1.7a54.54,54.54,0,0,1-9,1.69V89.6h10.2v2.05h-10.2v4.67h11.82Z"/><path class="cls-10" d="M193,84c-.17.49-.43,1.42-.55,1.94A66.28,66.28,0,0,0,191,96.83a30.21,30.21,0,0,0,.23,3.92c.49-1.29,1.12-3,1.59-4.09l1.23.92a61.8,61.8,0,0,0-2,6.4,6.81,6.81,0,0,0-.15,1.27l.09,1-2.07.15a35.55,35.55,0,0,1-1-9.16,78.51,78.51,0,0,1,1.27-11.44,18.4,18.4,0,0,0,.2-2Zm6.51,13.83a10.59,10.59,0,0,0-.37,2.62c0,1.3.86,2.57,4.78,2.57a31,31,0,0,0,7.06-.75l0,2.42a37.55,37.55,0,0,1-7.12.58c-4.78,0-6.91-1.59-6.91-4.27a16.45,16.45,0,0,1,.46-3.37Zm-1.12-11.64a49.39,49.39,0,0,0,11.72,0v2.37a73.59,73.59,0,0,1-11.69,0Z"/><path class="cls-10" d="M229.33,83.24c0,5.09.67,16,12,22.67a9.75,9.75,0,0,0-1.73,1.78,24.86,24.86,0,0,1-11.44-16c-2.13,7.46-5.76,12.7-11.49,16.07a15.41,15.41,0,0,0-1.93-1.7c6.36-3.31,9.91-9.1,11.66-17.17l1.27.21a36.51,36.51,0,0,1-.37-3.69h-7.09V83.24Z"/><path class="cls-10" d="M269.34,103.29a7.3,7.3,0,0,1-5.24,2.39c-1.87,0-3.17-1.27-3.17-3.63,0-3.17,1.07-7.87,1.07-10.63a2,2,0,0,0-2.28-2.34c-2.31,0-5.76,2.68-8.38,5.51-.06,1.21-.09,2.33-.09,3.34,0,2.59,0,4.32.11,6.88,0,.49.09,1.21.15,1.73H249c0-.4.09-1.24.09-1.7,0-2.73,0-4.15.09-7.32,0-.28,0-.66,0-1.09-1.38,2.1-3.25,4.84-4.63,6.74l-1.44-2c1.58-2,4.87-6.42,6.31-8.67.05-.92.11-1.84.17-2.74-1.3.15-3.78.5-5.56.73l-.23-2.4a13.11,13.11,0,0,0,1.87,0c.92,0,2.59-.22,4.06-.45.09-1.36.15-2.37.15-2.69a10.42,10.42,0,0,0-.12-2.13l2.74.09c-.15.69-.38,2.3-.58,4.29l.15-.05.83,1c-.34.52-.83,1.3-1.27,2-.05.52-.08,1.07-.14,1.61,2.22-2,5.88-4.78,8.73-4.78,2.68,0,4,1.5,4,3.83,0,2.85-1.07,7.78-1.07,10.66,0,1,.47,1.73,1.48,1.73a6.3,6.3,0,0,0,4.29-2.36Z"/><path class="cls-10" d="M285.41,91.1c0,1.87.15,4.64.29,7.12a22.5,22.5,0,0,1,8.87,4.86l-1.38,2.14a19.9,19.9,0,0,0-7.4-4.7c0,.75,0,1.38,0,1.9,0,2.34-1.44,4.35-5.24,4.35s-6.83-1.26-6.83-4.52c0-2.57,2.25-4.7,7.18-4.7a16.53,16.53,0,0,1,2.42.18c-.12-2.31-.23-4.93-.23-6.63s0-4,0-5.21a22.16,22.16,0,0,0-.23-2.83h2.76a26.56,26.56,0,0,0-.23,2.83c0,.78,0,1.78,0,2.91,2.28-.06,5.88-.21,8.44-.55l.09,2.19c-2.54.23-6.19.4-8.53.46Zm-2,8.79a12.41,12.41,0,0,0-2.79-.29c-2.94,0-4.61,1-4.61,2.56s1.59,2.45,4.32,2.45c2.1,0,3.11-1,3.11-2.94C283.48,101.21,283.45,100.61,283.45,99.89Z"/><path class="cls-10" d="M311.71,91.85a26.52,26.52,0,0,0-7.77,1.47,24.38,24.38,0,0,0-2.39.83l-.73-2.65c.78-.08,1.76-.26,2.6-.43a37.81,37.81,0,0,1,8.52-1.38C316,89.69,319,92,319,96c0,6.19-5.5,9.7-12.91,10.8l-1.35-2.19c6.92-.87,11.81-3.57,11.81-8.7C316.58,93.55,314.65,91.85,311.71,91.85Zm5-7.43-.34,2.21c-3.17-.2-8.93-.77-12.16-1.35l.38-2.19A76.58,76.58,0,0,0,316.75,84.42Z"/></svg>