<svg id="レイヤー_1" data-name="レイヤー 1" xmlns="http://www.w3.org/2000/svg" viewBox="0 0 328 328"><defs><style>.cls-1{fill:#002d97;}.cls-2{fill:#fff;}</style></defs><circle class="cls-1" cx="164" cy="164" r="164"/><path class="cls-2" d="M102,109.87a30.42,30.42,0,0,1-5.49,1.37,1.09,1.09,0,0,1-1.15-1.12,1.15,1.15,0,0,1,1-1.14c.45-.09.87-.14,1.26-.23V99.82h-.75a1.36,1.36,0,0,1-.37-.06,1.18,1.18,0,0,1,.31.82c0,.72-.59,1.09-2.38,1.93v3c0,.45.06,3,.08,4v.14A3.06,3.06,0,0,1,91.1,113c-1.23,0-2.55-.11-2.55-1.51a1.11,1.11,0,0,1,1.32-1.21,3.8,3.8,0,0,0,1,.14c.59,0,1-.25,1-1.2,0-.73,0-2.88,0-5.54a16.58,16.58,0,0,1-2.3.72,1.25,1.25,0,0,1-1.28-1.26,1.19,1.19,0,0,1,.86-1.14l2.69-.9V96.35h-2a1.19,1.19,0,1,1,0-2.38h2V89.71a1.25,1.25,0,0,1,1.29-1.31,1.22,1.22,0,0,1,1.26,1.31V94h1.51a1.19,1.19,0,1,1,0,2.38H94.43V100c.28-.14.56-.3.87-.47a1,1,0,0,1,.47-.14,1,1,0,0,1,.28,0,1.09,1.09,0,0,1-.25-.7,1,1,0,0,1,1.07-1h15.56a1,1,0,0,1,1.12,1,1,1,0,0,1-1.12,1H104.2l.06,12.29a1.12,1.12,0,0,1-2.24,0Zm6.21-13.13c-1.23.06-2.52.08-3.75.08-5.23,0-6.3-.11-6.3-3.13,0-.79.06-1.65.09-2.41,0-1.09,1-2.16,2.74-2.18,1.2,0,2.58-.06,3.95-.06,1.12,0,2.21,0,3.22.06a2.72,2.72,0,0,1,2.69,2c0,.62.08,1.32.08,2,0,.5,0,1,0,1.45C110.84,95.93,109.83,96.66,108.23,96.74Zm-6.16,3.08H99.75l0,1.48h2.29Zm0,3.3H99.78v1.49h2.27Zm0,3.31H99.78v1.87c.73-.16,1.43-.36,2.15-.58l.12,0Zm6.35-14.56c-.05-1-.14-1-4.17-1-3.14,0-3.56,0-3.61,1l0,.16h7.84Zm.06,1.9h-7.87v.39c0,.82.48.87,3.78.87,3.86,0,4,0,4.06-.89Zm-3,9.27a.93.93,0,0,1-.92-1,.92.92,0,0,1,.89-1c.7,0,1.54,0,2.38,0s1.68,0,2.35,0a1.8,1.8,0,0,1,1.88,1.82,13.55,13.55,0,0,1-2,5.49,13.37,13.37,0,0,0,2.69,1.65,1.13,1.13,0,0,1,.67,1,1.29,1.29,0,0,1-1.23,1.29c-1.09,0-3.3-2.08-3.44-2.22-1,1.07-2.47,2.27-3.14,2.27a1.3,1.3,0,0,1-1.23-1.23.88.88,0,0,1,.5-.81,9.56,9.56,0,0,0,2.41-1.85,10.4,10.4,0,0,1-2-4,1,1,0,0,1,1-1,.94.94,0,0,1,.9.64,9.37,9.37,0,0,0,1.4,2.55,9.07,9.07,0,0,0,1.12-3.41.36.36,0,0,0-.39-.4c-1,0-2.52,0-3.78.06Z"/><path class="cls-2" d="M126.92,111.92c-2.21.36-2.43-2.33-.5-2.61A11,11,0,0,0,132.3,107c1.68-1.48,1.76-3,.92-4-1.2-1.37-3.41-1.34-5.23-.81a47.85,47.85,0,0,0-5.74,2.61,1.38,1.38,0,1,1-1.21-2.47,51.42,51.42,0,0,1,6.44-2.41c2.35-.58,5.57-.61,7.53,1.43,2.36,2.44,1.4,5.55-1.14,7.67A14.16,14.16,0,0,1,126.92,111.92Z"/><path class="cls-2" d="M146.72,110.77c-.84,1.87-3.81,1.06-2.63-1.32A87.27,87.27,0,0,0,149,97.3a8.19,8.19,0,0,1-4.09-.39c-1.43-.62-1.15-3.17.95-2.41a7.53,7.53,0,0,0,3.87.17,12.36,12.36,0,0,0,0-3c-.11-1.59,2.52-1.68,2.8-.14a8.79,8.79,0,0,1,0,2.24c.39-.19.72-.39,1.06-.58a1.33,1.33,0,1,1,1.09,2.4,16.57,16.57,0,0,1-2.82,1.12A111,111,0,0,1,146.72,110.77Zm6.8-1.26c-1.2-1.35.54-3.56,2-2.07s3.14,1.31,6.41,1a1.46,1.46,0,1,1,.37,2.89C158.23,112.17,154.76,110.88,153.52,109.51Zm3.17-9.77c-1.46.53-2.33-1.77-.48-2.41a10.35,10.35,0,0,1,6.72.14c1.88.67,1.12,3.13-.64,2.55A9.78,9.78,0,0,0,156.69,99.74Z"/><path class="cls-2" d="M186.88,106.76c-1.32,5.69-5.4,6.36-7.53,6.36a14.21,14.21,0,0,1-4.14-.67,1.32,1.32,0,0,1-1-1.29,1.4,1.4,0,0,1,1.43-1.43,2,2,0,0,1,.75.14,9.44,9.44,0,0,0,3.25.67c2,0,3.61-1,4.48-3.78l-13.86,0a1.2,1.2,0,0,1-1.26-1.26,1.18,1.18,0,0,1,1.23-1.2l14.31,0c.08-.79.11-1.43.11-1.82v-.06c0-.67-.53-.92-1.09-.92-1,0-2.13,0-3.19,0s-2.13,0-3.19,0l-.17.5a1.56,1.56,0,0,1-1.54,1c-.7,0-1.35-.36-1.35-1.06a1.85,1.85,0,0,1,.14-.59,33.83,33.83,0,0,0,2.19-7.59,1.21,1.21,0,0,1,1.29-1,1.28,1.28,0,0,1,1.4,1.23.77.77,0,0,1,0,.26l-.09.39h7.48a1.19,1.19,0,0,1,1.26,1.2A1.13,1.13,0,0,1,186.49,97h-8c-.19.76-.36,1.51-.59,2.27,1.1,0,2.21,0,3.34,0s2.26,0,3.38,0a2.56,2.56,0,0,1,2.8,2.66c0,.11,0,1.34-.14,2.41l4.62,0a1.2,1.2,0,0,1,1.21,1.26,1.12,1.12,0,0,1-1.18,1.17ZM172.8,95.48a1.41,1.41,0,0,1-2.8-.06c0-.36,0-.81,0-1.26s0-.92,0-1.37c.05-1.59,1.26-2.74,3.5-2.77,2.83,0,5.57-.06,8.31-.06,2.24,0,4.51,0,6.86.06,1.93,0,3.36,1,3.42,2.74,0,.42,0,1,0,1.57,0,1.09,0,2.3-1.49,2.3a1.24,1.24,0,0,1-1.34-1.21v0c0-2.75,0-3-1.77-3-2.21,0-4.73,0-7.19,0-2,0-4,0-5.71,0-1.52,0-1.74.45-1.82,1.46v1.68Z"/><path class="cls-2" d="M221.58,108.53l-6.92-.11a16.53,16.53,0,0,0,5.86,2.07,1.18,1.18,0,0,1,1.12,1.2,1.48,1.48,0,0,1-1.49,1.46,17.89,17.89,0,0,1-7.28-3,1.09,1.09,0,0,1-.5-.92,1.19,1.19,0,0,1,.33-.84h-4.39a1.33,1.33,0,0,1,.45,1,1.12,1.12,0,0,1-.48.89c-2.38,1.68-6.19,3-7.37,3a1.34,1.34,0,0,1-1.37-1.35,1.24,1.24,0,0,1,1.18-1.23,13.66,13.66,0,0,0,5.88-2.32l-6.95.11h0a1.07,1.07,0,0,1-1.12-1.12,1.1,1.1,0,0,1,1.14-1.15h21.93a1.12,1.12,0,0,1,1.15,1.15,1.1,1.1,0,0,1-1.12,1.15ZM212.09,93v1.32c1.12,0,2.21,0,3.24,0,1.71.06,2.86.81,2.92,1.93s.11,2.22.11,3.36,0,2.3-.11,3.31c-.09,1.2-1.18,2-3.06,2.1-1.56,0-3.16,0-4.7,0s-3.05,0-4.48,0c-2.07-.06-3-.9-3.11-2.07-.05-1-.08-2-.08-3.06,0-1.17,0-2.32.08-3.36.06-1.23.84-2.15,3-2.21,1,0,2.13,0,3.28,0V93l-8,0a1.14,1.14,0,1,1,0-2.27l8,.06V89.54a1.46,1.46,0,0,1,2.91,0l0,1.24,7.92-.06a1.14,1.14,0,0,1,1.26,1.12A1.17,1.17,0,0,1,220,93Zm3.61,6H205.34v1.29H215.7Zm-.06-1.9c0-.53-.39-.87-1.29-.9-1.25,0-2.54-.05-3.8-.05s-2.55,0-3.87.05c-.84,0-1.23.45-1.26.9l0,.34h10.27Zm-10.24,4.79,0,.45c0,.95.68,1,4.82,1,4.82,0,5.32,0,5.4-1,0-.14,0-.31,0-.45Z"/><path class="cls-2" d="M237.39,92.4a12,12,0,0,0,1.18-.5c1.54-.93,3.05,1.4,1,2.43a15.9,15.9,0,0,1-3.08.93,28.76,28.76,0,0,1-1.35,2.82,4.1,4.1,0,0,1,4.71,2.44c1.15-.59,2.32-1.18,3.41-1.65a21.24,21.24,0,0,0,2.19-1,1.49,1.49,0,1,1,1.57,2.52,32.28,32.28,0,0,1-3,1.15c-1.17.45-2.43,1-3.55,1.54a22.38,22.38,0,0,1,.05,3.08,1.65,1.65,0,0,1-1.48,1.74c-.7,0-1.34-.51-1.26-1.6,0-.59.05-1.23.05-1.82-.25.14-.5.28-.72.42-3.48,2.24-3.06,3.92-1.49,4.7s4.23.2,5.55-.22c2.46-.76,3.24,2.27.67,2.94-1.65.42-5.46.84-7.64-.39-3.79-2.13-3.11-5.91,1.95-9.24.4-.25.84-.56,1.38-.87-.76-2.35-2.92-2.07-4.74,0l-.11.11a5.69,5.69,0,0,1-.64.73c-1.54,1.37-3.59-.23-1.91-1.74a13.62,13.62,0,0,0,2.27-2.63,21.78,21.78,0,0,0,1.32-2.49,5.66,5.66,0,0,1-3.47-.31c-2-1-.65-3.64,1.31-2.32a4.35,4.35,0,0,0,2.64,0c.11,0,.27,0,.41,0a11.15,11.15,0,0,0,.31-2.36c.11-1.68,2.75-1.51,2.8-.14a5.26,5.26,0,0,1-.22,1.63Z"/><path class="cls-2" d="M92.78,150.07a1.69,1.69,0,0,1-3.36,0v0c0-3.36.14-7.11.14-10.72,0-2.66-.06-5.21-.14-7.48-.06-1.18,1.2-1.48,1.71-1.48a1.47,1.47,0,0,1,1.65,1.37v.05c-.06,2.33-.09,5-.09,7.68,0,3.5,0,7.14.09,10.58Z"/><path class="cls-2" d="M108.46,150.21c0-1.15.05-3.28.05-5,0-1.12,0-2.07-.05-2.52-.11-1.73-1.09-2.43-2.27-2.43a4,4,0,0,0-3.84,3.39c0,.5,0,1.14,0,1.93,0,1.15,0,2.63.08,4.62a1.32,1.32,0,0,1-1.43,1.43,1.39,1.39,0,0,1-1.48-1.38v0c.08-2.66.11-4.51.11-6.16s0-3.14-.08-5V139a1.38,1.38,0,0,1,1.51-1.26,1.32,1.32,0,0,1,1.43,1.32c0,.11,0,.19,0,.28v.08s0,.06,0,.06.08-.06.14-.12a5.41,5.41,0,0,1,4-1.68,4.57,4.57,0,0,1,4.73,4.68c0,1,.09,3.5.09,5.57,0,.87,0,1.65,0,2.24a1.42,1.42,0,0,1-1.46,1.49,1.4,1.4,0,0,1-1.45-1.4Z"/><path class="cls-2" d="M121.16,151.78c-3.41,0-4.84-1.94-4.84-2.86a1.41,1.41,0,0,1,1.43-1.34,1.36,1.36,0,0,1,1.12.58,2.74,2.74,0,0,0,2.27,1c1.48,0,2.07-.78,2.07-1.42,0-.9-.62-1.43-3.89-2.92a3.79,3.79,0,0,1-2.52-3.5,3.92,3.92,0,0,1,4.25-3.75c2.58,0,4.31,1.26,4.31,2.35a1.42,1.42,0,0,1-1.4,1.4,1.55,1.55,0,0,1-1.14-.56,2.33,2.33,0,0,0-1.77-.67c-1,0-1.48.53-1.48,1.15a1.44,1.44,0,0,0,.92,1.23c.73.37,2,.93,2.83,1.37,1.93,1,2.74,2.47,2.74,3.84C126.06,149.84,124,151.78,121.16,151.78Z"/><path class="cls-2" d="M135.67,140.46c-.42,0-.42.14-.42.31,0,1-.09,3.42-.09,5.27,0,2.18.09,3.08,1.65,3.08a5.24,5.24,0,0,0,.65-.06c.08,0,.14,0,.22,0a1.2,1.2,0,0,1,1.21,1.23c0,1-.93,1.49-2.38,1.49-4.15,0-4.15-3.67-4.15-4.82,0-1.62.06-4.42.06-5.65v-.42c0-.37-.17-.4-.45-.4h-.84a1.27,1.27,0,0,1-1.26-1.34,1.23,1.23,0,0,1,1.26-1.29h.81c.45,0,.48-.08.48-.47,0,0,0-.56,0-1.21,0-.33,0-.67,0-1v-.08a1.27,1.27,0,0,1,1.4-1.26,1.47,1.47,0,0,1,1.48,1.71c0,.75-.05,1.82-.05,1.82,0,.44.11.47.39.47h1.87a1.32,1.32,0,0,1,0,2.63Z"/><path class="cls-2" d="M153.34,151.05a3.43,3.43,0,0,1-.75-.93.17.17,0,0,0-.12-.08.24.24,0,0,0-.16.08,6,6,0,0,1-4.37,1.68,4.6,4.6,0,0,1-4.9-4.39,3.68,3.68,0,0,1,2.71-3.5,29.67,29.67,0,0,1,4.79-1.23c.28,0,.51-.37.51-1,0-.33-.09-1.76-2-1.76a3.73,3.73,0,0,0-2.75,1.18,1.35,1.35,0,0,1-1,.5,1.32,1.32,0,0,1-1.35-1.29c0-1.34,2.47-2.83,5.3-2.83,3.08,0,4.76,1.52,4.76,4.74,0,.36,0,.7-.06,1.09a20.77,20.77,0,0,0-.14,2.32,4.17,4.17,0,0,0,0,.65c.25,2.24,1.28,2.32,1.51,2.49a1.16,1.16,0,0,1,.45,1,1.44,1.44,0,0,1-2.44,1.26Zm-2.57-6c-4.74.59-5,1.76-5,2.43,0,.87.76,1.74,2.19,1.74,2.27,0,3.25-1.15,3.25-3.14,0-.42-.06-1-.4-1Z"/><path class="cls-2" d="M163.11,148.53c0,.5.34.61,4.56.61s6.08,2.05,6.08,4.34c0,3.76-3.67,5.32-7.42,5.32-5.07,0-6.86-2.57-6.86-4.39a3.5,3.5,0,0,1,2.47-3.14c.08,0,.13-.08.13-.11s0-.11-.25-.17a2.1,2.1,0,0,1-1.54-2,2.74,2.74,0,0,1,1.6-2.49c.19-.11.36-.17.36-.25s-.08-.17-.3-.34a4.57,4.57,0,0,1-1.69-3.47c0-3.25,2.81-4.9,5.55-4.9h0a7.49,7.49,0,0,1,3.11.67.91.91,0,0,0,.48.14.8.8,0,0,0,.45-.14,3.81,3.81,0,0,1,1.87-.58c.81,0,2,.08,2,1.45a1.19,1.19,0,0,1-1.18,1.29,1,1,0,0,1-.3,0,1.76,1.76,0,0,0-.37,0,1.09,1.09,0,0,0-.59.17c-.05,0-.11,0-.11.14a.45.45,0,0,0,0,.17,3.79,3.79,0,0,1,.25,1.65c0,2.69-1.85,4.57-5.29,4.71C165,147.18,163.11,147.41,163.11,148.53Zm3.25,3c-3.7,0-4.09,2.27-4.09,2.61s.08,2.18,4.12,2.18c.78,0,4.42-.11,4.42-2.66C170.81,151.52,168.49,151.52,166.36,151.52ZM165.94,140a2.68,2.68,0,0,0-2.94,2.46c0,.73.33,2.41,2.83,2.41,1.65,0,3-.81,3-2.43C168.88,141.14,168,140,165.94,140Z"/><path class="cls-2" d="M178.49,150.26v0c.08-2.66.11-4.51.11-6.16s0-3.14-.08-5V139a1.38,1.38,0,0,1,1.51-1.26,1.32,1.32,0,0,1,1.43,1.32c0,.11,0,.19,0,.28v.11s0,.08,0,.08a.44.44,0,0,0,.11-.11,5.18,5.18,0,0,1,3.58-1.71,1.32,1.32,0,0,1,1.37,1.35,1.59,1.59,0,0,1-1.59,1.54c-1.65.16-3.5,1.54-3.59,3.3,0,.5,0,1.09,0,1.85,0,1.09,0,2.49.08,4.48a1.32,1.32,0,0,1-1.43,1.43A1.39,1.39,0,0,1,178.49,150.26Z"/><path class="cls-2" d="M200.58,151.05a3.43,3.43,0,0,1-.75-.93.17.17,0,0,0-.12-.08.24.24,0,0,0-.16.08,6,6,0,0,1-4.37,1.68,4.6,4.6,0,0,1-4.9-4.39,3.68,3.68,0,0,1,2.71-3.5,29.67,29.67,0,0,1,4.79-1.23c.28,0,.51-.37.51-1,0-.33-.09-1.76-2-1.76a3.69,3.69,0,0,0-2.74,1.18,1.39,1.39,0,0,1-1,.5,1.32,1.32,0,0,1-1.35-1.29c0-1.34,2.47-2.83,5.3-2.83,3.08,0,4.76,1.52,4.76,4.74,0,.36,0,.7-.06,1.09a20.77,20.77,0,0,0-.14,2.32,4.17,4.17,0,0,0,0,.65c.25,2.24,1.29,2.32,1.51,2.49a1.16,1.16,0,0,1,.45,1,1.44,1.44,0,0,1-2.44,1.26ZM198,145c-4.74.59-5,1.76-5,2.43,0,.87.76,1.74,2.19,1.74,2.27,0,3.25-1.15,3.25-3.14,0-.42-.06-1-.4-1Z"/><path class="cls-2" d="M223.66,150.21c0-1.09,0-3.11,0-4.82,0-1.26,0-2.35,0-2.83-.08-1.65-.95-2.32-2-2.32a3.6,3.6,0,0,0-3.33,3.33c0,.45,0,1,0,1.63,0,1.2,0,2.82.09,5v0a1.37,1.37,0,0,1-1.4,1.43,1.33,1.33,0,0,1-1.35-1.45v0c0-1.09,0-3.11,0-4.82,0-1.26,0-2.35,0-2.83-.11-1.68-1-2.35-2-2.35a3.57,3.57,0,0,0-3.27,3.36c0,.45,0,1,0,1.63,0,1.2,0,2.82.08,5a1.32,1.32,0,0,1-1.37,1.51,1.41,1.41,0,0,1-1.43-1.48v-.06c.09-3,.11-5,.11-6.78,0-1.4,0-2.74-.05-4.36V139a1.33,1.33,0,0,1,1.4-1.34,1.36,1.36,0,0,1,1.4,1.4.34.34,0,0,0,0,.14s.08-.06.11-.09a4.46,4.46,0,0,1,3.36-1.51,4,4,0,0,1,3.78,2.55,5.05,5.05,0,0,1,4.23-2.52c2.21,0,4.25,1.68,4.34,4.73,0,1,.05,3.39.05,5.43,0,.93,0,1.77,0,2.38a1.43,1.43,0,0,1-1.4,1.57,1.4,1.4,0,0,1-1.37-1.48Z"/><path class="cls-2" d="M234.92,150.8c-2.24-5.52,0-13.81.47-17.14.31-2.07,3-1.46,2.72.17-.45,2.27-2.13,8.85-1.46,11.45.08.36.2.28.31,0s.36-.7.48-.9a1.12,1.12,0,0,1,2,1.09,14.17,14.17,0,0,0-1.66,3.92c-.16.76.17,1.63-.53,2.24S235.48,152.17,234.92,150.8Zm7.5-2a1.39,1.39,0,0,1,2-1.93c1.51,1.37,4.87.92,7.05.47s2.41,2.49.56,3C249,151.08,244.44,151,242.42,148.81Zm1.6-11.17a1.32,1.32,0,1,1-.4-2.61,17.12,17.12,0,0,1,7.37-.17,1.37,1.37,0,1,1-.48,2.69A14.14,14.14,0,0,0,244,137.64Z"/><path class="cls-2" d="M89.59,185.56a15.71,15.71,0,0,0,5.93-7.48,1.53,1.53,0,1,1,2.83,1.12,21.36,21.36,0,0,1-7,8.88A1.55,1.55,0,1,1,89.59,185.56Zm19,1.18a21,21,0,0,0-5.41-7.79c-1.34-1.15.54-3.16,2.22-1.68,2.43,2.16,5.57,5.77,6.24,8.35C112.21,187.77,109.27,188.92,108.6,186.74Z"/><path class="cls-2" d="M121.45,184.36a7.15,7.15,0,0,0-1.6-2.16c-1.15-1,.48-2.74,1.79-1.57a10.72,10.72,0,0,1,2.08,2.49A1.29,1.29,0,1,1,121.45,184.36Zm-.56,7.58a1.24,1.24,0,0,1,.7-1.68,15,15,0,0,0,8.82-10.58,1.36,1.36,0,1,1,2.63.73c-1.6,5.29-4.7,9.57-10.22,12.07A1.34,1.34,0,0,1,120.89,191.94Zm4.31-9.12a7.35,7.35,0,0,0-1.32-2.36c-1-1.12.87-2.66,2-1.28a12,12,0,0,1,1.68,2.77A1.27,1.27,0,1,1,125.2,182.82Z"/><path class="cls-2" d="M146.85,183a10,10,0,0,0-3.48-1.43c-1.68-.28-1.14-2.94.9-2.54a14.07,14.07,0,0,1,4.09,1.4,1.51,1.51,0,0,1,.64,2.1A1.44,1.44,0,0,1,146.85,183Zm0,8.79a1.53,1.53,0,1,1-.93-2.88c5.57-1.51,11.79-7.67,14.73-13.24.92-1.74,3.72-.59,2.49,1.62C159.56,183.71,153.2,189.7,146.85,191.8ZM150.09,178a9.62,9.62,0,0,0-3.05-2.16c-1.59-.64-.47-3.13,1.43-2.29a15.3,15.3,0,0,1,3.72,2.32,1.5,1.5,0,1,1-2.1,2.13Z"/><path class="cls-2" d="M183.49,187.18a1.24,1.24,0,1,1-.06,2.47c-4.12-.14-9.71-.17-13.41.08a1.25,1.25,0,1,1-.08-2.49c1.87-.06,4.62-.11,7.44-.11.34-1.26.73-2.86.87-3.73.09-.42,0-.67-.56-.67-1.17,0-3.08,0-4.93.06a1.21,1.21,0,1,1-.19-2.41c2.46-.08,5,0,6.41,0a2.11,2.11,0,0,1,2.1,2.83c-.28,1.23-.64,2.68-1,3.89C181.27,187.13,182.42,187.16,183.49,187.18Z"/><path class="cls-2" d="M194.91,192.17c-2.24.87-3.33-1.77-1.2-2.47a21.72,21.72,0,0,0,9.35-6.38,12,12,0,0,0-2.94-1.34c-1.57-.42-.84-2.8,1.12-2.24a18.59,18.59,0,0,1,3.53,1.45,26.8,26.8,0,0,0,2.35-4c.53-1.15.42-1.29-.31-1.26-1.12,0-4,.31-4.95.42a37,37,0,0,1-6.41,6.83c-1.88,1.29-3.53-1.15-1.63-2.32,2.72-1.68,6.47-6.42,7.48-8.82s3.86-.65,2.88,1l-.5.75c1.37-.11,2.91-.25,4.25-.31,2.89-.08,3.39,1.94,2.3,3.92s-2.07,3.62-3.16,5.21a10.41,10.41,0,0,1,2,1.77,1.51,1.51,0,0,1-.05,2.12,1.34,1.34,0,0,1-2-.08,15.72,15.72,0,0,0-1.68-1.51A24.15,24.15,0,0,1,194.91,192.17Z"/><path class="cls-2" d="M228.79,173.66c1.21-.08,2.58-.17,3.7-.22,2.15-.12,4,1.4,3,3.38-3.41,6.53-7.28,12.18-15.14,15.29-2.38.93-3.53-1.82-1.21-2.63C225.35,187.32,230,181.75,232,177c.22-.53,0-1.06-.67-1-1.18,0-3.22.22-4.48.36-1.91,2.52-4.37,5.46-6.3,6.78s-3.53-1.18-1.63-2.36c2.69-1.65,6.33-6.77,7.62-9,.92-1.57,3.72-.23,2.41,1.65Zm5.88-1.48c-1.43-.59-.31-2.27,1-1.8a8.58,8.58,0,0,1,2.77,1.68c1.1,1.18-.53,2.89-1.45,1.8A9.93,9.93,0,0,0,234.67,172.18Zm2.55-2.41c-1.43-.56-.42-2.24.9-1.82a8.94,8.94,0,0,1,2.82,1.59c1.12,1.12-.47,2.89-1.42,1.82A10.25,10.25,0,0,0,237.22,169.77Z"/><path class="cls-2" d="M87.71,231.36c0,.58-.34.84-.7.84a.82.82,0,0,1-.78-.82c0-2.4-.06-5.32-.06-8.34,0-4.17,0-8.48.08-11.82a3.08,3.08,0,0,1,3.17-3.33c.47,0,.92,0,1.37,0,1,0,1.85,0,2.86.06a.69.69,0,0,1,.75.73.71.71,0,0,1-.73.73h-.11a38,38,0,0,0-3.86-.09,1.91,1.91,0,0,0-2,2.07c-.08,1.85-.11,4.37-.11,7.12,0,4.36.08,9.26.11,12.85Z"/><path class="cls-2" d="M107.88,224.89l-1.4,0c-.17,0-.2,0-.23.2-.44,2.38-.84,4.36-1,5.32a1.35,1.35,0,0,1-1.4,1.23,1.29,1.29,0,0,1-1.37-1.23,1.51,1.51,0,0,1,.06-.37c.17-.78,1-5,1-5.09s0-.09-.11-.09h-2.32c-.14,0-.2.09-.23.23-.44,2.38-.84,4.36-1,5.32a1.35,1.35,0,0,1-1.4,1.23,1.29,1.29,0,0,1-1.37-1.23c0-.09,0-.09,1.07-5.35,0-.14,0-.14-.12-.17-.36,0-.56,0-.89,0a1.25,1.25,0,0,1-1.43-1.32,1.26,1.26,0,0,1,1.32-1.31h.05l1.4,0a.2.2,0,0,0,.23-.19c.22-1.15.44-2.33.67-3.47,0-.09,0-.2-.11-.2-.42,0-.68,0-1,0a1.25,1.25,0,0,1-1.43-1.32,1.26,1.26,0,0,1,1.32-1.31h0l1.6,0a.18.18,0,0,0,.17-.14c.36-1.93.64-3.5.75-4.17a1.4,1.4,0,0,1,1.4-1.17,1.26,1.26,0,0,1,1.35,1.23c0,.08,0,.14-.79,4.14v0c0,.06.06.08.12.08h2.26c.26,0,.26,0,1-4.31a1.4,1.4,0,0,1,1.4-1.17,1.26,1.26,0,0,1,1.35,1.23c0,.08,0,.11-.79,4.11v.06c0,.06,0,0,.12.06H109a1.32,1.32,0,1,1,0,2.63h0l-1.29,0c-.14,0-.14.06-.17.2-.22,1.14-.47,2.32-.7,3.47v.08s0,.09.14.09h1a1.32,1.32,0,1,1,0,2.63Zm-3.08-6.22s0-.11,0-.17,0-.11-.17-.11h-2.27c-.2,0-.17,0-.2.2-.22,1.15-.47,2.35-.7,3.5v.11c0,.06,0,.08.14.08h2.3a.19.19,0,0,0,.2-.16Z"/><path class="cls-2" d="M131.28,230.21c0-1.09,0-3.11,0-4.82,0-1.26,0-2.35,0-2.83-.08-1.65-.95-2.32-2-2.32a3.61,3.61,0,0,0-3.33,3.33c0,.45,0,1,0,1.63,0,1.2,0,2.82.09,5v0a1.37,1.37,0,0,1-1.4,1.43,1.34,1.34,0,0,1-1.35-1.45v0c0-1.09,0-3.11,0-4.82,0-1.26,0-2.35,0-2.83-.11-1.68-1-2.35-2-2.35a3.57,3.57,0,0,0-3.27,3.36c0,.45,0,1,0,1.63,0,1.2,0,2.82.08,5a1.32,1.32,0,0,1-1.37,1.51,1.41,1.41,0,0,1-1.43-1.48v-.06c.09-3,.12-5,.12-6.78,0-1.4,0-2.74-.06-4.36V219a1.33,1.33,0,0,1,1.4-1.34,1.36,1.36,0,0,1,1.4,1.4.34.34,0,0,0,0,.14s.08-.06.11-.09a4.48,4.48,0,0,1,3.36-1.51,4,4,0,0,1,3.78,2.55,5.05,5.05,0,0,1,4.23-2.52c2.21,0,4.25,1.68,4.34,4.73,0,1,.05,3.39.05,5.43,0,.93,0,1.77,0,2.38a1.44,1.44,0,0,1-1.4,1.57,1.4,1.4,0,0,1-1.38-1.48Z"/><path class="cls-2" d="M140.3,230.26v0c.08-2.66.11-4.51.11-6.16s0-3.14-.09-5V219a1.39,1.39,0,0,1,1.52-1.26,1.32,1.32,0,0,1,1.43,1.32c0,.11,0,.19,0,.28v.11s0,.08,0,.08a.44.44,0,0,0,.11-.11,5.18,5.18,0,0,1,3.58-1.71,1.32,1.32,0,0,1,1.37,1.35,1.59,1.59,0,0,1-1.59,1.54c-1.65.16-3.5,1.54-3.59,3.3,0,.5,0,1.09,0,1.85,0,1.09,0,2.49.08,4.48a1.32,1.32,0,0,1-1.43,1.43A1.38,1.38,0,0,1,140.3,230.26Z"/><path class="cls-2" d="M152.64,231.5a1.54,1.54,0,0,1-1.57-1.66,2.86,2.86,0,0,1,.81-1.9c1.93-2.18,5.18-5.52,7.64-8.54a5.72,5.72,0,0,0,1.57-3.58,2.79,2.79,0,0,0-2.91-2.86,4.06,4.06,0,0,0-3.44,2.16,1.73,1.73,0,0,1-1.46.84,1.59,1.59,0,0,1-1.65-1.49c0-1,2.13-4.31,6.52-4.31,3.25,0,6.33,2,6.33,5.35a9.16,9.16,0,0,1-2.32,5.54c-2.13,2.69-4.88,5.07-7.2,7.59,2.32,0,5.49-.25,7.78-.25a1.49,1.49,0,0,1,1.68,1.45,1.66,1.66,0,0,1-1.76,1.66Z"/><path class="cls-2" d="M183.52,237.38h-14a1.34,1.34,0,0,1-1.4-1.4,1.38,1.38,0,0,1,1.43-1.43c1.43,0,4.28,0,7.08,0s5.63,0,6.92,0A1.37,1.37,0,0,1,185,236,1.39,1.39,0,0,1,183.52,237.38Z"/><path class="cls-2" d="M188.74,230c.06-2,.06-5.94.06-9.69s0-7.31-.06-8.43a1.47,1.47,0,0,1,1.54-1.56,1.44,1.44,0,0,1,1.51,1.48v.06c0,1.37-.08,5.68-.08,10,0,3,0,6,.08,8.09v.06a1.41,1.41,0,0,1-1.51,1.45,1.45,1.45,0,0,1-1.54-1.48Z"/><path class="cls-2" d="M197.76,212.12a1.89,1.89,0,0,1,2-1.9,1.95,1.95,0,1,1,0,3.89A1.86,1.86,0,0,1,197.76,212.12Zm2,19.6a1.4,1.4,0,0,1-1.49-1.43c0-2.32,0-5.51,0-8.06,0-1.26,0-2.38,0-3.14a1.5,1.5,0,0,1,3-.08v.05c0,1.15-.06,3.36-.06,5.72,0,1.93,0,3.92.06,5.46v0A1.42,1.42,0,0,1,199.72,231.72Z"/><path class="cls-2" d="M218.06,231.64a1.56,1.56,0,0,1-1.09-.51c-.81-.84-4.15-4.45-5.35-5.85a.69.69,0,0,0-.56-.2c-.64,0-.64.17-.64,2,0,.61,0,1.51.08,3.08a1.32,1.32,0,0,1-1.43,1.43,1.39,1.39,0,0,1-1.48-1.38v0c.08-2.91.14-7.11.14-10.92,0-3.14,0-6-.09-7.67,0-.76.59-1.29,1.54-1.29a1.3,1.3,0,0,1,1.46,1.26v0c-.08,3.08-.11,10.31-.11,10.31a.43.43,0,0,0,.45.39c.42,0,.53-.08,5.82-4.31a1.54,1.54,0,0,1,.9-.34,1.67,1.67,0,0,1,1.54,1.65,1.31,1.31,0,0,1-.56,1.1c-1.66,1.17-2.89,2-4.37,3-.2.11-.28.22-.28.31s.08.22.22.36c1.43,1.43,4.23,4,5,4.76a1.61,1.61,0,0,1-1.18,2.75Z"/><path class="cls-2" d="M230.11,231.8c-3.83,0-6.69-2.88-6.69-7.05s3-7.23,6.64-7.23c3.86,0,6,2.83,6,5,0,1.32-.86,2.38-2.66,2.44-.86,0-1.45,0-6.88,0-.17,0-.23.23-.23.54a3.69,3.69,0,0,0,3.81,3.72,4.71,4.71,0,0,0,3.64-1.71,1.27,1.27,0,0,1,.95-.45,1.54,1.54,0,0,1,1.49,1.46,1.37,1.37,0,0,1-.42,1A7.07,7.07,0,0,1,230.11,231.8Zm3.08-9.8c0-.39-.59-2-3.11-2a3.69,3.69,0,0,0-3.5,2.44c0,.25.28.25,2.89.25,1.15,0,2.41,0,3.16,0A.59.59,0,0,0,233.19,222Z"/><path class="cls-2" d="M246.18,210.05c0-.59.34-.84.7-.84a.82.82,0,0,1,.81.81c0,2.41.06,5.32.06,8.34,0,4.18,0,8.49-.08,11.82a3.09,3.09,0,0,1-3.19,3.33c-.68,0-1.26,0-1.85,0-.79,0-1.54,0-2.38,0a.71.71,0,0,1-.76-.73.75.75,0,0,1,.76-.75h.11c.17,0,.95.08,3.86.08a1.9,1.9,0,0,0,2-2.07c.06-1.68.09-3.92.09-6.36,0-4.56-.09-9.82-.12-13.6Z"/><path class="cls-2" d="M271.44,212.4a10.78,10.78,0,0,0,1.17-.5c1.54-.93,3.06,1.4,1,2.43a15.78,15.78,0,0,1-3.07.93,31.25,31.25,0,0,1-1.35,2.82,4.09,4.09,0,0,1,4.7,2.44c1.15-.59,2.33-1.18,3.42-1.65a21.14,21.14,0,0,0,2.18-1,1.49,1.49,0,1,1,1.57,2.52,31.89,31.89,0,0,1-3,1.15c-1.18.45-2.44,1-3.56,1.54a22.34,22.34,0,0,1,.06,3.08,1.67,1.67,0,0,1-1.49,1.74c-.7,0-1.34-.51-1.26-1.6,0-.59.06-1.23.06-1.82l-.73.42c-3.47,2.24-3.05,3.92-1.48,4.7s4.23.2,5.54-.22c2.47-.76,3.25,2.27.67,2.94-1.65.42-5.46.84-7.64-.39-3.78-2.13-3.11-5.91,2-9.24.39-.25.84-.56,1.37-.87-.75-2.35-2.91-2.07-4.73,0l-.11.11a5.66,5.66,0,0,1-.65.73c-1.54,1.37-3.58-.23-1.9-1.74a14,14,0,0,0,2.27-2.63,23.43,23.43,0,0,0,1.31-2.49,5.67,5.67,0,0,1-3.47-.31c-2-1-.64-3.64,1.32-2.32a4.32,4.32,0,0,0,2.63.05c.11,0,.28,0,.42-.05a11.84,11.84,0,0,0,.31-2.36c.11-1.68,2.74-1.51,2.8-.14a5.27,5.27,0,0,1-.23,1.63Z"/><path class="cls-2" d="M99.27,271.1c-2.6.42-2.8-2.66-.56-3,3.53-.48,6.25-1.52,8.24-3.28,2.38-2.1,2.54-4.4,1.26-5.88-1.8-2-5-2-7.48-1.23a26.77,26.77,0,0,0-4,1.65c-1.26.62-2.52,1.26-3.9,1.9-2.26,1-3.47-1.93-1.37-2.8a66.3,66.3,0,0,1,8.77-3.27c3.19-.81,7.44-.79,10,1.9,3,3.17,1.9,7.17-1.54,10A19.51,19.51,0,0,1,99.27,271.1Z"/><path class="cls-2" d="M121.36,269.48c-2.52-4.84-1.24-10.16-.93-13.61.14-1.59.31-2.49.37-3.69a1.36,1.36,0,0,1,2.71,0,35.31,35.31,0,0,1-.45,3.75c-.33,2.36-1.14,4.76-.72,7.54.08.47.25.67.47.08.14-.34.45-.9.59-1.23a1.11,1.11,0,1,1,2.07.81,15,15,0,0,0-1.4,4.9c0,.31.17,1.12-.22,1.62A1.48,1.48,0,0,1,121.36,269.48Zm14.16-14.17c.62-.14,1.18-.25,1.66-.39,1.79-.5,2.88,1.93.5,2.44-.73.16-1.46.33-2.21.47,0,.81.05,1.65.11,2.77.25,5.6-1.2,9.66-5.57,12.74-1.63,1.15-3.39-1-1.65-2.15,3.58-2.33,4.7-5.74,4.59-10.53,0-.87-.06-1.65-.09-2.41a20.45,20.45,0,0,1-4.7.2,1.31,1.31,0,1,1,.45-2.55,16.78,16.78,0,0,0,4.23-.14V255a18.58,18.58,0,0,0-.31-3.3c-.23-2.07,2.55-2,2.88-.42a13.13,13.13,0,0,1,.14,3.33Z"/><path class="cls-2" d="M153.73,258.5a9,9,0,0,1,.9-1.45c.45-.59.31-.56-.23-.39a36.88,36.88,0,0,0-3.52,1.4c-.9.33-1.68.61-2.52.84-2.47.67-3.2-2.55-1-3,.59-.14,2.22-.45,3.11-.67,1.37-.34,3.81-.9,6.67-1.71a37.93,37.93,0,0,1,7.64-1.65,1.65,1.65,0,0,1,1.9,2.16c-.16.47-.78,1-2.74.92a12.24,12.24,0,0,0-4.17.78,8.08,8.08,0,0,0-3.59,3.28c-2.46,4.12-.58,10,5.69,9.77,2.94-.11,3.11,3.19.14,3.17C153.59,271.89,150.68,264.13,153.73,258.5Z"/><path class="cls-2" d="M176.41,263.82a8.13,8.13,0,0,1-2.49,1,1.33,1.33,0,0,1-1.34-1.31,1.2,1.2,0,0,1,.81-1.15c1.12-.48,2.1-.9,3-1.32V256.6h-2.35a1.23,1.23,0,1,1,0-2.46h2.35l0-4.32a1.31,1.31,0,0,1,1.34-1.34A1.26,1.26,0,0,1,179,249.8v4.34h1.79a1.23,1.23,0,0,1,0,2.46H179v3.11c.33-.2.67-.42,1-.65a1,1,0,0,1,.58-.19,1.15,1.15,0,0,1,1.1,1.15c0,.61-.4,1.06-2.72,2.4v3.36c0,.45.08,3,.11,4v.11c0,1.74-1.12,3.08-3.53,3.08-1.9,0-2.54-.5-2.54-1.51a1.15,1.15,0,0,1,1.09-1.26.72.72,0,0,1,.25,0,4.1,4.1,0,0,0,.9.11c.58,0,1.14-.19,1.14-.92Zm6.61-1.76a1.08,1.08,0,0,1-1.06-1.15,1,1,0,0,1,1-1.15c1.14,0,2.66,0,4.2,0s3.16,0,4.48,0c2,0,2.85,1.1,2.85,2.24,0,1.38-1.87,4-3.72,5.83a18.07,18.07,0,0,0,5.74,2.27,1.39,1.39,0,0,1,1.17,1.34,1.45,1.45,0,0,1-1.56,1.4c-1.46,0-4.68-1.46-7.2-3.36a16.92,16.92,0,0,1-8.15,3.67,1.42,1.42,0,0,1-1.45-1.37,1.25,1.25,0,0,1,1.2-1.21A16,16,0,0,0,187,267.8c-1.46-1.43-2.91-3.33-2.91-4a1.27,1.27,0,0,1,1.34-1.15,1.18,1.18,0,0,1,1,.59,13.51,13.51,0,0,0,2.35,3,9.94,9.94,0,0,0,2.6-3.92c0-.34-.47-.34-.67-.34h-1.93c-1.9,0-4.12,0-5.74.06Zm11.82-7.67a1.05,1.05,0,0,1,1.17-1c.65,0,1.35.39,1.35,1.07v.19c0,3.61-1.57,4-4,4-3,0-3.44-.81-3.44-3.24,0-1,0-2.22,0-3.06,0-.61-.34-.84-1.68-.84-1.6,0-1.8.37-1.8.9,0,2.58-.3,4.65-2.6,6.55a1.85,1.85,0,0,1-1.15.45,1.49,1.49,0,0,1-1.54-1.34,1.07,1.07,0,0,1,.59-.93c1.71-1,2-2.35,2-4.48,0-.31,0-.64,0-1v0c0-2.3,2.63-2.33,3.89-2.33,3.83,0,4.93.14,4.93,3.36,0,.9-.06,1.65-.06,2.44s0,1.26.87,1.26,1.4,0,1.4-1.77v-.19Z"/><path class="cls-2" d="M209.06,272.17a1.36,1.36,0,0,1-2.69,0v0l.09-9.35c-1.88,3.5-2.41,3.95-3.14,3.95a1.42,1.42,0,0,1-1.4-1.32,1.24,1.24,0,0,1,.39-.9,24.64,24.64,0,0,0,4.21-6.46l0-.76-2.47.06h0a1.14,1.14,0,0,1-1.2-1.18A1.16,1.16,0,0,1,204,255h2.44l-.06-2.64a13.1,13.1,0,0,1-2.32.37,1.22,1.22,0,0,1-1.15-1.29,1,1,0,0,1,.9-1.09,21.14,21.14,0,0,0,6.27-1.6.91.91,0,0,1,.31,0,1.44,1.44,0,0,1,1.28,1.34c0,.84-1,1.18-2.63,1.65,0,.59-.05,1.85-.08,3.31h2a1.19,1.19,0,0,1,0,2.38h0l-2-.06c0,.62,0,1.23,0,1.82.73,0,2.61,1.79,3,2.35,0,0,.05.09.08.11.34-.81,1.07-1.28,2.49-1.31,1.18,0,3.33,0,5.35,0,1.46,0,2.86,0,3.78,0a2.54,2.54,0,0,1,2.75,2.6c0,1,0,1.63,0,2.16v1.45c0,.45,0,2.16,0,3.14v.11c0,1.74-1.12,3.42-4.15,3.42-2.21,0-2.91-.45-2.91-1.43a1.21,1.21,0,0,1,1.21-1.26.92.92,0,0,1,.28,0,9.68,9.68,0,0,0,1.48.19c.84,0,1.48-.33,1.48-1.56v-1.43c0-1.21,0-3.05-.05-4.54,0-.87-.37-.87-4.48-.87-1.65,0-3.31,0-4.06.06s-.9.28-.9.81c0,1.49,0,3.17,0,5,0,1.31,0,2.71,0,4.11v.06a1.13,1.13,0,0,1-1.26,1.09,1.2,1.2,0,0,1-1.31-1.15c0-1.28,0-2.57,0-3.89,0-1.76,0-3.55,0-5.21a1.26,1.26,0,0,1-.84.4,1.1,1.1,0,0,1-.87-.51c-.34-.47-.76-1-1.18-1.51,0,4.4.14,10.64.14,10.64Zm3.78-18.65a1.11,1.11,0,0,1-1.2-1.12,1.08,1.08,0,0,1,1.17-1.09h0l4.93.05,0-1.7c0-.79.7-1.18,1.43-1.18a1.28,1.28,0,0,1,1.43,1.18l0,1.7,5.32-.05a1.11,1.11,0,1,1,0,2.21Zm6.3,5.82c-4.67,0-5.15-.22-5.15-2.49s.31-2.41,5.49-2.41c4.28,0,4.76,0,4.76,2.41S223.87,259.34,219.14,259.34Zm-.28,10c-2.77,0-3.25-.34-3.25-2.77,0-2.91,0-3.14,3.62-3.14,3.16,0,3.38.17,3.38,3.25C222.61,269.09,222,269.34,218.86,269.34Zm.23-13.3c-2.69,0-2.72,0-2.72.84s0,.84,2.66.84,2.77,0,2.77-.84S221.8,256,219.09,256Zm1.26,9.52c0-.39-.51-.48-1.29-.48-1.07,0-1.29.06-1.29,1.24s0,1.26,1.37,1.26c1.12,0,1.23-.09,1.23-1.18C220.37,266.15,220.37,265.92,220.35,265.56Z"/><path class="cls-2" d="M239.25,272.34a2,2,0,0,1-1.94-1.85,2,2,0,0,1,1.94-1.93,1.8,1.8,0,0,1,1.93,1.93A1.87,1.87,0,0,1,239.25,272.34ZM238,265.22v-.58c0-2.72-.28-9.24-.45-13.64v-.08a1.52,1.52,0,0,1,1.63-1.54A1.58,1.58,0,0,1,240.9,251c0,3.3-.45,11-.45,13.72,0,.67,0,1.85-1.23,1.85a1.21,1.21,0,0,1-1.18-1.32Z"/><path class="cls-2" d="M87.42,48.82c-.92-5.42,3.21-10.41,10-10.61,6.14-.14,11.47,4.18,10.56,10.42-1,7.44-7.92,7.68-11.18,13.06,3,0,5.23-.38,9.55-.82v7.06c-12.53-.05-9.46-.05-17.28-.14C87.56,57.37,99.23,53.67,100.71,49c1-3-1-5.67-3.84-5.28-2.45.28-3.6,2.06-3.31,5.61Z"/><path class="cls-2" d="M117.13,67.55s-.19-4.52,0-6.77c3,0,4,.09,6.86.14a48.24,48.24,0,0,1-.14,6.72A55.39,55.39,0,0,1,117.13,67.55Z"/></svg>