<svg id="レイヤー_3" data-name="レイヤー 3" xmlns="http://www.w3.org/2000/svg" viewBox="0 0 400 400">
  <defs>
    <style>
      .cls-1 {
        fill: #002d97;
      }

      .cls-2 {
        fill: #fff;
      }
    </style>
  </defs>
  <g>
    <circle class="cls-1" cx="200" cy="200" r="200"/>
    <g>
      <path class="cls-2" d="M90.77,77.26s.06-5.21.34-8.12c0,0,12.49.06,14.33.17,0,0-.22,19.82.68,33.71,0,0-7.73.34-9.75.11,0,0,1.23-23.85,1.12-25.87C97.49,77.26,92,77.43,90.77,77.26Z"/>
      <path class="cls-2" d="M117.71,102.91s-.23-5.27-.06-7.9c3.47,0,4.7.11,8,.17a57.81,57.81,0,0,1-.17,7.84A64.29,64.29,0,0,1,117.71,102.91Z"/>
    </g>
    <g>
      <path class="cls-2" d="M78.1,152.44c0,.67-.39,1-.8,1a.94.94,0,0,1-.9-.93c0-2.75-.06-6.08-.06-9.54,0-4.76,0-9.69.09-13.5a3.52,3.52,0,0,1,3.62-3.81c.54,0,1.06,0,1.57,0,1.12,0,2.11,0,3.26.07a.8.8,0,0,1,.87.83.81.81,0,0,1-.84.83h-.12c-.2,0-1.09-.1-4.42-.1a2.18,2.18,0,0,0-2.27,2.37c-.1,2.11-.13,5-.13,8.13,0,5,.1,10.59.13,14.69Z"/>
      <path class="cls-2" d="M92.18,154.29a1.63,1.63,0,0,1-1.6-1.63,1.5,1.5,0,0,1,.92-1.37A15.71,15.71,0,0,0,99.41,143a33.39,33.39,0,0,0-4-2,1.31,1.31,0,0,1-.87-1.22A1.43,1.43,0,0,1,96,138.29c.83,0,3.68,1.51,4.39,1.89a28.4,28.4,0,0,0,.73-4.09l-6.91.19a1.35,1.35,0,0,1-1.41-1.41,1.44,1.44,0,0,1,1.44-1.53c2.31,0,4.74-.1,7.14-.13.09-1.73.13-3.49.13-5.25a1.54,1.54,0,0,1,1.63-1.54,1.5,1.5,0,0,1,1.6,1.48c0,1.76,0,3.52-.16,5.28h3.55c2.11.06,3.52,1.21,3.52,3.07,0,.12,0,.28,0,.41-1,8.61-1.09,10.53-1.09,11.52,0,1.89.29,2.56,2,2.56,1.28,0,3.36-.16,3.48-4.13a1.45,1.45,0,0,1,1.51-1.53,1.72,1.72,0,0,1,1.79,1.63c0,4.58-2.24,6.91-6.62,6.91s-5.35-1.57-5.35-4.89c0-2.92.61-8.1,1-11.2,0-.1,0-.2,0-.26a1.19,1.19,0,0,0-1.32-1.28h-2.78a33.9,33.9,0,0,1-1.18,5.82c2.88,1.86,3.52,2.69,3.52,3.52a1.72,1.72,0,0,1-1.6,1.73,1.49,1.49,0,0,1-1.12-.54,13.45,13.45,0,0,0-1.86-1.73C99,151.67,93.1,154.29,92.18,154.29Z"/>
      <path class="cls-2" d="M142.44,148.57a1.81,1.81,0,0,1-1.73,1.85,1.69,1.69,0,0,1-1.28-.64,15.56,15.56,0,0,0-6.08-4,1.35,1.35,0,0,1-.93-1.25,1.68,1.68,0,0,1,1.73-1.6c.29,0,.86,0,3.26,1.25,2.34-2.53,4.52-5.66,4.52-6.21a.51.51,0,0,0-.58-.54c-1.31,0-3.23,0-5.38,0a37.07,37.07,0,0,1-6.55,8,2.19,2.19,0,0,1-1.48.61,1.66,1.66,0,0,1-1.66-1.6,1.7,1.7,0,0,1,.7-1.34,30.32,30.32,0,0,0,8.39-11.65,1.73,1.73,0,0,1,1.63-1.15,1.77,1.77,0,0,1,1.82,1.63c0,.26-.06.61-1.21,2.69,1.72,0,4-.1,5.66-.1s2.66,1,2.66,2.24a3.2,3.2,0,0,1-.52,1.67,50.43,50.43,0,0,1-5.4,7.2C142.34,147.29,142.44,148,142.44,148.57Z"/>
      <path class="cls-2" d="M167.14,133.62l-12,.07a1.49,1.49,0,1,1,0-3l10.4.06,0-3.07a1.71,1.71,0,0,1,3.39,0l0,3.07,10.36-.06a1.49,1.49,0,1,1,0,3Zm-1.54,5.86c-1.82,0-3.52,0-4.51,0s-1.25.42-1.28,1.41c0,1.18,0,2.91,0,4.7s0,3.68,0,5.22v0a1.41,1.41,0,0,1-1.57,1.34,1.48,1.48,0,0,1-1.63-1.37v-1.92c0-2.85,0-6.15.07-8.58s1.37-3.45,3.77-3.52c1.22,0,3.1-.06,5.15-.06v-1.19a1.59,1.59,0,0,1,3.17,0v1.19c2.11,0,4.13,0,5.5.06,2.15.07,3.65,1.19,3.68,3.39,0,1,0,2.15,0,3.08v2c0,.55,0,1.22.06,2.4v.1c0,2.21-1.7,4-4.67,4-1.63,0-3.36-.26-3.36-1.76a1.42,1.42,0,0,1,1.31-1.54,1.27,1.27,0,0,1,.32,0,6.85,6.85,0,0,0,1.63.26c.87,0,1.57-.32,1.57-1.34,0,0,0-4.64-.06-6.72a1.12,1.12,0,0,0-1.19-1.22c-1.09,0-2.88-.06-4.8-.06v13.66a1.62,1.62,0,0,1-3.23,0Z"/>
      <path class="cls-2" d="M200.43,135.93c-.51,4.06-3.39,10.11-6.47,13-2.46,2.27-5.15,1-6.55-1.73-2-4,.12-9.92,4.41-12.9,3.94-2.72,9.79-3.16,13.82-.73,5,3,5.76,8.86,3,13.44-1.5,2.46-4.64,4.44-7.81,5.28-2.81.73-3.81-2.5-1.05-3.14,2.43-.54,4.89-1.92,6-3.58,2.27-3.59,1.41-7.78-1.76-9.8a8.34,8.34,0,0,0-4-1.28A1.64,1.64,0,0,1,200.43,135.93Zm-7.11.6c-3,2.31-4.57,6.56-3.23,9,.48.93,1.31,1.41,2.12.7,2.39-2.11,4.63-7.2,4.95-10.65a2.4,2.4,0,0,1,.29-1A10.77,10.77,0,0,0,193.32,136.53Z"/>
      <path class="cls-2" d="M166,180.89a2.62,2.62,0,0,1,2.85,2.94A26.39,26.39,0,0,1,166.9,193c3.07,1.64,3.26,2.63,3.26,3.17a1.7,1.7,0,0,1-1.47,1.79,1.35,1.35,0,0,1-1-.48,18.67,18.67,0,0,0-2.08-1.82c-2.72,4.74-6.21,6.46-7.24,6.46a1.52,1.52,0,0,1-1.53-1.5,1.32,1.32,0,0,1,.83-1.25,12.47,12.47,0,0,0,5.57-5,11,11,0,0,0-2.27-.61,1.79,1.79,0,0,1-1.7,1.34,1.28,1.28,0,0,1-1.31-1.31,2,2,0,0,1,.13-.73,61.33,61.33,0,0,0,2.33-9.41c-.67,0-1.31,0-1.89.06h-.06a1.26,1.26,0,0,1-1.31-1.34,1.36,1.36,0,0,1,1.31-1.44c.74,0,1.57,0,2.4,0,.22-1.76.38-3.49.51-5.15a1.37,1.37,0,0,1,1.44-1.32,1.5,1.5,0,0,1,1.6,1.44c0,.93-.48,4.26-.61,5Zm-2.62,2.68c-.45,2.53-1,5.16-1.7,7.72a14.17,14.17,0,0,1,2.75.64,23.34,23.34,0,0,0,1.51-7.78c0-.48-.42-.58-.74-.58Zm16.89,6.34c0,.38,0,.77,0,1.18a31.24,31.24,0,0,1-.48,5.16,6.62,6.62,0,0,1-6.72,5.85c-2,0-3.58-.41-3.58-2a1.42,1.42,0,0,1,1.38-1.51,1.24,1.24,0,0,1,.48.07,5.92,5.92,0,0,0,1.76.28c1.79,0,3.23-1,3.71-3.29a21.13,21.13,0,0,0,.48-4.35c0-.45,0-.93-.07-1.38H170a1.34,1.34,0,0,1-1.44-1.38,1.36,1.36,0,0,1,1.44-1.37h6.66a6.36,6.36,0,0,0-2.46-3.46,1.11,1.11,0,0,1-.61-.93,1.58,1.58,0,0,1,1.63-1.4,2,2,0,0,1,1.28.48,15,15,0,0,0,2.4-2.72c0-.23-.35-.29-1.82-.29s-3.84.06-6,.16H171a1.32,1.32,0,0,1-1.38-1.34,1.41,1.41,0,0,1,1.44-1.44c1.31-.07,2.72-.07,4-.07,1.83,0,3.52,0,4.86.07,1.73,0,2.63.92,2.63,2.08a3.46,3.46,0,0,1-.8,2,33.72,33.72,0,0,1-3.36,3.42,10.21,10.21,0,0,1,1.41,3.43h4.35a1.39,1.39,0,0,1,1.47,1.41,1.34,1.34,0,0,1-1.47,1.34Z"/>
      <path class="cls-2" d="M207.46,189.3c1.15,1.47,2.43,4,2.08,5.86-.32,1.66-1.86,2-3.3,1.12-1.69-1-6.24-1.63-8.48-.55-1.66.8-1,2.5.48,3.11a8.87,8.87,0,0,0,5.19.48c2.84-.55,3,3,.16,3.26a13.23,13.23,0,0,1-6.34-1.09c-3.78-1.6-4.67-6.08-1.09-7.9,2.37-1.22,6.31-1,8.42-.7,1.72.22,2.24-.26.38-2.76-.22-.32-.48-.6-.7-1a23.09,23.09,0,0,1-7.36.87c-2.21-.16-2.5-3.43.22-3.07a15.67,15.67,0,0,0,5.51-.45c-.48-.83-1-1.76-1.51-2.75a25.07,25.07,0,0,1-5.09.51c-2.08,0-2.72-3.1-.16-2.91a18.24,18.24,0,0,0,4-.19,16.64,16.64,0,0,0-2.3-3.88c-1.79-2,1.6-3.23,2.75-1.66a27.26,27.26,0,0,1,2.3,4.83,12.36,12.36,0,0,0,2-.86c2.11-1.12,3.33,1.69,1.63,2.49a22.17,22.17,0,0,1-2.56,1,28.2,28.2,0,0,0,1.38,2.68,16.89,16.89,0,0,0,2.4-1c2.24-1.28,3.61,1.66,1.82,2.56a19.66,19.66,0,0,1-2.53,1.05C207,188.69,207.23,189,207.46,189.3Z"/>
      <path class="cls-2" d="M221.78,182.93a1.46,1.46,0,1,1,.93-2.75,8.5,8.5,0,0,0,4.38-.09,20.75,20.75,0,0,0,.64-3.23,1.53,1.53,0,0,1,3,.28,10.24,10.24,0,0,1-.45,2c.39-.2.74-.36,1-.55,1.44-1,3.45,1,1.4,2.43a12,12,0,0,1-3.42,1.47,80.13,80.13,0,0,1-5.73,10.79c-1.18,1.92-4.25.67-2.85-1.41A62.61,62.61,0,0,0,226,183.1,8.75,8.75,0,0,1,221.78,182.93Zm5.5,18c-3-1.5-3.33-5,0-6.43a10.43,10.43,0,0,1,6.14-.61v-1.12c0-.8-.06-1.6-.09-2.4a9.47,9.47,0,0,1,.16-2.14,1.47,1.47,0,0,1,2.88.57,6.19,6.19,0,0,0-.19,1.51c0,.73,0,1.53,0,2.46,0,.61.09,1.28.12,2a11.75,11.75,0,0,1,3.91,2.56c1.82,2-.77,4.29-2.3,2.44a9.32,9.32,0,0,0-1.83-1.67C235.15,200.66,231.15,202.9,227.28,201Zm1-4.19a1,1,0,0,0,0,1.85c1.92,1,4.51,0,4.86-1.69,0-.1,0-.23,0-.32A6.36,6.36,0,0,0,228.31,196.76ZM235.44,185c-1.76.1-1.89-2.56.16-2.75a10.14,10.14,0,0,1,5.89,1.12c2.18,1.31.51,4-1.06,3A8.17,8.17,0,0,0,235.44,185Z"/>
      <path class="cls-2" d="M265.68,189.4c-.32.51-.67,1-1,1.53,1.85,0,4.16,0,6.21,0h2.33c1.89,0,2.91,1.15,2.91,3.2a19.18,19.18,0,0,1-.86,5.19,4.71,4.71,0,0,1-4.7,3.13c-2.05,0-2.92-.45-2.92-1.6a.75.75,0,0,1,0-.29c-1.64,1.51-3.14,2.24-3.75,2.24a1.4,1.4,0,0,1-1.44-1.34,1.24,1.24,0,0,1,.77-1.12,12.59,12.59,0,0,0,6.37-7.17h-1.86c-2.69,5-7.45,8.29-9,8.29a1.4,1.4,0,0,1-1.41-1.41,1.16,1.16,0,0,1,.74-1.09,13.94,13.94,0,0,0,6.72-5.79c-.67,0-1.35,0-1.95,0-1.73,1.89-4.93,4.32-6,4.32a1.44,1.44,0,0,1-1.44-1.37,1.18,1.18,0,0,1,.7-1,15.91,15.91,0,0,0,6.5-5.69h-2.94a1.38,1.38,0,0,1,.16.61,1.54,1.54,0,0,1-.9,1.34c-2.37,1.25-7.46,3.55-8.61,3.55a1.35,1.35,0,0,1-1.37-1.41,1.37,1.37,0,0,1,1.05-1.37c1-.29,2.08-.64,3.11-1l0-6.95h-2.37a1.23,1.23,0,0,1-1.31-1.28,1.33,1.33,0,0,1,1.31-1.4h2.37v-5.32a1.36,1.36,0,0,1,1.47-1.37,1.38,1.38,0,0,1,1.5,1.37v5.32h2.18a1.34,1.34,0,0,1,0,2.68H256v5.76c.7-.32,1.34-.61,2-.93l.42-.16a1.13,1.13,0,0,1-.2-.64,1.28,1.28,0,0,1,1.35-1.28h16.7a1.24,1.24,0,1,1,0,2.47Zm5-3.81c-1.06.06-2.24.1-3.43.1-5.18,0-6.46-.2-6.46-3.84,0-1.25.06-2.72.13-3.88a3,3,0,0,1,3.13-2.81c1.09,0,2.21-.06,3.3-.06s2.21,0,3.23.06a3.14,3.14,0,0,1,3.07,2.59c.1,1,.13,2.27.13,3.46,0,.57,0,1.15,0,1.66C273.71,184.53,272.53,185.49,270.71,185.59Zm.22-4.13h-7.39c0,1.89,0,1.95,3.61,1.95s3.75-.09,3.78-1.11Zm-.06-2.78c-.07-1.22-.26-1.25-3.52-1.25s-3.65,0-3.72,1.28l0,.51h7.3Zm-2.08,20.7c.06,0,.12,0,.22,0a1.47,1.47,0,0,1,.32.06,5.51,5.51,0,0,0,1.18.16c1.25,0,2.44-.48,2.82-5.21v-.16a.93.93,0,0,0-.86-1.06A19.23,19.23,0,0,1,268.79,199.38Z"/>
      <path class="cls-2" d="M284.77,201.08a1.73,1.73,0,0,1-1.44.8,1.39,1.39,0,0,1-1.21-2.27c2.46-3.43,2.88-7.11,2.88-10.85,0-1.63-.07-3.3-.1-5v-.07c0-1.43.83-2.72,3-2.78.74,0,1.47,0,2.21,0,4.41,0,5.34,0,5.34,4.77,0,4.38-.64,4.92-5.89,4.92-.6,0-1.18,0-1.76,0C287.62,194.29,286.92,198,284.77,201.08Zm.36-22.37a1.39,1.39,0,1,1,0-2.78H295a1.39,1.39,0,1,1,0,2.78Zm4.25,9.41c2.15,0,3.07-.07,3.17-1,0-.48.06-1.12.06-1.76,0-1.82-.09-2-2.24-2-1.66,0-2.52,0-2.52,1.15s0,2.4,0,3.62C288.39,188.09,288.9,188.12,289.38,188.12ZM303,186.49h-3.1c-.13,5.47-1.19,11.39-5.82,14.84a1.89,1.89,0,0,1-1.13.42,1.62,1.62,0,0,1-1.59-1.57,1.39,1.39,0,0,1,.64-1.12c4.35-3,5.05-8.19,5.05-13.28,0-1.44,0-2.88-.1-4.25v-.39c0-2.17.8-3.39,2.88-3.68a27.43,27.43,0,0,0,7.2-2,1.64,1.64,0,0,1,.68-.13,1.6,1.6,0,0,1,1.53,1.63,1.46,1.46,0,0,1-1.09,1.44,48,48,0,0,1-7.1,1.67c-1,.16-1.18.6-1.18,1.44v.19c0,.67.06,1.38.06,2.11l9.7-.06a1.36,1.36,0,0,1,1.44,1.37,1.34,1.34,0,0,1-1.44,1.38H306l0,14.43a1.55,1.55,0,0,1-3.07,0Z"/>
      <path class="cls-2" d="M321.86,176.09c0-.67.38-1,.8-1a.94.94,0,0,1,.92.92c0,2.76.07,6.09.07,9.54,0,4.77,0,9.7-.1,13.5a3.54,3.54,0,0,1-3.65,3.81c-.77,0-1.44,0-2.11,0-.89,0-1.76,0-2.72,0a.81.81,0,0,1-.86-.83.85.85,0,0,1,.86-.86h.13c.19,0,1.09.09,4.42.09a2.17,2.17,0,0,0,2.27-2.37c.06-1.92.09-4.48.09-7.26,0-5.22-.09-11.23-.12-15.55Z"/>
      <path class="cls-2" d="M71.8,226.77a11.23,11.23,0,0,0,1.34-.57c1.76-1.06,3.49,1.6,1.12,2.78A17.78,17.78,0,0,1,70.74,230a32.47,32.47,0,0,1-1.54,3.23,4.68,4.68,0,0,1,5.38,2.78c1.31-.67,2.65-1.34,3.9-1.88A25.15,25.15,0,0,0,81,233a1.71,1.71,0,1,1,1.79,2.88c-1,.51-1.76.67-3.46,1.31-1.34.52-2.78,1.16-4.06,1.76a24.11,24.11,0,0,1,.06,3.52,1.89,1.89,0,0,1-1.69,2c-.8,0-1.54-.58-1.44-1.83,0-.67.06-1.4.06-2.08l-.83.48c-4,2.56-3.49,4.48-1.7,5.38s4.84.22,6.34-.26c2.82-.86,3.71,2.6.77,3.36-1.89.48-6.24,1-8.74-.44-4.32-2.44-3.55-6.76,2.24-10.56.45-.29,1-.64,1.57-1-.86-2.68-3.33-2.36-5.41,0l-.12.12a7.76,7.76,0,0,1-.74.84c-1.76,1.56-4.1-.26-2.18-2a16,16,0,0,0,2.6-3,27.25,27.25,0,0,0,1.5-2.84,6.53,6.53,0,0,1-4-.35c-2.3-1.16-.73-4.16,1.51-2.66.6.41,1.88.25,3,.06.13,0,.32,0,.48-.06a13.37,13.37,0,0,0,.36-2.69c.12-1.92,3.13-1.73,3.19-.16a5.84,5.84,0,0,1-.25,1.86Z"/>
      <path class="cls-2" d="M96.06,249c-3.13,1.09-3.64-2.33-1.4-2.94A10.6,10.6,0,0,0,102.82,236c-3.56,0-7.08.16-9.32.22a1.46,1.46,0,0,1-1.66-1.44,1.62,1.62,0,0,1,1.82-1.56c4.55-.07,14.63-.13,19.84-.17a1.42,1.42,0,0,1,1.57,1.54,1.57,1.57,0,0,1-1.76,1.44c-1.76-.06-4.38-.1-7.2-.06A14.25,14.25,0,0,1,96.06,249Zm13.8-19.45c-4.42.06-9.22.19-12.64.19-2.4,0-2.24-3,0-3,4,0,8.29-.09,12.48-.19a1.49,1.49,0,1,1,.13,3Z"/>
      <path class="cls-2" d="M124.92,237.85a1.54,1.54,0,0,1-1.7-1.54,1.63,1.63,0,0,1,1.7-1.63H145a1.59,1.59,0,1,1,0,3.17Z"/>
      <path class="cls-2" d="M169.32,243.64a1.89,1.89,0,0,1-.61,2.56,1.58,1.58,0,0,1-2.34-.55,23.43,23.43,0,0,0-7.55-6.33c-1.76-.83-.22-3.59,2-2.43a34.9,34.9,0,0,1,4,2.36,47.29,47.29,0,0,0,6.59-5.11c.41-.42.67-1.09-.29-1.09-4,0-11.81.09-16.77.28-2.4.1-2.62-3.16,0-3.23,5-.09,12.9-.25,18.21-.16,2.88,0,5,2.47,3,4.67a42.51,42.51,0,0,1-8.1,6.72A10.12,10.12,0,0,1,169.32,243.64Z"/>
      <path class="cls-2" d="M185.92,247.8c-2.56-6.31,0-15.78.54-19.58.36-2.37,3.46-1.67,3.11.19-.51,2.59-2.43,10.11-1.67,13.08.1.42.23.32.36,0s.41-.8.54-1a1.28,1.28,0,0,1,2.24,1.25,16.2,16.2,0,0,0-1.89,4.48c-.19.86.19,1.86-.61,2.56S186.56,249.37,185.92,247.8Zm8.58-2.27a1.58,1.58,0,0,1,2.27-2.21c1.73,1.57,5.57,1.05,8.06.54s2.75,2.85.64,3.39C202.05,248.12,196.8,248,194.5,245.53Zm1.82-12.77a1.51,1.51,0,1,1-.45-3,19.46,19.46,0,0,1,8.42-.19c2.24.55,1.63,3.55-.55,3.07A16.22,16.22,0,0,0,196.32,232.76Z"/>
      <path class="cls-2" d="M58.9,298.29a1.63,1.63,0,0,1-1.6-1.63,1.51,1.51,0,0,1,.93-1.37,15.73,15.73,0,0,0,7.9-8.32,32.66,32.66,0,0,0-4-2,1.3,1.3,0,0,1-.86-1.22,1.43,1.43,0,0,1,1.41-1.44c.83,0,3.68,1.51,4.38,1.89a29.85,29.85,0,0,0,.74-4.09l-6.92.19a1.34,1.34,0,0,1-1.4-1.41,1.44,1.44,0,0,1,1.44-1.53c2.3,0,4.73-.1,7.13-.13.1-1.73.13-3.49.13-5.25a1.54,1.54,0,0,1,1.63-1.54,1.5,1.5,0,0,1,1.6,1.48c0,1.76,0,3.52-.16,5.28H74.8c2.11.06,3.52,1.21,3.52,3.07,0,.12,0,.28,0,.41-1,8.61-1.09,10.53-1.09,11.52,0,1.89.29,2.56,2,2.56,1.28,0,3.36-.16,3.49-4.13a1.45,1.45,0,0,1,1.5-1.53A1.71,1.71,0,0,1,86,290.71c0,4.58-2.24,6.91-6.62,6.91s-5.34-1.57-5.34-4.89c0-2.92.6-8.1,1-11.2,0-.1,0-.2,0-.26A1.18,1.18,0,0,0,73.78,280H71a34.88,34.88,0,0,1-1.19,5.82c2.88,1.86,3.52,2.69,3.52,3.52a1.72,1.72,0,0,1-1.6,1.73,1.51,1.51,0,0,1-1.12-.54,13.36,13.36,0,0,0-1.85-1.73C65.68,295.67,59.83,298.29,58.9,298.29Z"/>
      <path class="cls-2" d="M109.16,292.57a1.81,1.81,0,0,1-1.73,1.85,1.72,1.72,0,0,1-1.28-.64,15.56,15.56,0,0,0-6.08-4,1.34,1.34,0,0,1-.92-1.25,1.67,1.67,0,0,1,1.72-1.6c.29,0,.87,0,3.27,1.25,2.33-2.53,4.51-5.66,4.51-6.21a.51.51,0,0,0-.58-.54c-1.31,0-3.23,0-5.37,0a36.81,36.81,0,0,1-6.56,8,2.15,2.15,0,0,1-1.47.61A1.67,1.67,0,0,1,93,288.5a1.71,1.71,0,0,1,.71-1.34,30.2,30.2,0,0,0,8.38-11.65,1.73,1.73,0,0,1,1.63-1.15,1.77,1.77,0,0,1,1.83,1.63c0,.26-.07.61-1.22,2.69,1.73,0,4-.1,5.66-.1s2.66,1,2.66,2.24a3.28,3.28,0,0,1-.51,1.67,50.47,50.47,0,0,1-5.41,7.2C109.06,291.29,109.16,292,109.16,292.57Z"/>
      <path class="cls-2" d="M133.86,277.62l-12,.07a1.49,1.49,0,1,1,0-3l10.4.06,0-3.07a1.56,1.56,0,0,1,1.7-1.5,1.54,1.54,0,0,1,1.69,1.5l0,3.07,10.37-.06a1.49,1.49,0,1,1,0,3Zm-1.53,5.86c-1.83,0-3.52,0-4.52,0s-1.24.42-1.27,1.41c0,1.18,0,2.91,0,4.7s0,3.68,0,5.22v0a1.41,1.41,0,0,1-1.57,1.34,1.48,1.48,0,0,1-1.63-1.37v-1.92c0-2.85,0-6.15.06-8.58s1.38-3.45,3.77-3.52c1.22,0,3.11-.06,5.16-.06v-1.19a1.58,1.58,0,0,1,3.16,0v1.19c2.12,0,4.13,0,5.51.06,2.14.07,3.65,1.19,3.68,3.39,0,1,0,2.15,0,3.08v2c0,.55,0,1.22.06,2.4v.1c0,2.21-1.69,4-4.67,4-1.63,0-3.36-.26-3.36-1.76a1.42,1.42,0,0,1,1.31-1.54,1.23,1.23,0,0,1,.32,0,6.93,6.93,0,0,0,1.64.26c.86,0,1.56-.32,1.56-1.34,0,0,0-4.64-.06-6.72a1.11,1.11,0,0,0-1.18-1.22c-1.09,0-2.88-.06-4.8-.06v13.66a1.62,1.62,0,0,1-3.23,0Z"/>
      <path class="cls-2" d="M162.49,281.75a11.19,11.19,0,0,1,1-1.66c.51-.68.36-.64-.25-.45-2.4.77-1.86.77-4,1.6-1,.38-1.92.7-2.88,1-2.82.77-3.68-2.91-1.12-3.46.67-.16,2.52-.51,3.55-.77,1.56-.38,4.38-1,7.64-2a43.22,43.22,0,0,1,8.71-1.88,1.88,1.88,0,0,1,2.17,2.46c-.19.54-.89,1.18-3.13,1a13.84,13.84,0,0,0-4.74.9,9.38,9.38,0,0,0-4.13,3.74c-2.81,4.71-.67,11.43,6.5,11.17,3.36-.13,3.58,3.65.19,3.62C162.33,297.05,159,288.18,162.49,281.75Zm9.85,2.11c-1.69-.73-.41-2.72,1.16-2.14a10.54,10.54,0,0,1,3.36,2c1.31,1.41-.68,3.46-1.8,2.15A12,12,0,0,0,172.34,283.86Zm3.24-2.78c-1.73-.67-.48-2.72,1.08-2.21a10.63,10.63,0,0,1,3.4,1.92c1.34,1.35-.55,3.46-1.7,2.18A10.92,10.92,0,0,0,175.58,281.08Z"/>
      <path class="cls-2" d="M205.17,291.19c-1.51,6.5-6.18,7.26-8.61,7.26a16.49,16.49,0,0,1-4.74-.76,1.51,1.51,0,0,1-1.15-1.48,1.6,1.6,0,0,1,1.63-1.63,2.24,2.24,0,0,1,.87.16,10.61,10.61,0,0,0,3.71.77c2.27,0,4.13-1.15,5.12-4.32l-15.84,0a1.37,1.37,0,0,1-1.44-1.44,1.35,1.35,0,0,1,1.41-1.37l16.35,0a19.65,19.65,0,0,0,.13-2.08v-.07c0-.76-.61-1.05-1.25-1.05-1.18,0-2.43,0-3.65,0s-2.43,0-3.65,0l-.19.57a1.76,1.76,0,0,1-1.76,1.12c-.8,0-1.53-.41-1.53-1.21a1.9,1.9,0,0,1,.16-.67,39.85,39.85,0,0,0,2.49-8.67,1.39,1.39,0,0,1,1.47-1.16,1.47,1.47,0,0,1,1.6,1.41,1,1,0,0,1,0,.29l-.09.45h8.54a1.36,1.36,0,0,1,1.44,1.37,1.3,1.3,0,0,1-1.44,1.31h-9.15c-.23.87-.42,1.73-.67,2.6,1.24,0,2.52,0,3.8,0s2.6,0,3.88,0a2.93,2.93,0,0,1,3.2,3c0,.12,0,1.53-.16,2.75l5.27,0a1.37,1.37,0,0,1,1.38,1.44,1.29,1.29,0,0,1-1.34,1.34Zm-16.1-12.89a1.61,1.61,0,0,1-3.2-.07c0-.42,0-.93,0-1.44s0-1.06,0-1.57c.07-1.82,1.44-3.13,4-3.17,3.23,0,6.37-.06,9.51-.06,2.56,0,5.15,0,7.83.06,2.21,0,3.84,1.19,3.91,3.14,0,.48,0,1.15,0,1.79,0,1.25,0,2.63-1.69,2.63a1.43,1.43,0,0,1-1.54-1.38v-.06c0-3.14,0-3.4-2-3.46-2.52,0-5.4-.06-8.22-.06-2.34,0-4.58,0-6.53.06-1.73,0-2,.51-2.08,1.67v1.92Z"/>
      <path class="cls-2" d="M244.74,293.21l-7.9-.13a18.73,18.73,0,0,0,6.69,2.37,1.34,1.34,0,0,1,1.27,1.37,1.67,1.67,0,0,1-1.69,1.67,20.5,20.5,0,0,1-8.32-3.43,1.24,1.24,0,0,1-.58-1.05,1.32,1.32,0,0,1,.39-1h-5a1.52,1.52,0,0,1,.52,1.12,1.27,1.27,0,0,1-.55,1c-2.72,1.92-7.07,3.46-8.41,3.46a1.52,1.52,0,0,1-1.57-1.54,1.41,1.41,0,0,1,1.34-1.41,15.63,15.63,0,0,0,6.72-2.65l-7.93.12h0a1.22,1.22,0,0,1-1.28-1.28,1.25,1.25,0,0,1,1.31-1.31h25.05a1.27,1.27,0,0,1,1.31,1.31,1.25,1.25,0,0,1-1.28,1.32Zm-10.85-17.79v1.5c1.28,0,2.53,0,3.72.06,1.95.07,3.26.93,3.32,2.21s.13,2.53.13,3.84,0,2.62-.13,3.78c-.09,1.37-1.34,2.33-3.48,2.4-1.8,0-3.62.06-5.38.06s-3.49,0-5.12-.06c-2.37-.07-3.49-1-3.55-2.37-.06-1.15-.1-2.34-.1-3.49,0-1.34,0-2.66.1-3.84.06-1.41,1-2.46,3.49-2.53,1.18,0,2.43-.06,3.74-.06v-1.5l-9.18,0a1.3,1.3,0,1,1,0-2.59l9.15.06v-1.41a1.67,1.67,0,0,1,3.33,0l0,1.41,9.06-.06a1.31,1.31,0,0,1,1.44,1.28,1.33,1.33,0,0,1-1.44,1.31Zm4.13,6.81H226.18v1.47H238Zm-.06-2.18c0-.6-.45-1-1.47-1-1.44,0-2.92-.06-4.36-.06s-2.91,0-4.41.06c-1,0-1.41.51-1.44,1l0,.39H238Zm-11.71,5.48,0,.51c0,1.09.77,1.12,5.5,1.12,5.51,0,6.08,0,6.18-1.12,0-.16,0-.35,0-.51Z"/>
      <path class="cls-2" d="M262.71,274.77a11.45,11.45,0,0,0,1.35-.57c1.76-1.06,3.48,1.6,1.12,2.78a17.78,17.78,0,0,1-3.52,1.06,32.47,32.47,0,0,1-1.54,3.23,4.68,4.68,0,0,1,5.38,2.78c1.31-.67,2.65-1.34,3.9-1.88a25.15,25.15,0,0,0,2.5-1.19,1.71,1.71,0,1,1,1.79,2.88c-1,.51-1.76.67-3.46,1.31-1.34.52-2.78,1.16-4.06,1.76a25.6,25.6,0,0,1,.06,3.52,1.89,1.89,0,0,1-1.69,2c-.8,0-1.54-.58-1.44-1.83,0-.67.06-1.4.06-2.08l-.83.48c-4,2.56-3.49,4.48-1.7,5.38s4.83.22,6.34-.26c2.81-.86,3.71,2.6.77,3.36-1.89.48-6.24,1-8.74-.44-4.32-2.44-3.55-6.76,2.24-10.56.45-.29,1-.64,1.57-1-.87-2.68-3.33-2.36-5.41,0l-.13.12a6.85,6.85,0,0,1-.73.84c-1.76,1.56-4.1-.26-2.18-2a16,16,0,0,0,2.59-3,25.52,25.52,0,0,0,1.51-2.84,6.53,6.53,0,0,1-4-.35c-2.3-1.16-.74-4.16,1.5-2.66.61.41,1.89.25,3,.06.13,0,.32,0,.48-.06a12.71,12.71,0,0,0,.35-2.69c.13-1.92,3.14-1.73,3.2-.16a6.14,6.14,0,0,1-.25,1.86Z"/>
      <path class="cls-2" d="M295.66,294.74a35.59,35.59,0,0,1-6.27,1.57,1.25,1.25,0,0,1-1.31-1.28,1.32,1.32,0,0,1,1.12-1.31c.51-.1,1-.16,1.44-.26V283.25h-.87a1.61,1.61,0,0,1-.41-.06,1.35,1.35,0,0,1,.35.93c0,.83-.67,1.25-2.72,2.21v3.42c0,.51.06,3.42.1,4.54v.16c0,2.05-1,3.84-3.91,3.84-1.41,0-2.91-.12-2.91-1.72a1.3,1.3,0,0,1,1.22-1.41.89.89,0,0,1,.28,0,4.58,4.58,0,0,0,1.12.16c.68,0,1.16-.29,1.19-1.38,0-.83,0-3.29,0-6.33a18.93,18.93,0,0,1-2.62.83A1.45,1.45,0,0,1,280,287a1.36,1.36,0,0,1,1-1.31l3.07-1v-5.4h-2.27a1.33,1.33,0,0,1-1.38-1.38,1.32,1.32,0,0,1,1.38-1.34h2.27V271.7a1.43,1.43,0,0,1,1.47-1.5,1.39,1.39,0,0,1,1.44,1.5v4.87h1.73a1.33,1.33,0,0,1,1.41,1.34,1.35,1.35,0,0,1-1.41,1.38H287v4.22c.32-.16.64-.35,1-.54a1.26,1.26,0,0,1,.54-.16,1,1,0,0,1,.32.06,1.22,1.22,0,0,1-.28-.8,1.16,1.16,0,0,1,1.21-1.18h17.79a1.16,1.16,0,0,1,1.28,1.18,1.18,1.18,0,0,1-1.28,1.18h-9.4l.06,14.05a1.28,1.28,0,0,1-2.56,0Zm7.1-15c-1.4.07-2.88.1-4.28.1-6,0-7.2-.13-7.2-3.58,0-.9.06-1.89.09-2.75.07-1.25,1.12-2.47,3.14-2.5,1.37,0,2.94-.06,4.51-.06,1.28,0,2.53,0,3.68.06a3.1,3.1,0,0,1,3.07,2.3c.07.71.1,1.51.1,2.34,0,.58,0,1.15,0,1.66C305.74,278.81,304.59,279.64,302.76,279.73Zm-7,3.52h-2.65l0,1.7h2.62Zm0,3.78H293.1v1.7h2.59Zm0,3.78H293.1V293c.83-.19,1.63-.42,2.46-.67l.13,0ZM303,274.17c-.07-1.16-.16-1.16-4.77-1.16-3.59,0-4.07,0-4.13,1.19l0,.19h9Zm.06,2.17h-9v.45c0,.93.54,1,4.32,1,4.41,0,4.57-.06,4.64-1Zm-3.39,10.59a1.14,1.14,0,0,1,0-2.27c.8,0,1.76,0,2.72,0s1.92,0,2.68,0a2.06,2.06,0,0,1,2.15,2.08,15.65,15.65,0,0,1-2.27,6.27A14.85,14.85,0,0,0,308,294.9a1.3,1.3,0,0,1,.77,1.19,1.48,1.48,0,0,1-1.41,1.47c-1.25,0-3.78-2.37-3.94-2.53-1.09,1.22-2.81,2.59-3.58,2.59a1.48,1.48,0,0,1-1.41-1.41,1,1,0,0,1,.58-.92,11.28,11.28,0,0,0,2.75-2.12,11.78,11.78,0,0,1-2.34-4.51,1.12,1.12,0,0,1,1.15-1.09,1.08,1.08,0,0,1,1,.74,10.92,10.92,0,0,0,1.6,2.91,10.46,10.46,0,0,0,1.28-3.9.41.41,0,0,0-.45-.45c-1.09,0-2.88,0-4.32.06Z"/>
      <path class="cls-2" d="M329.79,293c2.34-2.08,2.24-5.12.42-6.33-1.66-1.12-5.12-1.35-8.35.54a7.09,7.09,0,0,0-2.69,2.4c-1.15,1.7-4.35-.19-2.37-2.14a112.66,112.66,0,0,0,9.67-10.34c.35-.45,0-.32-.23-.19a25.5,25.5,0,0,1-5.37,1.63c-2.53.55-3-2.62-.83-2.88a49.08,49.08,0,0,0,7-1.56c2.56-.74,4.68,1.53,3.08,3.32-1,1.15-2.31,2.4-3.59,3.59s-2.56,2.33-3.71,3.45a9.81,9.81,0,0,1,9-.09c4.61,2.75,3.11,8.38-.25,10.81-3.17,2.27-8.16,2.4-10.59.8-3.4-2.21-1.89-6.17,1.88-6.3,2.56-.1,5,1.44,5.06,4.32A4.2,4.2,0,0,0,329.79,293Zm-6.81-1c-1.41.13-1.47,1.44-.45,2a5.84,5.84,0,0,0,2.69.48C325.25,293.05,324.39,291.93,323,292.05Z"/>
    </g>
  </g>
</svg>
