<svg id="レイヤー_1" data-name="レイヤー 1" xmlns="http://www.w3.org/2000/svg" viewBox="0 0 160 80"><defs><style>.cls-1{fill:#12b3b1;}.cls-2{fill:#fff;}</style></defs><polygon class="cls-1" points="160 80 0 70 0 10 160 0 160 80"/><path class="cls-2" d="M16.77,49.41l6.84-3.48c0,2.16,1.26,5.64,5.16,5.7,3.06,0,4.74-3.36,4.08-6.3-1.2-5.34-7-6.54-14.4-3.42,0,0,0-18.54.12-20.4,0,0,12.18-.54,20.7-.3l-.42,8a109,109,0,0,0-13.26-1.08l-.36,7.32c7.56-2.22,15.36,1.14,16.2,9.24,1,9-5.46,15-13.32,14.28C21.15,58.29,18.09,54.51,16.77,49.41Z"/><path class="cls-2" d="M48.46,37.29C49.18,25.89,56.8,19.65,66,20.73c7.8.72,13.56,7,13.26,18.12-.42,16.14-9.78,19.44-16.2,19C55.78,57.27,47.56,51.69,48.46,37.29Zm8.7,2.7c.18,4.5,2.4,7.74,6.36,8,4.5.3,6.66-3.36,6.66-9.42,0-5-2.58-8.16-5.76-8.4C59.92,29.79,56.74,32.85,57.16,40Z"/><path class="cls-2" d="M95.56,43.09a21.54,21.54,0,0,0-3.6-2l2.12-3.4s3.12,1.52,3.72,1.88c0,0,2.36-3.12,2.72-4.6l-5.76-.52A10.91,10.91,0,0,1,88,37.85s4.8-5.88,5.88-10.8l4.44,1A15.39,15.39,0,0,1,97,31.41s8,.28,11,.24c-1.56,5.68-5.92,11.08-9,12.88,0,0,7.2-.16,11,.16,0,0,.24,10.48-.08,11.88-8,.08-7.92.24-12.64,0,0,0,0-7.88,0-9.72a18,18,0,0,1-9.88,3.44S94.48,45.45,95.56,43.09Zm6.08,9.36a36,36,0,0,0,4.16-.12,14.61,14.61,0,0,0,0-3.8l-4,.12A19.38,19.38,0,0,0,101.64,52.45Z"/><path class="cls-2" d="M123.72,45.57l.52,10.32L121,56s.08-7.08.12-10a8.3,8.3,0,0,1-7,3.48c2.52-2.32,6.44-6.48,6.8-9.88v-.88l-3.56.8-.12-4.24,4.44.24L121,31.05l3.92-.24-.12,4.56,3.56.32-.12,3.68s-2.32-.08-3.36-.24l-.08,2.56c-.08,1.16,1.6,2.8,3.56,3C127.6,45.73,125.64,47.49,123.72,45.57Zm4,6.84A15.2,15.2,0,0,0,133.6,51a12.06,12.06,0,0,1-3.08,5.24Zm5.84-5.56-1.16,2.8a23.67,23.67,0,0,0-2.8-1.64l1.4-2.36Zm5.95-2.16s.16,11.48,0,13.76c0,0-2.51-2.92-4.63-4.88a11.88,11.88,0,0,0,2.08.32s0-8.12,0-9.44a33.2,33.2,0,0,1-6,.4l-.2-3.36h5.76v-1.4s-2.68,0-4.48.12l.12-3.4s4,.12,4.48,0l.08-1.64s-3.56-.36-5.36-.36l-.24-2.72s12.35-.48,13.47-.56l-.28,3.28s-4.19.12-4.75.12l.08,1.16,4.44,0,.19,2.84s-4.23.32-4.52.32l-.11,1.72,6-.32-.08,3.68S140.83,44.69,139.47,44.69Zm-3.23-14.88-3,1.24s-.88-2.16-1.36-3l3.24-1.36Zm7-3.44,2.6,3.2a22.1,22.1,0,0,1-5.71,1S143.15,27.33,143.23,26.37Zm0,24.16s2.52,2.2,4.2,2.12l-2.56,3.56c-.28-.32-2.71-2.12-3.52-3.76Zm2.52-5.08,1.36,4.12s-3.72.4-5.6-1.2C141.55,48.37,145,46.89,145.79,45.45Z"/></svg>