<svg xmlns="http://www.w3.org/2000/svg" viewBox="0 0 747.88 294.6"><defs><style>.cls-1{fill:#002d97;}.cls-2,.cls-4{fill:#fff;}.cls-3{fill:#ff6b36;}.cls-4{font-size:23.8px;font-family:TsukuARdGothic-Bold-83pv-RKSJ-H, Tsukushi A Round Gothic;letter-spacing:-0.03em;}.cls-5{letter-spacing:-0.02em;}.cls-6{letter-spacing:-0.02em;}.cls-7{letter-spacing:0.01em;}.cls-8{letter-spacing:-0.05em;}.cls-9{letter-spacing:-0.13em;}.cls-10{letter-spacing:0.04em;}.cls-11{letter-spacing:0.03em;}.cls-12{letter-spacing:-0.1em;}.cls-13{letter-spacing:-0.16em;}.cls-14{letter-spacing:0.08em;}.cls-15{fill:none;stroke:#fff;stroke-linecap:round;stroke-linejoin:round;stroke-width:2px;}.cls-16{fill:#ffe627;}</style></defs><g id="レイヤー_3" data-name="レイヤー 3"><path class="cls-1" d="M85.63,207.69,85,191.3s-7.37,1.38-9.07,1.5l-1-9.92,9.3-1.11-1-12.23,9.13-.59-.37,11.41,6-.49.59,9-6,1.5s.55,11.66.78,15.07c2-.43,3.67-.94,8.53-3.68A22.33,22.33,0,0,1,94.1,214s.6,12.36.46,20.94c0,0-9.27-7.56-10.21-8.11l3.92-.25L88,217s-7.59,1.2-10.2,1.37l-.5-9.34C83.84,208.11,83.84,208.11,85.63,207.69Zm66.48-19.45a39.54,39.54,0,0,1-18.89,1c0-3.73-1-19.8-1-19.8l-12.49.21c.83,5.09-1.14,15.09-12.89,18.78,5.64-7.72,5.3-20.81,2.39-28.28,6,.32,29.93-1.74,29.93-1.74.25,3.91.79,22.93.79,22.93a33.34,33.34,0,0,0,8.05-.22l1.54-7.26Zm1.77,31.84L148,234.68s-14.59-10.44-17.5-11.76c0,0-8.56,7.91-19.5,8.62,0,0,10.45-8.34,12-13l-7.28-6.49,2.49-5.2s7.69,5.15,9.46,5.94a40.34,40.34,0,0,0,2.7-9.55S116.8,205,112.47,205l-.42-9.65s19.82-.58,29.24-1.39c0,0-.39,14.13-5.82,22C143.8,220.23,151.31,221,153.88,220.08Z" transform="translate(0.02 -0.12)"/><path class="cls-1" d="M186.53,204.75l2.22,24.76-7.83.51s-.07-18-.47-21.14a22.65,22.65,0,0,1-15.65,5.75c4.43-4.62,13.83-12.08,14.64-18.19l-.2-3.11s-9.72.94-12.33,1.11l-.78-8.93s9.05-.38,13-.94l-.31-7.95s-7.74,2-14.31.13c0,0,16.64-10.66,20.38-15.24l9.36,10.68s-8,2.94-9.46,3.24l.59,9.13s5.5-.76,9.7-1.23l.34,9.85s-6.25,0-8.57,0l.36,4.11a21.71,21.71,0,0,0,10,1.56C197.08,199.53,195.68,206,186.53,204.75Zm59.94,25.64s-7.82-5.54-12.85-10a55,55,0,0,0,6.92-.55s-3.54-15.6-3.6-19.73c0,0-23.81,1.35-27.23,1.47,0,0,1.89,18.23,1.73,25.09l-9.26.2s-1.44-28.33-2.21-32.52l45.14-3.44S246.66,208.5,246.47,230.39Zm-2.89-64.53s-30.74,3.21-43.62,1.93l-.52-6.32s15.05-1.18,16.43-1.57l-1.41-9.38,11.35-.64-.56,8.4s14.59-.34,17.75-1.36Zm-9.24,20.66s-17.94,1.67-22.53,2.27c0,0-.91-12.44-1.4-16.74l23.88-1.76S234.19,182.6,234.34,186.52Zm-16.57,31.93-2.15-11.25,14.53-1.45.95,11.53C229,218.12,224.89,219.4,217.77,218.45Zm9.39-43.06-8.21.84c.07,1.11.15,5.44.15,5.44a49.22,49.22,0,0,0,7.93-.52C227.13,179.53,227.16,175.39,227.16,175.39Zm-4.72,38.92c2.89-.49,4.09-.67,4.09-.67l-.77-4.08-3.29.62Z" transform="translate(0.02 -0.12)"/><path class="cls-1" d="M265.62,185.9l-4-13.05,18.49-4-6-12.61,14.19-5s4.83,13.8,5.14,15.39c0,0,6.6-2.34,18-5.3L314.25,174s-10.53,2.4-19.5,4l3,6.77S312,181.17,316.45,180l2.29,10.34c-8,3-9.93,3.87-15.54,6.05,0,0,7.46,18.57,8.93,21.09L297,223.17c-2.91-9.18-4-13.14-6.58-20.64L273,206.69s-3.37-6.74-5.54-12.24c0,0,11.6-3.08,19.63-5.11L283.79,180C278.65,181.52,274.25,183.62,265.62,185.9Z" transform="translate(0.02 -0.12)"/><path class="cls-1" d="M396.61,173.65a142.71,142.71,0,0,1-6.16,21.57,91.09,91.09,0,0,0-4.3-11.92s-12.13,2.6-14.42,3.06c0,0,4.24,24.82,4.66,28.22l-11.07,1.83s-3.12-24.7-3.95-28.17c0,0-8.1,2.64-14.2,4.85L344.23,182c8.55-1.76,11.48-1.75,16-2.65l-2.42-14,11.42-1.15s.38,12,.48,13.58C369.76,177.81,393.28,173.66,396.61,173.65Z" transform="translate(0.02 -0.12)"/><path class="cls-1" d="M435.14,168.62s-13.23-6.5-15.64-8l6.31-11.4a161.48,161.48,0,0,1,15.1,5.87Zm-11.91,24.57c25.36-3.67,38.57-14.51,51.85-28.88-2,22-17.14,38.72-44.17,44.71Z" transform="translate(0.02 -0.12)"/><path class="cls-1" d="M518.84,151.68c16.09,8.74,41.86,25.11,47.51,29.88L558.79,194S528,174.48,520.71,168.1c0,0-12.83,18.07-15.93,21.6L492.32,181S511.33,158.62,518.84,151.68Zm26,6.48a7.38,7.38,0,0,1-3.88-10,7.73,7.73,0,0,1,9.83-3.77,7.33,7.33,0,0,1,4.67,8.17A7.52,7.52,0,0,1,544.87,158.16Zm2.45-4.19c1.84.38,3.38-.63,3.53-3.06a3.06,3.06,0,0,0-1.68-2.51,2.94,2.94,0,0,0-3.64,1.35A3.07,3.07,0,0,0,547.32,154Z" transform="translate(0.02 -0.12)"/><path class="cls-1" d="M582.61,160.24c13.76-.7,51.94-2.77,59.41-4.17l-.13,13.62s-30.82,1.9-56.69,4Z" transform="translate(0.02 -0.12)"/><path class="cls-1" d="M680.43,152.67s-13.23-6.5-15.64-8l6.31-11.4s8.45,2.78,15.1,5.88Zm-11.91,24.56c25.36-3.66,38.57-14.5,51.85-28.88-2,22-17.14,38.72-44.17,44.71Z" transform="translate(0.02 -0.12)"/><path class="cls-2" d="M81,203.09l-.66-16.39s-7.37,1.39-9.08,1.5l-1-9.91,9.3-1.11-1-12.23,9.14-.6-.37,11.42,6-.5.58,9-6,1.5s.56,11.65.78,15.07c2-.44,3.67-.95,8.53-3.68a22.35,22.35,0,0,1-7.77,12.2s.6,12.36.45,20.93c0,0-9.26-7.56-10.2-8.1l3.91-.26-.32-9.55s-7.58,1.2-10.19,1.37l-.51-9.35C79.24,203.51,79.24,203.51,81,203.09Zm66.48-19.44a39.48,39.48,0,0,1-18.88,1c0-3.72-1-19.79-1-19.79l-12.49.2c.84,5.09-1.13,15.1-12.89,18.79,5.65-7.73,5.3-20.81,2.4-28.28,6,.31,29.92-1.75,29.92-1.75.26,3.91.79,22.93.79,22.93a33.34,33.34,0,0,0,8-.22l1.55-7.26Zm1.77,31.84-5.9,14.6s-14.6-10.45-17.5-11.77c0,0-8.56,7.92-19.5,8.63,0,0,10.44-8.34,12-13l-7.27-6.48,2.48-5.2s7.7,5.14,9.46,5.94a40.81,40.81,0,0,0,2.71-9.56s-13.5,1.69-17.83,1.77l-.43-9.65s19.82-.59,29.25-1.4c0,0-.4,14.14-5.83,22.05C139.21,215.64,146.72,216.36,149.28,215.49Z" transform="translate(0.02 -0.12)"/><path class="cls-2" d="M181.94,200.16l2.21,24.75-7.83.51s-.06-18-.47-21.14A22.66,22.66,0,0,1,160.2,210c4.44-4.62,13.83-12.09,14.64-18.19l-.2-3.11s-9.72.93-12.33,1.1l-.78-8.92s9.05-.39,13.05-.95l-.32-7.94s-7.73,2-14.31.12c0,0,16.65-10.66,20.38-15.24l9.37,10.68s-8,2.94-9.47,3.24l.6,9.14s5.49-.76,9.69-1.24l.34,9.86s-6.25,0-8.57-.05l.37,4.11a21.76,21.76,0,0,0,10,1.57C192.49,194.93,191.09,201.38,181.94,200.16Zm59.93,25.64s-7.82-5.54-12.85-10.06a54.84,54.84,0,0,0,6.92-.55s-3.53-15.59-3.6-19.72c0,0-23.8,1.34-27.22,1.47,0,0,1.89,18.22,1.73,25.09l-9.26.2s-1.44-28.34-2.22-32.52l45.14-3.44S242.06,203.91,241.87,225.8ZM239,161.26s-30.74,3.21-43.63,1.93l-.51-6.31s15-1.18,16.43-1.58l-1.42-9.38,11.35-.64-.56,8.41s14.6-.35,17.76-1.36Zm-9.24,20.67s-17.94,1.67-22.54,2.27c0,0-.91-12.44-1.39-16.75l23.88-1.75S229.59,178,229.75,181.93Zm-16.58,31.92L211,202.6l14.52-1.45.95,11.53C224.44,213.52,220.29,214.8,213.17,213.85Zm9.4-43-8.21.84c.07,1.1.15,5.43.15,5.43a49.22,49.22,0,0,0,7.93-.52C222.54,174.94,222.57,170.8,222.57,170.8Zm-4.73,38.92c2.89-.49,4.09-.67,4.09-.67l-.77-4.08-3.28.61Z" transform="translate(0.02 -0.12)"/><path class="cls-2" d="M261,181.3l-4-13.05s10.63-2.3,18.48-4l-6-12.62,14.2-5s4.83,13.8,5.13,15.39c0,0,6.6-2.35,18-5.31l2.74,12.63s-10.53,2.4-19.5,4l3,6.76s14.29-3.55,18.75-4.74l2.28,10.33c-8,3-9.93,3.87-15.53,6,0,0,7.45,18.57,8.93,21.1l-15.15,5.72c-2.92-9.19-4-13.15-6.59-20.64l-17.37,4.15s-3.36-6.73-5.53-12.24c0,0,11.59-3.07,19.62-5.11l-3.33-9.36C274.05,176.93,269.65,179,261,181.3Z" transform="translate(0.02 -0.12)"/><path class="cls-2" d="M392,169.05a141.2,141.2,0,0,1-6.15,21.57,89.32,89.32,0,0,0-4.31-11.92s-12.13,2.61-14.42,3.06c0,0,4.24,24.83,4.66,28.23l-11.07,1.83s-3.12-24.7-4-28.18c0,0-8.09,2.65-14.2,4.86l-2.94-11.1c8.56-1.77,11.48-1.76,16.06-2.66l-2.42-14,11.42-1.15s.37,12,.48,13.58C365.17,173.22,388.69,169.07,392,169.05Z" transform="translate(0.02 -0.12)"/><path class="cls-2" d="M430.54,164s-13.22-6.5-15.64-8l6.32-11.4s8.44,2.78,15.1,5.88Zm-11.91,24.56c25.37-3.66,38.57-14.5,51.85-28.88-2,22-17.13,38.72-44.17,44.71Z" transform="translate(0.02 -0.12)"/><path class="cls-2" d="M514.24,147.09c16.1,8.73,41.86,25.1,47.51,29.87l-7.56,12.39s-30.8-19.47-38.07-25.85c0,0-12.84,18.07-15.94,21.6l-12.46-8.66S506.73,154,514.24,147.09Zm26,6.47a7.38,7.38,0,0,1-3.88-10,7.74,7.74,0,0,1,9.84-3.76,7.31,7.31,0,0,1,4.66,8.16A7.52,7.52,0,0,1,540.27,153.56Zm2.45-4.19c1.84.38,3.39-.62,3.53-3.05a3,3,0,0,0-1.67-2.51,3,3,0,0,0-3.65,1.34A3.08,3.08,0,0,0,542.72,149.37Z" transform="translate(0.02 -0.12)"/><path class="cls-2" d="M578,155.64c13.77-.69,51.94-2.77,59.41-4.16l-.12,13.61s-30.83,1.91-56.7,4Z" transform="translate(0.02 -0.12)"/><path class="cls-2" d="M675.83,148.07s-13.22-6.5-15.64-7.95l6.32-11.4a161.48,161.48,0,0,1,15.1,5.87Zm-11.91,24.57c25.37-3.67,38.58-14.51,51.86-28.88-2,22-17.14,38.72-44.17,44.71Z" transform="translate(0.02 -0.12)"/><path class="cls-1" d="M110.3,83.7,87.62,85.18a15.37,15.37,0,0,0-14.34,16.33l1.53,23.59a15.37,15.37,0,0,0,16.33,14.34L113.83,138a15.37,15.37,0,0,0,14.34-16.33L126.63,98A15.37,15.37,0,0,0,110.3,83.7ZM78.72,101.16A9.94,9.94,0,0,1,88,90.62l22.68-1.47a9.92,9.92,0,0,1,10.54,9.24l1.53,23.6a9.92,9.92,0,0,1-9.25,10.53L90.79,134a9.91,9.91,0,0,1-10.53-9.24Z" transform="translate(0.02 -0.12)"/><path class="cls-1" d="M101.63,125.54a14,14,0,1,0-14.88-13.06A14,14,0,0,0,101.63,125.54ZM100.1,102a9.64,9.64,0,1,1-9,10.25A9.65,9.65,0,0,1,100.1,102Z" transform="translate(0.02 -0.12)"/><circle class="cls-1" cx="114.17" cy="96.25" r="3.14" transform="translate(-5.99 7.49) rotate(-3.72)"/><path class="cls-2" d="M107.3,80.7,84.62,82.18A15.37,15.37,0,0,0,70.28,98.51l1.53,23.59a15.37,15.37,0,0,0,16.33,14.34L110.83,135a15.37,15.37,0,0,0,14.34-16.33L123.63,95A15.37,15.37,0,0,0,107.3,80.7ZM75.72,98.16A9.94,9.94,0,0,1,85,87.62l22.68-1.47a9.92,9.92,0,0,1,10.54,9.24l1.53,23.6a9.92,9.92,0,0,1-9.25,10.53L87.79,131a9.91,9.91,0,0,1-10.53-9.24Z" transform="translate(0.02 -0.12)"/><path class="cls-2" d="M98.63,122.54a14,14,0,1,0-14.88-13.06A14,14,0,0,0,98.63,122.54ZM97.1,99a9.64,9.64,0,1,1-9,10.25A9.65,9.65,0,0,1,97.1,99Z" transform="translate(0.02 -0.12)"/><circle class="cls-2" cx="111.17" cy="93.25" r="3.14" transform="translate(-5.8 7.29) rotate(-3.72)"/><path class="cls-1" d="M147.3,110.73c11.8-7.07,23.67-16.22,27.52-24.11l10.41,7.64a51.6,51.6,0,0,1-10.85,12.36l3,25.21-9.15.6-.92-23.4C161,111,154.68,112,147.3,110.73Z" transform="translate(0.02 -0.12)"/><path class="cls-1" d="M213.66,101.66s-8.79-4.33-10.39-5.29l4.19-7.58a107.12,107.12,0,0,1,10,3.9ZM205.74,118c16.87-2.44,25.65-9.65,34.48-19.2-1.33,14.63-11.4,25.74-29.37,29.72Z" transform="translate(0.02 -0.12)"/><path class="cls-1" d="M275.06,91.9c-17.33,2.53-17.33,2.53-20.8,2.76a88.31,88.31,0,0,0-1-8.79s31.13-2.62,32.91-3.07c0,0-.26,12.61-7.1,22.71,0,0,10.51,10.24,16.63,9.51l-5.41,9.53a145.3,145.3,0,0,1-15.55-12.39c-2,3.81-11.17,9.71-21.56,11.72C266.47,112.36,273.85,100.09,275.06,91.9Z" transform="translate(0.02 -0.12)"/><path class="cls-1" d="M305.6,100.57c3.92-8.84,4.63-19.61,2.57-24.5l10.55-.48c0,5.16.08,7.36-1.1,10.79,0,0,14.44-.47,23.41-1.79,1.14,10.38-1,35.12-29.62,40.4,7.25-5.1,11.76-10.95,13.77-15A90.73,90.73,0,0,0,315,108.33l2.3-8c4.07.81,9.47,2.47,10.91,2.91.6-1,1.89-7,1.93-10.51,0,0-12.59,1.22-15.48,1A17,17,0,0,1,305.6,100.57Z" transform="translate(0.02 -0.12)"/><path class="cls-1" d="M380.42,89.94s-8.82-.57-12.94-1c-.56,4.73-3.4,9.54-9.84,12.44A51.48,51.48,0,0,0,358,76.11l10.07-.65a51.52,51.52,0,0,1-.1,6.64c8.88.56,16.66.53,22.81.33,1.52,15.11-4.77,33.82-27,39.29A40.37,40.37,0,0,0,380.42,89.94Zm12.49-12.07A18.34,18.34,0,0,0,390,79.12L388.43,74l4.15-1.07Zm2.74-.05-1.14-5.15,4.09-1.07-.08,5A18.85,18.85,0,0,0,395.65,77.82Z" transform="translate(0.02 -0.12)"/><path class="cls-1" d="M435.81,94.44s-24.24,2.52-26.88,3l-1-8.92s24.22-1.71,37.86-2.33c.82,15.76-5.52,26.5-20.43,31.16C433.34,108,435.88,99.67,435.81,94.44Zm3.38-24.28.53,8.15c-9.46,1-15.11,1.72-24.09,2.63l-.28-9.36S435.53,70.6,439.19,70.16Z" transform="translate(0.02 -0.12)"/><path class="cls-1" d="M460,104.06c2.83-4.94,12.34-24.59,13.32-33.24l9.53,2.33S478,88.48,469.16,100.32A38.53,38.53,0,0,0,491,97.69l-5-5.17,5.26-4.7c3.38,2.46,9.17,8.12,11.74,12.58C498,105.34,477.48,112.78,460,104.06Z" transform="translate(0.02 -0.12)"/><path class="cls-2" d="M142.7,106.14c11.81-7.07,23.68-16.22,27.52-24.11l10.42,7.63A51.66,51.66,0,0,1,169.78,102l3,25.21-9.14.59-.92-23.4C156.39,106.38,150.09,107.4,142.7,106.14Z" transform="translate(0.02 -0.12)"/><path class="cls-2" d="M209.07,97.06s-8.79-4.32-10.4-5.29l4.2-7.58s5.62,1.85,10,3.91Zm-7.92,16.33c16.87-2.43,25.65-9.64,34.47-19.2-1.32,14.63-11.39,25.74-29.36,29.73Z" transform="translate(0.02 -0.12)"/><path class="cls-2" d="M270.46,87.3c-17.32,2.54-17.32,2.54-20.79,2.76,0,0-.4-6.07-1-8.78,0,0,31.13-2.63,32.91-3.08,0,0-.25,12.62-7.1,22.71,0,0,10.52,10.24,16.64,9.51L285.72,120a144.64,144.64,0,0,1-15.55-12.4c-2,3.82-11.16,9.71-21.55,11.73C261.88,107.77,269.25,95.49,270.46,87.3Z" transform="translate(0.02 -0.12)"/><path class="cls-2" d="M301,96c3.91-8.83,4.62-19.6,2.56-24.49L314.13,71c0,5.16.08,7.37-1.11,10.8,0,0,14.45-.47,23.41-1.79,1.14,10.38-1,35.11-29.61,40.39,7.24-5.09,11.75-11,13.77-15a86.67,86.67,0,0,0-10.16-1.62l2.29-8c4.08.8,9.48,2.46,10.92,2.91.6-1,1.88-7,1.93-10.52,0,0-12.59,1.22-15.49,1A17,17,0,0,1,301,96Z" transform="translate(0.02 -0.12)"/><path class="cls-2" d="M375.83,85.34s-8.82-.56-12.94-1c-.56,4.72-3.4,9.53-9.85,12.43a51.32,51.32,0,0,0,.37-25.22l10.08-.66a53.73,53.73,0,0,1-.1,6.65c8.88.56,16.65.52,22.81.32,1.51,15.12-4.78,33.82-27,39.29A40.36,40.36,0,0,0,375.83,85.34Zm12.48-12.07a19.31,19.31,0,0,0-2.87,1.26l-1.6-5.12L388,68.33Zm2.75,0-1.14-5.16L394,67l-.08,5A18.93,18.93,0,0,0,391.06,73.23Z" transform="translate(0.02 -0.12)"/><path class="cls-2" d="M431.21,89.85s-24.23,2.51-26.88,3l-1-8.92s24.22-1.71,37.85-2.32c.82,15.76-5.51,26.49-20.43,31.15C428.74,103.42,431.28,95.07,431.21,89.85Zm3.38-24.28.53,8.14c-9.45,1-15.1,1.72-24.09,2.64L410.76,67S430.94,66,434.59,65.57Z" transform="translate(0.02 -0.12)"/><path class="cls-2" d="M455.42,99.47c2.83-5,12.34-24.6,13.32-33.24l9.54,2.33s-4.84,15.33-13.72,27.16c8.69,1.58,17.47-.46,21.88-2.63l-5-5.17,5.25-4.69c3.38,2.46,9.18,8.11,11.75,12.57C493.44,100.75,472.88,108.18,455.42,99.47Z" transform="translate(0.02 -0.12)"/><polygon class="cls-3" points="317.96 45.66 48.51 69.62 43.44 13.36 316.27 2.51 317.96 45.66"/><text class="cls-4" transform="translate(57.13 50.53) rotate(-4.1)">あ<tspan class="cls-5" x="23.17" y="0">な</tspan><tspan class="cls-6" x="46.48" y="0">た</tspan><tspan class="cls-7" x="69.84" y="0">の</tspan><tspan class="cls-8" x="93.85" y="0">好</tspan><tspan class="cls-9" x="116.58" y="0">き</tspan><tspan class="cls-10" x="137.27" y="0">を</tspan><tspan class="cls-11" x="162.05" y="0">教</tspan><tspan class="cls-12" x="186.49" y="0">え</tspan><tspan class="cls-13" x="207.86" y="0">て</tspan><tspan class="cls-14" x="227.92" y="0">！</tspan></text><line class="cls-15" x1="626.27" y1="85.16" x2="685.4" y2="20.12"/><line class="cls-15" x1="76.08" y1="284.01" x2="91.24" y2="249.52"/><line class="cls-15" x1="1" y1="207.83" x2="46.8" y2="209.97"/><line class="cls-15" x1="709.98" y1="114.85" x2="746.88" y2="107.21"/><polygon class="cls-16" points="572.57 0 553.05 92.83 595.05 30.13 572.57 0"/><polygon class="cls-3" points="47.73 251.81 6.66 294.6 1.54 262.08 47.73 251.81"/><polygon class="cls-3" points="689.64 96.07 747.04 81.08 721.15 60.76 689.64 96.07"/><polygon class="cls-2" points="25.6 156.41 33.65 140.96 45.36 161.67 25.6 156.41"/></g></svg>