<svg id="レイヤー_1" data-name="レイヤー 1" xmlns="http://www.w3.org/2000/svg" viewBox="0 0 160 80"><defs><style>.cls-1{fill:#ff6b36;}.cls-2{fill:#fff;}</style></defs><polygon class="cls-1" points="160 80 0 70 0 10 160 0 160 80"/><path class="cls-2" d="M58.87,46.41c.36,10-9.66,11.88-13.26,11.7-8.64-.36-12.9-5.52-13.2-10.38-.48-7.32,4.08-9.66,8.1-10.86-3.84-1.8-5.64-4.86-5.34-8.46.42-4.92,4.56-8.16,10.74-8.16,5.76,0,11.52,2.94,11.28,9.36-.18,3.54-1.86,6.12-6.12,7.26C56.05,38.55,58.75,42.27,58.87,46.41ZM51,46.77c-.18-3.42-2.76-4.62-5.34-4.68-1.68,0-5.58,1.14-5.28,5.22a5.09,5.09,0,0,0,5.1,4.26C48.73,51.57,51.19,49.53,51,46.77ZM42.37,29.25c0,2.34,2.28,3.42,4,3.3s3.66-1.44,3.36-3.6A3.2,3.2,0,0,0,46.51,26C43.87,25.83,42.37,27.27,42.37,29.25Z"/><path class="cls-2" d="M75.25,43.09a21.54,21.54,0,0,0-3.6-2l2.12-3.4s3.12,1.52,3.72,1.88c0,0,2.36-3.12,2.72-4.6l-5.76-.52a10.91,10.91,0,0,1-6.8,3.36s4.8-5.88,5.88-10.8l4.44,1a15.39,15.39,0,0,1-1.24,3.32s8,.28,11,.24c-1.56,5.68-5.92,11.08-9,12.88,0,0,7.2-.16,11,.16,0,0,.24,10.48-.08,11.88-8,.08-7.92.24-12.64,0,0,0,0-7.88,0-9.72a18,18,0,0,1-9.88,3.44S74.17,45.45,75.25,43.09Zm6.08,9.36a36,36,0,0,0,4.16-.12,14.61,14.61,0,0,0,0-3.8l-4,.12A19.38,19.38,0,0,0,81.33,52.45Z"/><path class="cls-2" d="M103.41,45.57l.52,10.32-3.2.08s.08-7.08.12-10a8.3,8.3,0,0,1-7,3.48c2.52-2.32,6.44-6.48,6.8-9.88v-.88l-3.56.8-.12-4.24,4.44.24-.68-4.44,3.92-.24-.12,4.56,3.56.32-.12,3.68s-2.32-.08-3.36-.24l-.08,2.56c-.08,1.16,1.6,2.8,3.56,3C107.29,45.73,105.33,47.49,103.41,45.57Zm4,6.84a15.2,15.2,0,0,0,5.92-1.4,12.06,12.06,0,0,1-3.08,5.24Zm5.84-5.56-1.16,2.8a23.67,23.67,0,0,0-2.8-1.64l1.4-2.36Zm6-2.16s.16,11.48,0,13.76c0,0-2.52-2.92-4.64-4.88a11.88,11.88,0,0,0,2.08.32s0-8.12,0-9.44a33.2,33.2,0,0,1-6,.4l-.2-3.36h5.76v-1.4s-2.68,0-4.48.12l.12-3.4s4,.12,4.48,0l.08-1.64s-3.56-.36-5.36-.36l-.24-2.72s12.36-.48,13.47-.56L124,34.85s-4.19.12-4.75.12l.08,1.16,4.43,0L124,39s-4.23.32-4.51.32l-.12,1.72s4-.2,6-.32l-.08,3.68S120.53,44.69,119.17,44.69Zm-3.24-14.88-3,1.24s-.88-2.16-1.36-3l3.24-1.36Zm7-3.44,2.59,3.2a22,22,0,0,1-5.71,1S122.85,27.33,122.93,26.37Zm0,24.16s2.52,2.2,4.2,2.12l-2.55,3.56c-.29-.32-2.73-2.12-3.52-3.76Zm2.52-5.08,1.36,4.12s-3.72.4-5.59-1.2C121.25,48.37,124.64,46.89,125.48,45.45Z"/></svg>