<svg id="レイヤー_1" data-name="レイヤー 1" xmlns="http://www.w3.org/2000/svg" viewBox="0 0 328 328"><defs><style>.cls-1{fill:#002d97;}.cls-2{fill:#fff;}</style></defs><circle class="cls-1" cx="164" cy="164" r="164"/><path class="cls-2" d="M73.56,116.06c0,.59-.33.84-.7.84a.83.83,0,0,1-.78-.81c0-2.41-.06-5.32-.06-8.34,0-4.18,0-8.49.09-11.82a3.07,3.07,0,0,1,3.16-3.33c.48,0,.92,0,1.37,0,1,0,1.85,0,2.86.06a.7.7,0,0,1,.76.72.71.71,0,0,1-.73.73h-.12c-.16,0-1-.08-3.86-.08a1.9,1.9,0,0,0-2,2.07c-.08,1.85-.11,4.37-.11,7.11,0,4.37.08,9.27.11,12.85Z"/><path class="cls-2" d="M86,117.69a1.43,1.43,0,0,1-1.4-1.43,1.33,1.33,0,0,1,.81-1.21,13.68,13.68,0,0,0,6.92-7.28,30.17,30.17,0,0,0-3.5-1.76A1.13,1.13,0,0,1,88,105a1.25,1.25,0,0,1,1.23-1.26,16.43,16.43,0,0,1,3.84,1.65,24.23,24.23,0,0,0,.64-3.59l-6,.17a1.18,1.18,0,0,1-1.24-1.23,1.26,1.26,0,0,1,1.26-1.34c2,0,4.15-.09,6.25-.12.08-1.51.11-3,.11-4.59A1.35,1.35,0,0,1,95.5,93.3a1.31,1.31,0,0,1,1.4,1.29c0,1.54,0,3.08-.14,4.62h3.11c1.84.05,3.08,1.06,3.08,2.68,0,.12,0,.26,0,.37a94.93,94.93,0,0,0-1,10.08c0,1.65.25,2.24,1.79,2.24,1.12,0,2.94-.14,3-3.61a1.27,1.27,0,0,1,1.32-1.35,1.49,1.49,0,0,1,1.56,1.43c0,4-2,6-5.79,6s-4.68-1.37-4.68-4.29c0-2.54.53-7.08.87-9.8,0-.08,0-.16,0-.22A1,1,0,0,0,99,101.67H96.53a30.11,30.11,0,0,1-1,5.1c2.52,1.62,3.08,2.35,3.08,3.08a1.5,1.5,0,0,1-1.4,1.51,1.3,1.3,0,0,1-1-.48,12.5,12.5,0,0,0-1.63-1.51C91.89,115.39,86.76,117.69,86,117.69Z"/><path class="cls-2" d="M130,112.67a1.59,1.59,0,0,1-1.52,1.63,1.52,1.52,0,0,1-1.12-.56,13.62,13.62,0,0,0-5.32-3.5,1.18,1.18,0,0,1-.81-1.09,1.47,1.47,0,0,1,1.51-1.4c.26,0,.76,0,2.86,1.09,2-2.21,4-5,4-5.43a.45.45,0,0,0-.51-.48c-1.14,0-2.82,0-4.7,0a32.73,32.73,0,0,1-5.74,7,1.91,1.91,0,0,1-1.29.53,1.45,1.45,0,0,1-1.45-1.4,1.51,1.51,0,0,1,.61-1.18,26.5,26.5,0,0,0,7.34-10.19,1.52,1.52,0,0,1,1.43-1,1.54,1.54,0,0,1,1.59,1.43c0,.22,0,.53-1.06,2.35,1.51,0,3.5-.08,4.95-.08s2.33.84,2.33,2a2.77,2.77,0,0,1-.45,1.45,43.5,43.5,0,0,1-4.73,6.3C129.92,111.55,130,112.14,130,112.67Z"/><path class="cls-2" d="M151.71,99.6l-10.5.05a1.3,1.3,0,1,1,0-2.6l9.1.06,0-2.69a1.5,1.5,0,0,1,3,0l0,2.69,9.07-.06a1.3,1.3,0,1,1,0,2.6Zm-1.35,5.12c-1.59,0-3.08,0-3.94,0s-1.1.36-1.12,1.23c0,1,0,2.55,0,4.12s0,3.22,0,4.56v0a1.25,1.25,0,0,1-1.38,1.18,1.3,1.3,0,0,1-1.42-1.21V113c0-2.49,0-5.37.05-7.5s1.21-3,3.31-3.08c1.06,0,2.71-.06,4.5-.06v-1a1.39,1.39,0,0,1,2.78,0v1c1.84,0,3.61,0,4.81.06,1.88,0,3.19,1,3.22,3,0,.89,0,1.87,0,2.68v1.8c0,.47,0,1.06.06,2.1V112c0,1.93-1.49,3.47-4.09,3.47-1.43,0-2.94-.22-2.94-1.54a1.24,1.24,0,0,1,1.15-1.34,1,1,0,0,1,.28,0,6.1,6.1,0,0,0,1.42.22c.76,0,1.38-.28,1.38-1.18,0,0,0-4.06-.06-5.88a1,1,0,0,0-1-1.06c-1,0-2.52-.06-4.2-.06v12a1.41,1.41,0,0,1-2.82,0Z"/><path class="cls-2" d="M180.92,101.61c-.45,3.56-3,8.85-5.65,11.34-2.16,2-4.51.9-5.75-1.51-1.76-3.47.12-8.68,3.87-11.28,3.44-2.38,8.57-2.77,12.09-.65,4.34,2.61,5,7.76,2.61,11.76a11.67,11.67,0,0,1-6.83,4.62c-2.47.65-3.33-2.18-.93-2.74a8.67,8.67,0,0,0,5.21-3.14c2-3.13,1.23-6.8-1.54-8.56a7.22,7.22,0,0,0-3.47-1.12A1.36,1.36,0,0,1,180.92,101.61Zm-6.22.54c-2.6,2-4,5.74-2.82,7.89.42.81,1.14,1.23,1.85.62,2.09-1.85,4.05-6.3,4.33-9.33a2,2,0,0,1,.26-.86A9.22,9.22,0,0,0,174.7,102.15Z"/><path class="cls-2" d="M105.26,139a2.29,2.29,0,0,1,2.49,2.58,23.2,23.2,0,0,1-1.68,8c2.69,1.42,2.86,2.29,2.86,2.77a1.5,1.5,0,0,1-1.29,1.57,1.25,1.25,0,0,1-.9-.42,14.59,14.59,0,0,0-1.82-1.6c-2.38,4.14-5.43,5.66-6.33,5.66a1.34,1.34,0,0,1-1.34-1.32,1.14,1.14,0,0,1,.73-1.09,10.83,10.83,0,0,0,4.87-4.4,9.94,9.94,0,0,0-2-.53,1.56,1.56,0,0,1-1.48,1.18,1.12,1.12,0,0,1-1.15-1.15,2,2,0,0,1,.11-.65,53.53,53.53,0,0,0,2-8.23c-.59,0-1.15,0-1.66.06h0a1.11,1.11,0,0,1-1.15-1.18A1.2,1.2,0,0,1,98.68,139c.64,0,1.37,0,2.1,0,.19-1.54.33-3,.45-4.5a1.18,1.18,0,0,1,1.26-1.15,1.31,1.31,0,0,1,1.4,1.26c0,.81-.42,3.72-.54,4.39Zm-2.3,2.36c-.39,2.21-.89,4.5-1.48,6.75a13,13,0,0,1,2.41.55,20.52,20.52,0,0,0,1.31-6.8c0-.42-.36-.5-.64-.5Zm14.79,5.54c0,.34,0,.67,0,1a27.41,27.41,0,0,1-.42,4.51,5.79,5.79,0,0,1-5.88,5.12c-1.76,0-3.13-.37-3.13-1.77a1.23,1.23,0,0,1,1.2-1.31,1.3,1.3,0,0,1,.42.05,5.18,5.18,0,0,0,1.54.26,3.19,3.19,0,0,0,3.25-2.89,18.34,18.34,0,0,0,.42-3.8c0-.4,0-.82-.06-1.21h-6.3a1.18,1.18,0,0,1-1.26-1.2,1.19,1.19,0,0,1,1.26-1.21h5.83a5.51,5.51,0,0,0-2.16-3,1,1,0,0,1-.53-.81,1.39,1.39,0,0,1,1.43-1.24,1.78,1.78,0,0,1,1.12.42,12.55,12.55,0,0,0,2.1-2.38c0-.19-.31-.25-1.6-.25s-3.36.06-5.23.14h-.09a1.15,1.15,0,0,1-1.2-1.17,1.23,1.23,0,0,1,1.26-1.26c1.15-.06,2.38-.06,3.53-.06,1.59,0,3.08,0,4.25.06,1.51,0,2.3.81,2.3,1.82a3,3,0,0,1-.7,1.76,30.63,30.63,0,0,1-2.94,3,8.94,8.94,0,0,1,1.23,3h3.81a1.22,1.22,0,0,1,1.29,1.23,1.18,1.18,0,0,1-1.29,1.18Z"/><path class="cls-2" d="M141.65,146.32c1,1.29,2.13,3.53,1.82,5.12s-1.63,1.71-2.89,1c-1.48-.87-5.46-1.43-7.42-.47-1.45.7-.86,2.18.42,2.71a7.73,7.73,0,0,0,4.54.42c2.49-.47,2.66,2.63.14,2.86a11.5,11.5,0,0,1-5.54-.95c-3.31-1.4-4.09-5.32-1-6.92,2.08-1.06,5.52-.84,7.37-.62,1.51.2,2-.22.33-2.4-.19-.28-.42-.53-.61-.84a20.22,20.22,0,0,1-6.44.75c-1.93-.14-2.19-3,.19-2.69a13.61,13.61,0,0,0,4.82-.39c-.42-.73-.87-1.54-1.32-2.4a22.67,22.67,0,0,1-4.45.44c-1.82,0-2.38-2.71-.14-2.55a15.65,15.65,0,0,0,3.47-.16,14.39,14.39,0,0,0-2-3.39c-1.57-1.76,1.4-2.83,2.41-1.46a24.6,24.6,0,0,1,2,4.23,10,10,0,0,0,1.77-.76c1.84-1,2.91,1.49,1.42,2.19a17.26,17.26,0,0,1-2.24.87,24.79,24.79,0,0,0,1.21,2.35,15.06,15.06,0,0,0,2.1-.9c2-1.12,3.16,1.46,1.59,2.24a16.94,16.94,0,0,1-2.21.93C141.23,145.79,141.45,146,141.65,146.32Z"/><path class="cls-2" d="M154.27,140.75a1.28,1.28,0,1,1,.81-2.41,7.41,7.41,0,0,0,3.84-.09,17.82,17.82,0,0,0,.56-2.82,1.34,1.34,0,0,1,2.66.25,10.3,10.3,0,0,1-.39,1.71,9,9,0,0,0,.89-.48c1.26-.89,3,.84,1.23,2.13a10.86,10.86,0,0,1-3,1.29,71.5,71.5,0,0,1-5,9.43c-1,1.68-3.73.59-2.5-1.23a55,55,0,0,0,4.6-7.64A7.65,7.65,0,0,1,154.27,140.75Zm4.82,15.76c-2.61-1.32-2.92-4.34,0-5.63a9.15,9.15,0,0,1,5.37-.53v-1c0-.7-.05-1.4-.08-2.1a8.29,8.29,0,0,1,.14-1.87,1.29,1.29,0,0,1,2.52.5,5.8,5.8,0,0,0-.17,1.31c0,.65,0,1.35,0,2.16,0,.53.08,1.12.11,1.74a10,10,0,0,1,3.42,2.24c1.59,1.76-.67,3.75-2,2.13a8.07,8.07,0,0,0-1.59-1.46C166,156.26,162.47,158.22,159.09,156.51Zm.89-3.67a.86.86,0,0,0,0,1.63c1.68.84,4,0,4.26-1.49,0-.08,0-.19,0-.28A5.65,5.65,0,0,0,160,152.84Zm6.25-10.33c-1.54.09-1.66-2.24.14-2.41a9,9,0,0,1,5.15,1c1.9,1.15.45,3.48-.93,2.61A7.2,7.2,0,0,0,166.23,142.51Z"/><path class="cls-2" d="M192.76,146.4c-.28.45-.59.9-.9,1.35,1.63,0,3.64,0,5.43,0h2.05c1.65,0,2.55,1,2.55,2.8a16.66,16.66,0,0,1-.76,4.53A4.13,4.13,0,0,1,197,157.8c-1.79,0-2.54-.39-2.54-1.4a1,1,0,0,1,0-.25,6.84,6.84,0,0,1-3.27,2,1.22,1.22,0,0,1-1.26-1.18,1.07,1.07,0,0,1,.67-1,11,11,0,0,0,5.57-6.27h-1.62c-2.35,4.34-6.53,7.25-7.87,7.25a1.22,1.22,0,0,1-1.23-1.23,1,1,0,0,1,.64-.95,12.31,12.31,0,0,0,5.88-5.07c-.59,0-1.17,0-1.71,0-1.51,1.65-4.31,3.78-5.26,3.78a1.26,1.26,0,0,1-1.26-1.21,1,1,0,0,1,.62-.89,14,14,0,0,0,5.68-5h-2.58a1.11,1.11,0,0,1,.14.54,1.35,1.35,0,0,1-.78,1.17c-2.07,1.09-6.52,3.11-7.53,3.11a1.19,1.19,0,0,1-1.21-1.23,1.22,1.22,0,0,1,.93-1.21c.9-.25,1.82-.56,2.71-.87l0-6.07h-2.08a1.07,1.07,0,0,1-1.14-1.12,1.17,1.17,0,0,1,1.14-1.23h2.08v-4.65a1.3,1.3,0,0,1,2.6,0v4.65h1.9a1.18,1.18,0,0,1,0,2.35H184.3v5c.62-.28,1.18-.53,1.71-.81a1.88,1.88,0,0,1,.36-.14,1,1,0,0,1-.16-.56,1.12,1.12,0,0,1,1.17-1.12H202a1.08,1.08,0,1,1,0,2.15Zm4.39-3.33c-.92.06-2,.08-3,.08-4.54,0-5.66-.16-5.66-3.36,0-1.09.06-2.38.11-3.38a2.62,2.62,0,0,1,2.75-2.47c.95,0,1.93-.05,2.88-.05s1.93,0,2.83.05a2.77,2.77,0,0,1,2.69,2.27c.08.9.11,2,.11,3,0,.51,0,1,0,1.46C199.79,142.15,198.75,143,197.15,143.07Zm.2-3.61h-6.47c0,1.65,0,1.71,3.17,1.71s3.27-.09,3.3-1Zm-.06-2.44c0-1.06-.22-1.09-3.08-1.09s-3.19,0-3.24,1.12l0,.45h6.38Zm-1.82,18.12c.06,0,.12,0,.2,0a1.18,1.18,0,0,1,.28.06,5.34,5.34,0,0,0,1,.14c1.09,0,2.12-.42,2.46-4.57v-.14a.8.8,0,0,0-.76-.92A16.87,16.87,0,0,1,195.47,155.14Z"/><path class="cls-2" d="M209.53,156.62a1.5,1.5,0,0,1-1.26.7,1.3,1.3,0,0,1-1.34-1.2,1.34,1.34,0,0,1,.28-.79c2.15-3,2.52-6.21,2.52-9.49,0-1.43-.06-2.88-.09-4.34v-.05c0-1.26.73-2.38,2.63-2.44.65,0,1.29,0,1.94,0,3.86,0,4.67,0,4.67,4.17,0,3.84-.56,4.32-5.15,4.32-.53,0-1,0-1.54,0A17.24,17.24,0,0,1,209.53,156.62Zm.31-19.57a1.22,1.22,0,1,1,0-2.44h8.65a1.19,1.19,0,0,1,1.23,1.24,1.18,1.18,0,0,1-1.23,1.2Zm3.72,8.23c1.88,0,2.69-.05,2.77-.89,0-.42.06-1,.06-1.54,0-1.6-.08-1.77-2-1.77-1.46,0-2.21,0-2.21,1s0,2.1,0,3.16C212.69,145.25,213.14,145.28,213.56,145.28Zm11.93-1.43h-2.72c-.11,4.79-1,10-5.09,13a1.65,1.65,0,0,1-1,.36,1.41,1.41,0,0,1-1.4-1.37,1.21,1.21,0,0,1,.56-1c3.81-2.61,4.42-7.17,4.42-11.62,0-1.26,0-2.52-.08-3.72v-.34c0-1.91.7-3,2.52-3.22a24.12,24.12,0,0,0,6.3-1.74,1.51,1.51,0,0,1,.59-.11,1.4,1.4,0,0,1,1.34,1.43,1.29,1.29,0,0,1-.95,1.26,41.12,41.12,0,0,1-6.22,1.45c-.84.15-1,.54-1,1.27v.16c0,.59.05,1.21.05,1.85l8.49-.05a1.2,1.2,0,1,1,0,2.4h-3.17l0,12.63a1.36,1.36,0,0,1-2.69,0Z"/><path class="cls-2" d="M242.06,134.75c0-.58.33-.84.7-.84a.83.83,0,0,1,.81.82c0,2.4.06,5.32.06,8.34,0,4.17,0,8.48-.09,11.82a3.1,3.1,0,0,1-3.19,3.33c-.67,0-1.26,0-1.85,0-.78,0-1.54,0-2.38,0a.71.71,0,0,1-.75-.73.76.76,0,0,1,.75-.76h.11a38.33,38.33,0,0,0,3.87.09,1.91,1.91,0,0,0,2-2.07c0-1.68.08-3.92.08-6.36,0-4.56-.08-9.83-.11-13.61Z"/><path class="cls-2" d="M79.81,177.11A9.66,9.66,0,0,0,81,176.6c1.54-.92,3,1.4,1,2.44a15.29,15.29,0,0,1-3.08.92,27.72,27.72,0,0,1-1.34,2.83,4.09,4.09,0,0,1,4.7,2.44c1.15-.59,2.33-1.18,3.42-1.65a23.44,23.44,0,0,0,2.18-1,1.49,1.49,0,1,1,1.57,2.52,31.89,31.89,0,0,1-3,1.15c-1.18.45-2.44,1-3.56,1.54a24,24,0,0,1,.06,3.08,1.65,1.65,0,0,1-1.49,1.73c-.7,0-1.34-.5-1.26-1.59,0-.59.06-1.23.06-1.82-.25.14-.51.28-.73.42-3.47,2.24-3,3.92-1.48,4.7s4.22.2,5.54-.22c2.46-.76,3.25,2.27.67,2.94-1.65.42-5.46.84-7.64-.4-3.78-2.12-3.11-5.9,2-9.23.39-.26.84-.57,1.37-.87-.75-2.36-2.91-2.07-4.73,0a.57.57,0,0,0-.11.11,6.52,6.52,0,0,1-.65.73c-1.54,1.37-3.58-.23-1.9-1.74A14,14,0,0,0,74.77,183a25.54,25.54,0,0,0,1.31-2.49,5.74,5.74,0,0,1-3.47-.31c-2-1-.64-3.64,1.32-2.33a4.23,4.23,0,0,0,2.63.06c.11,0,.28,0,.42-.06a11.63,11.63,0,0,0,.31-2.35c.11-1.68,2.74-1.51,2.8-.14a5.63,5.63,0,0,1-.23,1.63Z"/><path class="cls-2" d="M101.12,196.54c-2.74,1-3.19-2-1.23-2.58a9.26,9.26,0,0,0,7.14-8.82c-3.11,0-6.19.14-8.15.2a1.29,1.29,0,0,1-1.46-1.26,1.43,1.43,0,0,1,1.6-1.37c4-.06,12.8-.11,17.36-.14a1.23,1.23,0,0,1,1.37,1.34,1.37,1.37,0,0,1-1.54,1.26c-1.54,0-3.83-.08-6.3,0A12.48,12.48,0,0,1,101.12,196.54Zm12.07-17c-3.87,0-8.07.16-11.06.16a1.32,1.32,0,1,1,0-2.6c3.52,0,7.25-.08,10.92-.17a1.31,1.31,0,1,1,.11,2.61Z"/><path class="cls-2" d="M126.45,186.79a1.34,1.34,0,0,1-1.48-1.34,1.43,1.43,0,0,1,1.48-1.43H144a1.39,1.39,0,1,1,0,2.77Z"/><path class="cls-2" d="M165.39,191.86a1.64,1.64,0,0,1-.53,2.24,1.38,1.38,0,0,1-2-.47,20.59,20.59,0,0,0-6.61-5.55c-1.54-.72-.2-3.13,1.76-2.12a28.29,28.29,0,0,1,3.48,2.07,41.63,41.63,0,0,0,5.76-4.48c.37-.37.59-1-.25-1-3.5,0-10.33.08-14.67.25a1.43,1.43,0,1,1,0-2.83c4.4-.08,11.29-.23,15.93-.14,2.52,0,4.34,2.16,2.64,4.09a37.9,37.9,0,0,1-7.09,5.88A8.59,8.59,0,0,1,165.39,191.86Z"/><path class="cls-2" d="M180,195.5c-2.24-5.51,0-13.8.47-17.13.31-2.08,3-1.46,2.72.17-.45,2.26-2.13,8.84-1.46,11.45.08.36.2.28.31,0s.36-.7.47-.9a1.12,1.12,0,0,1,2,1.09,14.38,14.38,0,0,0-1.65,3.92c-.16.76.17,1.62-.53,2.24S180.56,196.88,180,195.5Zm7.5-2a1.39,1.39,0,0,1,2-1.94c1.51,1.38,4.87.93,7.05.48s2.41,2.49.56,3C194.12,195.78,189.52,195.7,187.51,193.52Zm1.59-11.18a1.32,1.32,0,1,1-.39-2.6,17,17,0,0,1,7.37-.17,1.37,1.37,0,1,1-.48,2.69A14.17,14.17,0,0,0,189.1,182.34Z"/><path class="cls-2" d="M68.52,237.69a1.43,1.43,0,0,1-1.4-1.43,1.32,1.32,0,0,1,.82-1.21,13.72,13.72,0,0,0,6.91-7.27,29.52,29.52,0,0,0-3.5-1.77A1.12,1.12,0,0,1,70.6,225a1.24,1.24,0,0,1,1.23-1.26,16.18,16.18,0,0,1,3.83,1.65,24.23,24.23,0,0,0,.65-3.59l-6,.17A1.17,1.17,0,0,1,69,220.69a1.27,1.27,0,0,1,1.26-1.34c2,0,4.14-.09,6.24-.11.08-1.52.11-3.06.11-4.6a1.35,1.35,0,0,1,1.43-1.34,1.31,1.31,0,0,1,1.4,1.29c0,1.54,0,3.08-.14,4.62h3.11c1.85,0,3.08,1.06,3.08,2.69,0,.11,0,.25,0,.36a98.55,98.55,0,0,0-.95,10.08c0,1.65.25,2.24,1.79,2.24,1.12,0,2.94-.14,3-3.61a1.28,1.28,0,0,1,1.32-1.35,1.51,1.51,0,0,1,1.57,1.43c0,4-2,6-5.8,6s-4.68-1.37-4.68-4.28c0-2.55.54-7.09.87-9.8,0-.09,0-.17,0-.23a1,1,0,0,0-1.15-1.12H79.11a29.92,29.92,0,0,1-1,5.1c2.52,1.62,3.08,2.35,3.08,3.08a1.5,1.5,0,0,1-1.4,1.51,1.3,1.3,0,0,1-1-.48,13.07,13.07,0,0,0-1.62-1.51C74.46,235.39,69.33,237.69,68.52,237.69Z"/><path class="cls-2" d="M112.58,232.67a1.59,1.59,0,0,1-1.51,1.63,1.49,1.49,0,0,1-1.12-.56,13.77,13.77,0,0,0-5.32-3.5,1.18,1.18,0,0,1-.82-1.09,1.47,1.47,0,0,1,1.52-1.4c.25,0,.75,0,2.85,1.09,2-2.21,3.95-5,3.95-5.43a.45.45,0,0,0-.5-.48c-1.15,0-2.83,0-4.71,0a32.73,32.73,0,0,1-5.74,7,1.91,1.91,0,0,1-1.29.53,1.45,1.45,0,0,1-1.45-1.4,1.51,1.51,0,0,1,.61-1.18,26.5,26.5,0,0,0,7.34-10.19,1.52,1.52,0,0,1,1.43-1,1.54,1.54,0,0,1,1.59,1.43c0,.23,0,.53-1.06,2.35,1.51,0,3.5-.08,5-.08s2.32.84,2.32,2a2.83,2.83,0,0,1-.45,1.46,44.05,44.05,0,0,1-4.73,6.3C112.49,231.55,112.58,232.14,112.58,232.67Z"/><path class="cls-2" d="M134.28,219.6l-10.5.06a1.31,1.31,0,1,1,0-2.61l9.1.06,0-2.69a1.38,1.38,0,0,1,1.49-1.32,1.36,1.36,0,0,1,1.48,1.32l0,2.69,9.07-.06a1.31,1.31,0,1,1,0,2.61Zm-1.34,5.12c-1.6,0-3.08,0-3.95,0s-1.09.37-1.12,1.23c0,1,0,2.55,0,4.12s0,3.22,0,4.56v0a1.23,1.23,0,0,1-1.37,1.18,1.3,1.3,0,0,1-1.43-1.21V233c0-2.49,0-5.37.06-7.5s1.2-3,3.3-3.08c1.06,0,2.72-.06,4.51-.06v-1a1.39,1.39,0,0,1,2.77,0v1c1.85,0,3.61,0,4.81.06,1.88.06,3.2,1,3.22,3,0,.89,0,1.87,0,2.69v1.79c0,.47,0,1.06.06,2.1V232c0,1.93-1.48,3.47-4.09,3.47-1.43,0-2.94-.22-2.94-1.54a1.24,1.24,0,0,1,1.15-1.34,1,1,0,0,1,.28,0,6.18,6.18,0,0,0,1.43.22c.75,0,1.37-.28,1.37-1.17,0,0,0-4.07-.06-5.88a1,1,0,0,0-1-1.07c-1,0-2.52-.05-4.2-.05v12a1.42,1.42,0,0,1-2.83,0Z"/><path class="cls-2" d="M159.41,223.21a10.41,10.41,0,0,1,.9-1.46c.45-.58.31-.55-.22-.39-2.1.68-1.63.68-3.53,1.4a24.79,24.79,0,0,1-2.52.84c-2.47.68-3.22-2.54-1-3,.59-.14,2.21-.45,3.11-.67,1.37-.34,3.83-.9,6.69-1.71a37,37,0,0,1,7.61-1.65,1.65,1.65,0,0,1,1.91,2.15c-.17.48-.79,1-2.75.93a11.88,11.88,0,0,0-4.14.78,8.08,8.08,0,0,0-3.61,3.28c-2.47,4.11-.59,10,5.68,9.77,2.94-.11,3.14,3.19.17,3.16C159.27,236.59,156.36,228.84,159.41,223.21Zm8.63,1.85c-1.49-.64-.37-2.38,1-1.88A9.27,9.27,0,0,1,172,225c1.14,1.23-.59,3-1.57,1.87A10.8,10.8,0,0,0,168,225.06Zm2.83-2.44c-1.52-.58-.42-2.38.95-1.93a9.43,9.43,0,0,1,3,1.68c1.17,1.18-.48,3-1.49,1.91A10,10,0,0,0,170.87,222.62Z"/><path class="cls-2" d="M85.24,271.47c-1.32,5.69-5.41,6.36-7.53,6.36a14.68,14.68,0,0,1-4.15-.67,1.31,1.31,0,0,1-1-1.29A1.39,1.39,0,0,1,74,274.44a2,2,0,0,1,.76.14,9.39,9.39,0,0,0,3.25.67c2,0,3.61-1,4.48-3.78l-13.86,0a1.21,1.21,0,0,1-1.26-1.26,1.18,1.18,0,0,1,1.23-1.2l14.31,0c.08-.78.11-1.43.11-1.82v-.05c0-.67-.53-.93-1.09-.93-1,0-2.13,0-3.2,0s-2.12,0-3.19,0l-.17.51a1.54,1.54,0,0,1-1.54,1c-.7,0-1.34-.37-1.34-1.07a2,2,0,0,1,.14-.59,34.1,34.1,0,0,0,2.18-7.58,1.22,1.22,0,0,1,1.29-1,1.28,1.28,0,0,1,1.4,1.23.69.69,0,0,1,0,.25l-.08.4h7.48a1.19,1.19,0,0,1,1.26,1.2,1.14,1.14,0,0,1-1.26,1.15h-8c-.2.75-.36,1.51-.59,2.27,1.09,0,2.21,0,3.33,0s2.27,0,3.39,0a2.56,2.56,0,0,1,2.8,2.66c0,.11,0,1.34-.14,2.4l4.62,0a1.2,1.2,0,0,1,1.2,1.25,1.13,1.13,0,0,1-1.17,1.18ZM71.15,260.19a1.41,1.41,0,0,1-2.8-.06c0-.36,0-.81,0-1.26s0-.92,0-1.37c.06-1.6,1.26-2.75,3.5-2.77,2.83,0,5.58-.06,8.32-.06,2.24,0,4.51,0,6.86.06,1.93,0,3.36,1,3.42,2.74,0,.42,0,1,0,1.57,0,1.09,0,2.29-1.49,2.29a1.24,1.24,0,0,1-1.34-1.2v-.05c0-2.75,0-3-1.77-3-2.21,0-4.73-.05-7.19-.05-2,0-4,0-5.71.05-1.52,0-1.74.45-1.83,1.46v1.68Z"/><path class="cls-2" d="M119.94,273.24l-6.92-.12a16.58,16.58,0,0,0,5.85,2.08,1.17,1.17,0,0,1,1.12,1.2,1.47,1.47,0,0,1-1.48,1.46,18,18,0,0,1-7.28-3,1.08,1.08,0,0,1-.51-.92,1.24,1.24,0,0,1,.34-.85h-4.4a1.37,1.37,0,0,1,.45,1,1.12,1.12,0,0,1-.47.89c-2.38,1.68-6.19,3-7.37,3a1.33,1.33,0,0,1-1.37-1.35,1.23,1.23,0,0,1,1.18-1.23,13.56,13.56,0,0,0,5.88-2.33l-6.95.12h0a1.07,1.07,0,0,1-1.12-1.12A1.11,1.11,0,0,1,98,270.94h21.93a1.11,1.11,0,0,1,1.14,1.15,1.1,1.1,0,0,1-1.12,1.15Zm-9.5-15.57V259c1.12,0,2.22,0,3.25.06,1.71.06,2.86.81,2.91,1.93s.12,2.21.12,3.36,0,2.3-.12,3.3c-.08,1.21-1.17,2.05-3,2.11-1.57,0-3.16.05-4.7.05s-3,0-4.48-.05c-2.07-.06-3.05-.9-3.11-2.08-.06-1-.08-2-.08-3.05,0-1.17,0-2.32.08-3.36.06-1.23.84-2.15,3-2.21,1,0,2.13-.06,3.28-.06v-1.31l-8,0a1.14,1.14,0,1,1,0-2.27l8,0v-1.23a1.46,1.46,0,0,1,2.91,0l0,1.23,7.93,0a1.14,1.14,0,0,1,1.26,1.12,1.17,1.17,0,0,1-1.26,1.15Zm3.62,6H103.7v1.29h10.36Zm-.06-1.9c0-.53-.39-.87-1.29-.9-1.26,0-2.55-.05-3.81-.05s-2.54,0-3.86.05c-.84,0-1.23.45-1.26.9l0,.33H114Zm-10.25,4.79,0,.44c0,1,.67,1,4.82,1,4.81,0,5.32,0,5.4-1,0-.14,0-.3,0-.44Z"/><path class="cls-2" d="M135.75,257.11a9.87,9.87,0,0,0,1.18-.51c1.54-.92,3,1.4,1,2.44a15.49,15.49,0,0,1-3.08.92,27.84,27.84,0,0,1-1.35,2.83,4.1,4.1,0,0,1,4.71,2.44c1.15-.59,2.32-1.18,3.41-1.65.67-.29,1.43-.62,2.19-1a1.49,1.49,0,1,1,1.56,2.52,31.89,31.89,0,0,1-3,1.15c-1.18.45-2.43,1-3.56,1.54a20.87,20.87,0,0,1,.06,3.08,1.64,1.64,0,0,1-1.48,1.73c-.7,0-1.35-.5-1.26-1.59,0-.59,0-1.23,0-1.82-.25.14-.5.28-.72.42-3.48,2.24-3.06,3.92-1.49,4.7s4.23.2,5.55-.22c2.46-.76,3.24,2.27.67,2.94-1.65.42-5.46.84-7.65-.4-3.78-2.12-3.1-5.9,2-9.23.39-.26.84-.57,1.38-.87-.76-2.36-2.92-2.07-4.74,0l-.11.11a6.59,6.59,0,0,1-.64.73c-1.54,1.37-3.59-.23-1.91-1.74a14,14,0,0,0,2.27-2.63A23.59,23.59,0,0,0,132,260.5a5.73,5.73,0,0,1-3.47-.31c-2-1-.65-3.64,1.31-2.33a4.23,4.23,0,0,0,2.63.06c.11,0,.28,0,.42-.06a11,11,0,0,0,.31-2.35c.11-1.68,2.75-1.51,2.8-.14a5.3,5.3,0,0,1-.22,1.63Z"/><path class="cls-2" d="M164.66,274.58a30.42,30.42,0,0,1-5.49,1.37,1.09,1.09,0,0,1-1.15-1.12,1.16,1.16,0,0,1,1-1.15c.45-.08.87-.14,1.26-.22v-8.93h-.75a1.36,1.36,0,0,1-.37-.06,1.17,1.17,0,0,1,.31.81c0,.73-.59,1.1-2.38,1.93v3c0,.45.06,3,.08,4v.14a3.06,3.06,0,0,1-3.41,3.36c-1.23,0-2.55-.11-2.55-1.52a1.14,1.14,0,0,1,1.06-1.23.77.77,0,0,1,.26,0,4.29,4.29,0,0,0,1,.14c.58,0,1-.25,1-1.2,0-.73,0-2.89,0-5.55a15.28,15.28,0,0,1-2.3.73,1.25,1.25,0,0,1-1.28-1.26,1.21,1.21,0,0,1,.86-1.15c1-.33,1.88-.61,2.69-.89v-4.73h-2a1.2,1.2,0,1,1,0-2.39h2v-4.25a1.26,1.26,0,0,1,1.29-1.32,1.22,1.22,0,0,1,1.26,1.32v4.25h1.51a1.2,1.2,0,1,1,0,2.39h-1.51v3.69c.28-.14.56-.31.87-.47a1.07,1.07,0,0,1,.47-.15.73.73,0,0,1,.28.06,1.11,1.11,0,0,1-.25-.7,1,1,0,0,1,1.07-1h15.56a1,1,0,0,1,1.12,1,1,1,0,0,1-1.12,1h-8.23l.06,12.29a1.12,1.12,0,0,1-2.24,0Zm6.21-13.13c-1.23.05-2.52.08-3.75.08-5.23,0-6.3-.11-6.3-3.13,0-.79.06-1.66.09-2.41.05-1.09,1-2.16,2.74-2.19,1.2,0,2.58-.05,3.95-.05,1.12,0,2.21,0,3.22.05a2.73,2.73,0,0,1,2.69,2c.05.62.08,1.31.08,2,0,.51,0,1,0,1.46C173.48,260.63,172.47,261.36,170.87,261.45Zm-6.16,3.08h-2.32l0,1.48h2.29Zm0,3.3h-2.29v1.49h2.27Zm0,3.3h-2.27V273c.73-.17,1.43-.36,2.15-.59l.12,0ZM171,256.58c0-1-.14-1-4.17-1-3.14,0-3.56,0-3.61,1l0,.17h7.84Zm.06,1.9h-7.87v.39c0,.81.48.87,3.78.87,3.86,0,4-.06,4.06-.9Zm-3,9.27a.93.93,0,0,1-.92-1,.91.91,0,0,1,.89-1c.7,0,1.54,0,2.38,0s1.68,0,2.35,0a1.8,1.8,0,0,1,1.88,1.82,13.55,13.55,0,0,1-2,5.49,14.35,14.35,0,0,0,2.69,1.65,1.1,1.1,0,0,1,.67,1,1.29,1.29,0,0,1-1.23,1.29c-1.09,0-3.3-2.07-3.44-2.21-1,1.07-2.47,2.27-3.14,2.27a1.3,1.3,0,0,1-1.23-1.23.91.91,0,0,1,.5-.82,9.53,9.53,0,0,0,2.41-1.84,10.47,10.47,0,0,1-2-3.95,1,1,0,0,1,1-.95.93.93,0,0,1,.9.64,9.68,9.68,0,0,0,1.4,2.55,9.1,9.1,0,0,0,1.12-3.42.35.35,0,0,0-.39-.39c-.95,0-2.52,0-3.78.06Z"/><path class="cls-2" d="M194.61,273.07c2-1.82,2-4.48.37-5.55s-4.48-1.17-7.31.48a6.1,6.1,0,0,0-2.35,2.1c-1,1.48-3.81-.17-2.07-1.88a97.22,97.22,0,0,0,8.45-9c.31-.39,0-.28-.19-.17a22.57,22.57,0,0,1-4.71,1.43c-2.21.48-2.63-2.3-.73-2.52a43.26,43.26,0,0,0,6.16-1.37c2.25-.65,4.09,1.34,2.69,2.91-.89,1-2,2.1-3.13,3.14s-2.24,2-3.25,3a8.55,8.55,0,0,1,7.87-.08c4,2.4,2.71,7.33-.23,9.46-2.77,2-7.14,2.1-9.26.7-3-1.93-1.66-5.41,1.65-5.52,2.24-.08,4.34,1.26,4.42,3.78A3.69,3.69,0,0,0,194.61,273.07Zm-6-.84c-1.23.11-1.29,1.26-.39,1.73a5,5,0,0,0,2.35.42C190.64,273.09,189.88,272.12,188.65,272.23Z"/><path class="cls-2" d="M72.22,49.56s0-4.46.28-7c0,0,10.71,0,12.29.14,0,0-.19,17,.58,28.9,0,0-6.62.29-8.35.1,0,0,1-20.45,1-22.18C78,49.56,73.27,49.7,72.22,49.56Z"/><path class="cls-2" d="M95.3,71.55s-.19-4.52,0-6.77c3,0,4,.09,6.86.14a50,50,0,0,1-.14,6.72A55.56,55.56,0,0,1,95.3,71.55Z"/></svg>