<svg id="レイヤー_1" data-name="レイヤー 1" xmlns="http://www.w3.org/2000/svg" viewBox="0 0 456 456"><defs><style>.cls-1{fill:#002d97;}.cls-2{fill:#fff;}</style></defs><circle class="cls-1" cx="228" cy="228" r="228"/><path class="cls-2" d="M92.93,77.78s-7-.42-10.38-.54c0,0,.42,7.62.66,10.74l-5.1.36s-.06-9.3,0-15.36H93.17Z"/><path class="cls-2" d="M119.42,73.46s-.48,7.92-.78,8.82l14.4.24s-.9,22.56-.24,25.92a20.61,20.61,0,0,0,5.52-.12A37.81,37.81,0,0,0,139,103s3.18,6.24,4.74,9.42c-2.28,3.66-11.46,4-17.94,1.92,0,0,0-23.22.24-25.26h-8.34a37.62,37.62,0,0,1-2.58,13.56c1.8,1.74,3.6,3.48,5.1,5.1l-5.52,5.4c-1.2-1.92-2.16-3.42-3.12-4.68-2.94,3.6-7.26,6.36-13.38,7.86,5.34-5.58,7.38-8.7,9.36-12.84-1.26-1.5-2.58-3.12-4.26-5.52l3.54-2.88s1.2,1,2.88,2.58a37.32,37.32,0,0,0,1.44-8.1l-13-.24s-.06-4-.18-5.7l13.32-.18-.18-10.2Z"/><path class="cls-2" d="M163.55,79a51,51,0,0,1-.9,6.54c8.4.12,10.5.06,16.8.06-.48,6.9-3.54,14.22-9.12,18.6a58.22,58.22,0,0,0,5.76,4.8l-4.38,5.1s-7.44-7.14-10.74-11.88c0,0,2.4-2.34,3.6-3.84a33.19,33.19,0,0,0,3.6,3.66,33,33,0,0,0,2.94-11.22s-5.28-.06-9.72-.18c0,0-2.1,8.34-12.72,11.34,5-7.32,7.62-15.66,6.66-23.52C161.57,78.92,161.57,79,163.55,79Z"/><path class="cls-2" d="M190.12,78.5s13.32.24,18.24.24l-.78-7.68,8.46.36a31.39,31.39,0,0,1-2.16,7.2s15.9-.06,17.7-.3l-.18,7.2s-13.62,0-16.38-.12L214.78,91s11-.12,13-.12c0,0-.06,16.92-.9,21.84,0,0-5.64-4.14-8.28-5.28l4.32-.24a100.1,100.1,0,0,0-.72-10.86s-7.44.48-8.4.48c0,0,.24,17.16.48,20.58l-6.24.06s.48-17.64.3-20c0,0-2.88-.06-5.52-.18l-.18,14-7.32-.12s-.54-20.16-.66-21.12c6.6.12,9.12.18,13.56,0l-.12-5.7s-12.78.06-17.7.36Z"/><path class="cls-2" d="M268.11,96.5c.06-5.58-3.42-8.82-7.56-9.24-2.76,8.88-7.5,16.92-13.68,22-4.14-2.4-6.9-7.44-6.42-14.1.6-9.54,8.82-14.94,17.88-14.52,11.34.54,17.28,8.1,16.56,16.86-.72,8-6.24,12.9-15.06,13.8C266.31,106,268.05,101.66,268.11,96.5ZM254.61,87a8.49,8.49,0,0,0-6.78,13.5A34.7,34.7,0,0,0,254.61,87Z"/><path class="cls-2" d="M138.29,175a15.94,15.94,0,0,0,4.68-7.56,58.37,58.37,0,0,0-8-3.12s3.54-7.8,4.62-11.22c-1.68.12-4.5.3-6.12.3V146.9s6.36.42,6.84.3c0,0,1.86-8.52,2-10.44l6.54,1.2a23.51,23.51,0,0,1-3.48,8.4l10.38.06-.54,5.82-4,.54a25.5,25.5,0,0,1-1.74,10.62s5.7,2.7,6.66,3.6l-3.12,6.6-5.82-3.36C146.51,172,143.75,174.56,138.29,175Zm7.38-14.28a27.82,27.82,0,0,0,1.74-7.68l-2.4.12c-.42,1.2-2.58,6.48-2.58,6.48C143.45,159.86,145.67,160.7,145.67,160.7Zm38.16-.42h-9.24s1.14,12.6-2.28,19c0,0-5.88-5.94-9-8.58,0,0,5.58.48,6.3.42,0,0,.3-9.06.24-11,0,0-6.9-.06-12.66.12l-.06-6.42s8,.18,12.18.18c.06-1.62,0-4.62-1.38-6.54,0,0,4-5.4,4.62-7.86a63.47,63.47,0,0,1-10.92.84l-.06-6.9s11,.6,18.78.6a39.72,39.72,0,0,1-6.42,14.4,20.38,20.38,0,0,1,.6,4.92l9.66-.24Z"/><path class="cls-2" d="M200.77,135.5l7.31-2.28,1.75,6.42s4-.9,7.85-2.16L219,144.8c-4.13,1.08-5.46,1.08-8.58,1.68l1,3.36s4-.78,7.2-1.74l1.74,6.06s-5,.72-7.68,1.2L216,165.92s-5.46-1.68-11-3.48c0,0,3.12-.84,4.26-1l-2-5s-4.68,1.2-8.94,1.92l-1.56-5.88s6-1.08,8.88-1.44L204,148c-6.47,1-8.45,1.32-11,1.56l-2.1-6.42s7.5-1.44,11.76-2.46Zm4.44,34.08-2,6.9c-2.88,0-8.94-3.12-11.76-8.22l3.42-4.8A11.49,11.49,0,0,0,205.21,169.58Z"/><path class="cls-2" d="M235.2,148.46s-4.86.66-5.82.66l-.3-7.86s4.32.06,6.6.12l-1-6,7.2-.66-.36,7,6.42-.48-.24,7.38-5.4-.18-.3,8.7-7.32-.3S235.14,151.82,235.2,148.46Zm31.5,21.6a24,24,0,0,0-6.12-2.58c.36,3.48-1.32,10.26-9.72,9.36a8.15,8.15,0,0,1-7.56-8c0-4.68,3.54-8.22,9.36-8.64a30.4,30.4,0,0,0-1.68-7.14l8.4-1.32a54.55,54.55,0,0,1,1.2,8.64,51.11,51.11,0,0,1,8.52,2.88Zm-14.94-3.84a2.07,2.07,0,0,0-2,2,1.94,1.94,0,0,0,1.14,2.22,2,2,0,0,0,2.82-1.86A1.82,1.82,0,0,0,251.76,166.22Zm17.7-17.46s-5.34-.24-10.62-.54l-.24-7.56s8,.18,11.16,0Z"/><path class="cls-2" d="M282.2,164.06s.72-11.52.48-13l-5,.24v-5.46l6.12-.24-.36-6.3,4.86.36.84,6.54,6.3-.48-.36,5.52s-5.82.24-6.9.24l-1.8,11.64a31.07,31.07,0,0,0,6.48-3.48c-1.86,3.72-3.72,8.52-11,12.06L278.78,165Zm14.22-12.36s25.32-.06,26.1-.18l-.48,5.94s-12.42.78-15.42.54a10.14,10.14,0,0,1-2.16,3.36l17.28-.18s.36,12.24-2.46,18.18c0,0-3.6-4.56-5-6.06h2.4s.54-4.8.66-7.14h-2.7s0,7-6.78,8.94c0,0,2.7-6.3,2.76-9.12l-2.28-.12s-2.1,6.54-7.08,8c1.86-5.4,2.4-7,2.7-8.88l-2.1-.12s-4.32,6.18-8.82,6.66c5.82-8,6.42-10.74,7.2-14.16l-3.6.48ZM301,132h15.78s-.72,14.88-1.08,16c0,0-10.86,0-14.7-.78Zm5,12.36c1.5.12,6.06-.12,6.06-.12l-.12-2.7h-5.52Zm.54-6.48a51.17,51.17,0,0,0,5.28-.18v-1.5l-5.28-.36Z"/><path class="cls-2" d="M349.81,148.88l-.66,11.82a57,57,0,0,1-11,.24A14.4,14.4,0,0,1,328,174.68c4.2-9,5.88-17.76,4.26-25.74C332.23,148.94,346.27,149.12,349.81,148.88Zm-16.2-5.82-.3-6.06h15.78l-.42,5.76S336.91,143.3,333.61,143.06Zm10.5,13.38-.12-3.72-5.58.12v3.72A25.31,25.31,0,0,0,344.11,156.44ZM360,149.12s13.21-.12,16.8-.12l-.42,7.38-6.71-.24.29,21.18-6.71-.06.59-22-4-.12s-.42,9.66-10.43,11.58c4.44-7.38,5.94-14.88,4.68-21.3l6.36-.12Zm6.54-17.76L371,138a27.8,27.8,0,0,1-17.21,2C357.25,138.38,365.53,133.94,366.54,131.36Z"/><path class="cls-2" d="M393.79,177.08,378.73,177l.24-4.74s7,.42,10.38.54c0,0-.42-7.68-.66-10.74l5.1-.36S393.85,171,393.79,177.08Z"/><path class="cls-2" d="M74.39,208.7c.38-.15.74-.29,1-.43,1.32-.8,2.61,1.2.84,2.08a13.76,13.76,0,0,1-2.64.8,25.21,25.21,0,0,1-1.16,2.42,3.5,3.5,0,0,1,4,2.09c1-.51,2-1,2.92-1.42a18.35,18.35,0,0,0,1.88-.89,1.28,1.28,0,1,1,1.34,2.16,26.66,26.66,0,0,1-2.59,1c-1,.38-2.09.86-3,1.32a19.14,19.14,0,0,1,0,2.64A1.43,1.43,0,0,1,75.76,222c-.6,0-1.16-.44-1.08-1.37,0-.51,0-1.06,0-1.56l-.62.36c-3,1.92-2.62,3.36-1.27,4s3.62.17,4.75-.19c2.11-.65,2.78,1.94.58,2.52-1.42.36-4.68.72-6.56-.34-3.24-1.82-2.66-5.06,1.68-7.92.34-.21.72-.48,1.18-.74-.65-2-2.5-1.78-4.06,0l-.09.1a5.31,5.31,0,0,1-.56.62c-1.32,1.18-3.07-.19-1.63-1.49a12,12,0,0,0,1.95-2.25,21.6,21.6,0,0,0,1.13-2.14,4.91,4.91,0,0,1-3-.26c-1.73-.87-.55-3.12,1.13-2a3.65,3.65,0,0,0,2.25,0l.36,0a10.07,10.07,0,0,0,.27-2c.09-1.44,2.35-1.3,2.4-.12a4.62,4.62,0,0,1-.19,1.39Z"/><path class="cls-2" d="M92.2,225.35c-2.36.82-2.74-1.75-1.06-2.2a8,8,0,0,0,6.12-7.56c-2.66,0-5.3.12-7,.16A1.09,1.09,0,0,1,89,214.67a1.22,1.22,0,0,1,1.37-1.17c3.41-.05,11-.1,14.88-.12a1.05,1.05,0,0,1,1.17,1.15,1.17,1.17,0,0,1-1.32,1.08c-1.32-.05-3.28-.07-5.4-.05A10.67,10.67,0,0,1,92.2,225.35Zm10.34-14.59c-3.31.05-6.91.15-9.48.15a1.13,1.13,0,1,1,0-2.24c3,0,6.22-.07,9.37-.14a1.12,1.12,0,1,1,.09,2.23Z"/><path class="cls-2" d="M113.45,217a1.16,1.16,0,0,1-1.28-1.15,1.23,1.23,0,0,1,1.28-1.22h15.07a1.19,1.19,0,1,1,0,2.37Z"/><path class="cls-2" d="M146.38,221.35a1.41,1.41,0,0,1-.46,1.92,1.19,1.19,0,0,1-1.75-.41,17.54,17.54,0,0,0-5.66-4.75c-1.32-.63-.17-2.69,1.51-1.83a25.93,25.93,0,0,1,3,1.78,35.84,35.84,0,0,0,4.94-3.84c.31-.31.51-.82-.22-.82-3,0-8.85.07-12.57.22a1.23,1.23,0,1,1,0-2.43c3.77-.07,9.68-.19,13.66-.12,2.16,0,3.72,1.85,2.26,3.51a32.22,32.22,0,0,1-6.08,5A7.26,7.26,0,0,1,146.38,221.35Z"/><path class="cls-2" d="M158.45,224.47c-1.92-4.73,0-11.84.41-14.69a1.17,1.17,0,1,1,2.33.14c-.39,2-1.83,7.59-1.25,9.82.07.31.17.24.26,0s.31-.6.41-.77a1,1,0,0,1,1.68.94,12.23,12.23,0,0,0-1.42,3.36c-.14.65.15,1.39-.45,1.92S158.93,225.64,158.45,224.47Zm6.43-1.71a1.19,1.19,0,0,1,1.71-1.65c1.29,1.17,4.17.79,6,.4s2.07,2.14.48,2.55C170.55,224.71,166.61,224.63,164.88,222.76Zm1.37-9.57a1.13,1.13,0,1,1-.34-2.24,14.61,14.61,0,0,1,6.32-.14,1.17,1.17,0,1,1-.41,2.3A12.09,12.09,0,0,0,166.25,213.19Z"/><path class="cls-2" d="M194,221c-1.13,4.87-4.64,5.45-6.46,5.45a12.1,12.1,0,0,1-3.55-.58,1.13,1.13,0,0,1-.87-1.1,1.2,1.2,0,0,1,1.23-1.23,1.84,1.84,0,0,1,.65.12,7.85,7.85,0,0,0,2.78.58c1.7,0,3.1-.86,3.84-3.24l-11.88,0a1,1,0,0,1-1.08-1.08,1,1,0,0,1,1.06-1L192,219c.07-.68.1-1.23.1-1.56v0c0-.58-.46-.79-.94-.79-.89,0-1.82,0-2.74,0s-1.82,0-2.73,0l-.15.43a1.33,1.33,0,0,1-1.32.84c-.6,0-1.15-.31-1.15-.91a1.55,1.55,0,0,1,.12-.51,28.93,28.93,0,0,0,1.87-6.5,1,1,0,0,1,1.11-.87,1.1,1.1,0,0,1,1.2,1.06.58.58,0,0,1,0,.22l-.07.33h6.41a1,1,0,0,1,1.08,1,1,1,0,0,1-1.08,1h-6.86c-.17.65-.32,1.29-.51,1.94.94,0,1.9,0,2.86,0s1.94,0,2.9,0a2.2,2.2,0,0,1,2.4,2.28c0,.1,0,1.15-.12,2.07l4,0a1,1,0,0,1,1,1.08,1,1,0,0,1-1,1Zm-12.08-9.67a1.11,1.11,0,0,1-1.2,1,1.12,1.12,0,0,1-1.2-1.1c0-.31,0-.7,0-1.08s0-.79,0-1.18c.05-1.36,1.08-2.35,3-2.37,2.43,0,4.78,0,7.13,0,1.92,0,3.87,0,5.88,0,1.66,0,2.88.88,2.93,2.35,0,.36,0,.86,0,1.34,0,.94,0,2-1.28,2a1.07,1.07,0,0,1-1.15-1v0c0-2.35,0-2.54-1.51-2.59-1.9,0-4.06-.05-6.17-.05-1.75,0-3.43,0-4.9.05-1.29,0-1.48.38-1.56,1.25v1.44Z"/><path class="cls-2" d="M223.26,222.52l-5.93-.09a14.1,14.1,0,0,0,5,1.77,1,1,0,0,1,1,1,1.26,1.26,0,0,1-1.27,1.24,15.3,15.3,0,0,1-6.24-2.56.94.94,0,0,1-.44-.8,1,1,0,0,1,.29-.72h-3.77a1.17,1.17,0,0,1,.39.84,1,1,0,0,1-.41.77,16.28,16.28,0,0,1-6.31,2.59,1.14,1.14,0,0,1-1.18-1.15,1.07,1.07,0,0,1,1-1.06,11.57,11.57,0,0,0,5-2l-5.95.1h0a.92.92,0,0,1-1-1,1,1,0,0,1,1-1h18.79a1,1,0,0,1,1,1,.93.93,0,0,1-1,1Zm-8.14-13.34v1.13c1,0,1.9,0,2.79,0,1.46.05,2.45.7,2.49,1.66s.1,1.9.1,2.88,0,2-.1,2.83c-.07,1-1,1.75-2.61,1.8-1.35,0-2.71,0-4,0s-2.62,0-3.84,0c-1.78-.05-2.62-.77-2.67-1.77s-.07-1.76-.07-2.62,0-2,.07-2.88c.05-1.06.72-1.85,2.62-1.9.88,0,1.82,0,2.81,0v-1.13l-6.89,0a1,1,0,1,1,0-1.94l6.86.05v-1.06a1.26,1.26,0,0,1,2.5,0l0,1.06,6.8-.05a1,1,0,0,1,1.08,1,1,1,0,0,1-1.08,1Zm3.1,5.11h-8.88v1.1h8.88Zm-.05-1.63c0-.46-.33-.75-1.1-.77-1.08,0-2.19,0-3.27,0s-2.18,0-3.31,0c-.72,0-1.05.38-1.08.77l0,.29h8.81Zm-8.78,4.1,0,.39c0,.81.58.84,4.13.84,4.13,0,4.56,0,4.63-.84,0-.12,0-.27,0-.39Z"/><path class="cls-2" d="M236.37,208.7a10.28,10.28,0,0,0,1-.43c1.32-.8,2.62,1.2.84,2.08a13.54,13.54,0,0,1-2.64.8,25.06,25.06,0,0,1-1.15,2.42,3.49,3.49,0,0,1,4,2.09c1-.51,2-1,2.93-1.42a17.3,17.3,0,0,0,1.87-.89,1.28,1.28,0,1,1,1.35,2.16,26.66,26.66,0,0,1-2.59,1c-1,.38-2.09.86-3,1.32a20.85,20.85,0,0,1,0,2.64,1.43,1.43,0,0,1-1.28,1.49c-.6,0-1.15-.44-1.08-1.37,0-.51,0-1.06,0-1.56l-.62.36c-3,1.92-2.62,3.36-1.27,4s3.62.17,4.75-.19c2.11-.65,2.78,1.94.57,2.52-1.41.36-4.68.72-6.55-.34-3.24-1.82-2.66-5.06,1.68-7.92.34-.21.72-.48,1.18-.74-.65-2-2.5-1.78-4.06,0l-.09.1a5.31,5.31,0,0,1-.56.62c-1.32,1.18-3.07-.19-1.63-1.49a12,12,0,0,0,2-2.25,19.64,19.64,0,0,0,1.12-2.14,4.87,4.87,0,0,1-3-.26c-1.73-.87-.55-3.12,1.13-2a3.65,3.65,0,0,0,2.25,0l.36,0a10.07,10.07,0,0,0,.27-2c.09-1.44,2.35-1.3,2.4-.12a4.63,4.63,0,0,1-.2,1.39Z"/><path class="cls-2" d="M260.68,223.67a26,26,0,0,1-4.7,1.18.94.94,0,0,1-1-1,1,1,0,0,1,.84-1c.39-.08.75-.12,1.08-.2v-7.65h-.64A1.53,1.53,0,0,1,256,215a1,1,0,0,1,.27.7c0,.62-.51.93-2,1.65v2.57c0,.38,0,2.57.07,3.41v.12a2.62,2.62,0,0,1-2.93,2.88c-1,0-2.18-.1-2.18-1.3a1,1,0,0,1,.91-1,.86.86,0,0,1,.22,0,3.55,3.55,0,0,0,.84.12c.5,0,.86-.21.88-1,0-.63,0-2.47,0-4.75a14.9,14.9,0,0,1-2,.62,1.07,1.07,0,0,1-1.1-1.08,1,1,0,0,1,.74-1l2.3-.77v-4.06h-1.7a1,1,0,1,1,0-2H252v-3.65a1.08,1.08,0,0,1,1.11-1.12,1,1,0,0,1,1.08,1.12V210h1.29a1,1,0,1,1,0,2h-1.29v3.17c.24-.12.48-.26.74-.41a1,1,0,0,1,.41-.12.78.78,0,0,1,.24.05.94.94,0,0,1-.22-.6.89.89,0,0,1,.92-.89h13.34a.87.87,0,0,1,1,.89.89.89,0,0,1-1,.89h-7.06l.05,10.53a1,1,0,0,1-1.92,0ZM266,212.42c-1.05.05-2.16.07-3.22.07-4.48,0-5.4-.1-5.4-2.69,0-.67.05-1.41.08-2.06a2.12,2.12,0,0,1,2.35-1.87c1,0,2.21-.05,3.38-.05,1,0,1.9,0,2.76.05a2.33,2.33,0,0,1,2.31,1.72c.05.53.07,1.13.07,1.76,0,.43,0,.86,0,1.24C268.24,211.72,267.38,212.35,266,212.42Zm-5.28,2.64h-2l0,1.27h2Zm0,2.83h-2v1.27h1.95Zm0,2.83h-1.95v1.61c.63-.14,1.23-.31,1.85-.5l.1,0Zm5.45-12.48c-.05-.86-.12-.86-3.58-.86-2.69,0-3.05,0-3.1.89l0,.14h6.72Zm0,1.63h-6.74v.34c0,.7.41.74,3.24.74,3.31,0,3.43,0,3.48-.76Zm-2.54,7.95a.8.8,0,0,1-.79-.87.79.79,0,0,1,.76-.84c.6,0,1.33,0,2,0s1.45,0,2,0a1.55,1.55,0,0,1,1.61,1.56,11.61,11.61,0,0,1-1.71,4.71,11.62,11.62,0,0,0,2.31,1.41,1,1,0,0,1,.58.89,1.11,1.11,0,0,1-1.06,1.11c-.94,0-2.83-1.78-2.95-1.9-.82.91-2.12,1.94-2.69,1.94a1.11,1.11,0,0,1-1.06-1.05.77.77,0,0,1,.43-.7,8,8,0,0,0,2.07-1.58,8.88,8.88,0,0,1-1.75-3.39.83.83,0,0,1,.86-.81.81.81,0,0,1,.77.55,7.92,7.92,0,0,0,1.2,2.18,7.88,7.88,0,0,0,1-2.92.31.31,0,0,0-.34-.34c-.81,0-2.16,0-3.24,0Z"/><path class="cls-2" d="M281.57,225.43c-1.89.31-2.08-2-.43-2.24a9.44,9.44,0,0,0,5-2c1.44-1.27,1.52-2.59.79-3.41-1-1.18-2.92-1.15-4.48-.7a40.36,40.36,0,0,0-4.92,2.24,1.19,1.19,0,1,1-1-2.12,45.63,45.63,0,0,1,5.52-2.06c2-.5,4.78-.53,6.46,1.22,2,2.09,1.2,4.76-1,6.58A12.06,12.06,0,0,1,281.57,225.43Z"/><path class="cls-2" d="M301.17,213.93a7.63,7.63,0,0,1,.77-1.25c.38-.5.26-.48-.2-.33a29.69,29.69,0,0,0-3,1.2c-.77.28-1.44.52-2.16.72-2.11.57-2.74-2.19-.82-2.6.51-.12,1.9-.38,2.67-.57,1.17-.29,3.26-.77,5.71-1.47a32.39,32.39,0,0,1,6.55-1.41,1.41,1.41,0,0,1,1.63,1.85c-.14.4-.67.88-2.35.79a10.27,10.27,0,0,0-3.57.67,6.91,6.91,0,0,0-3.08,2.81c-2.11,3.53-.5,8.57,4.88,8.37,2.52-.09,2.66,2.74.12,2.72C301.05,225.4,298.55,218.75,301.17,213.93Z"/><path class="cls-2" d="M319.44,226.17a9.17,9.17,0,0,0-2.95-2.52,1.05,1.05,0,0,1,.48-2c.84,0,4.68,2.12,4.68,3.75a1.33,1.33,0,0,1-1.3,1.32A1.1,1.1,0,0,1,319.44,226.17Z"/><path class="cls-2" d="M75.39,345a9.29,9.29,0,0,0,1-.43c1.32-.79,2.61,1.2.84,2.09a13.83,13.83,0,0,1-2.64.79,25.35,25.35,0,0,1-1.16,2.43,3.51,3.51,0,0,1,4,2.08c1-.5,2-1,2.92-1.41a18.35,18.35,0,0,0,1.88-.89,1.28,1.28,0,1,1,1.34,2.16c-.77.38-1.32.5-2.59,1-1,.39-2.09.87-3,1.32a19.21,19.21,0,0,1,0,2.64,1.42,1.42,0,0,1-1.27,1.49c-.6,0-1.16-.43-1.08-1.37,0-.5,0-1.05,0-1.56l-.62.36c-3,1.92-2.62,3.36-1.27,4s3.62.16,4.75-.2c2.11-.64,2.78,1.95.58,2.52-1.42.36-4.68.72-6.56-.33-3.24-1.83-2.66-5.07,1.68-7.92.34-.22.72-.48,1.18-.75-.65-2-2.5-1.77-4.06,0l-.09.09a5.53,5.53,0,0,1-.56.63c-1.32,1.17-3.07-.2-1.63-1.49a12,12,0,0,0,1.95-2.26A22.6,22.6,0,0,0,72.2,348a4.82,4.82,0,0,1-3-.27c-1.73-.86-.55-3.12,1.13-2a3.71,3.71,0,0,0,2.25.05,3.48,3.48,0,0,1,.36-.05,10.07,10.07,0,0,0,.27-2c.09-1.44,2.35-1.29,2.4-.12a4.73,4.73,0,0,1-.19,1.4Z"/><path class="cls-2" d="M97.44,361.08c-2.23.36-2.4-2.29-.48-2.55a12.9,12.9,0,0,0,7.06-2.81c2-1.8,2.18-3.76,1.08-5-1.54-1.75-4.25-1.7-6.41-1.05A22.69,22.69,0,0,0,95.25,351c-1.08.53-2.16,1.08-3.33,1.63a1.35,1.35,0,1,1-1.18-2.4,56.23,56.23,0,0,1,7.51-2.8c2.74-.7,6.39-.68,8.6,1.63,2.59,2.71,1.63,6.14-1.32,8.59A16.7,16.7,0,0,1,97.44,361.08Z"/><path class="cls-2" d="M115.91,359.68c-2.16-4.15-1.06-8.71-.79-11.66.12-1.37.26-2.14.31-3.17a1.17,1.17,0,0,1,2.33,0,31,31,0,0,1-.39,3.21c-.29,2-1,4.08-.62,6.46.07.41.21.58.41.07.12-.28.38-.77.5-1.05a1,1,0,1,1,1.78.69,12.72,12.72,0,0,0-1.2,4.2c0,.27.14,1-.2,1.39A1.25,1.25,0,0,1,115.91,359.68Zm12.14-12.14c.53-.12,1-.22,1.42-.34,1.54-.43,2.47,1.66.43,2.09-.62.14-1.25.29-1.89.41,0,.69,0,1.41.09,2.38.22,4.79-1,8.28-4.77,10.92-1.4,1-2.91-.89-1.42-1.85,3.07-2,4-4.92,3.94-9,0-.74,0-1.41-.08-2.06a17.94,17.94,0,0,1-4,.17,1.13,1.13,0,1,1,.39-2.19,14.21,14.21,0,0,0,3.62-.12v-.62a16.11,16.11,0,0,0-.26-2.83c-.2-1.78,2.18-1.68,2.47-.36a11.36,11.36,0,0,1,.12,2.85Z"/><path class="cls-2" d="M143.2,350.27A8.29,8.29,0,0,1,144,349c.38-.51.26-.48-.19-.34-1.8.58-1.39.58-3,1.2a21,21,0,0,1-2.16.72c-2.11.58-2.73-2.18-.81-2.59.5-.12,1.89-.39,2.66-.58,1.18-.29,3.27-.77,5.71-1.46a32.54,32.54,0,0,1,6.56-1.42,1.42,1.42,0,0,1,1.63,1.85c-.15.41-.67.89-2.35.79a10.57,10.57,0,0,0-3.58.67,6.94,6.94,0,0,0-3.07,2.81c-2.11,3.53-.51,8.57,4.87,8.38,2.52-.1,2.66,2.74.12,2.71C143.08,361.75,140.58,355.1,143.2,350.27Z"/><path class="cls-2" d="M162.18,354.83a7.15,7.15,0,0,1-2.14.87,1.15,1.15,0,0,1-1.15-1.13,1,1,0,0,1,.7-1c1-.41,1.8-.77,2.59-1.13v-3.82h-2a1.06,1.06,0,0,1,0-2.11h2l0-3.7a1.13,1.13,0,0,1,1.16-1.15,1.08,1.08,0,0,1,1.1,1.13v3.72H166a1.06,1.06,0,0,1,0,2.11h-1.54v2.67c.29-.17.58-.36.86-.56a.89.89,0,0,1,.51-.16,1,1,0,0,1,.93,1c0,.53-.33.91-2.32,2.06v2.89c0,.38.07,2.54.09,3.38v.1c0,1.48-1,2.64-3,2.64-1.63,0-2.19-.44-2.19-1.3a1,1,0,0,1,.94-1.08.86.86,0,0,1,.22,0,3.5,3.5,0,0,0,.76.1c.51,0,1-.17,1-.79Zm5.66-1.51a.92.92,0,0,1-.91-1,.89.89,0,0,1,.86-1c1,0,2.28,0,3.6,0s2.72,0,3.84,0c1.71,0,2.45.94,2.45,1.92,0,1.18-1.6,3.41-3.19,5a15.28,15.28,0,0,0,4.92,1.94,1.21,1.21,0,0,1,1,1.15,1.24,1.24,0,0,1-1.34,1.2c-1.25,0-4-1.24-6.17-2.88a14.56,14.56,0,0,1-7,3.15,1.23,1.23,0,0,1-1.25-1.18,1.09,1.09,0,0,1,1-1,13.6,13.6,0,0,0,5.52-2.38c-1.25-1.22-2.5-2.85-2.5-3.43a1.1,1.1,0,0,1,1.15-1,1,1,0,0,1,.89.5,11,11,0,0,0,2,2.59,8.56,8.56,0,0,0,2.23-3.36c0-.29-.41-.29-.58-.29h-1.65c-1.64,0-3.53,0-4.92.05ZM178,346.75a.9.9,0,0,1,1-.89c.55,0,1.15.33,1.15.91v.17c0,3.09-1.34,3.45-3.41,3.45-2.59,0-2.95-.69-2.95-2.78,0-.86,0-1.9,0-2.62,0-.52-.28-.72-1.44-.72-1.36,0-1.53.32-1.53.77,0,2.21-.27,4-2.23,5.62a1.65,1.65,0,0,1-1,.38,1.27,1.27,0,0,1-1.32-1.15.91.91,0,0,1,.51-.79c1.46-.89,1.75-2,1.75-3.84,0-.27,0-.55,0-.84v-.05c0-2,2.26-2,3.34-2,3.29,0,4.23.12,4.23,2.88,0,.77-.05,1.41-.05,2.09s0,1.08.74,1.08,1.2,0,1.2-1.52v-.16Z"/><path class="cls-2" d="M189.69,362a1.16,1.16,0,0,1-2.3,0v0l.07-8c-1.61,3-2.06,3.38-2.69,3.38a1.21,1.21,0,0,1-1.2-1.13,1,1,0,0,1,.34-.76,21.39,21.39,0,0,0,3.6-5.55l0-.65-2.11.05h0a1,1,0,0,1-1-1,1,1,0,0,1,1.05-1h2.09l-.05-2.26a11.31,11.31,0,0,1-2,.32,1,1,0,0,1-1-1.11.87.87,0,0,1,.76-.93,18.45,18.45,0,0,0,5.38-1.37.71.71,0,0,1,.26,0A1.24,1.24,0,0,1,192,343c0,.72-.87,1-2.26,1.42,0,.5-.05,1.58-.07,2.83h1.68a1,1,0,0,1,0,2h0l-1.7-.05c0,.53,0,1.06,0,1.56.63,0,2.23,1.54,2.59,2,0,0,.05.07.08.1.28-.7.91-1.11,2.13-1.13,1,0,2.86,0,4.59,0,1.25,0,2.45,0,3.24,0a2.17,2.17,0,0,1,2.35,2.23c0,.84,0,1.39,0,1.85v1.25c0,.38,0,1.84,0,2.68v.1c0,1.49-1,2.93-3.55,2.93-1.9,0-2.5-.39-2.5-1.23a1,1,0,0,1,1-1.08.63.63,0,0,1,.24,0,8.5,8.5,0,0,0,1.28.17c.72,0,1.27-.29,1.27-1.35v-1.22c0-1,0-2.62,0-3.89,0-.75-.31-.75-3.84-.75-1.42,0-2.83,0-3.48.05s-.77.24-.77.7c0,1.27-.05,2.71-.05,4.25,0,1.13,0,2.33.05,3.53v0a1,1,0,0,1-1.08.94,1,1,0,0,1-1.13-1c0-1.11,0-2.21,0-3.34,0-1.51,0-3.05,0-4.46a1.05,1.05,0,0,1-.72.33.94.94,0,0,1-.74-.43,16.35,16.35,0,0,0-1-1.3c0,3.77.12,9.12.12,9.12Zm3.24-16a1,1,0,0,1-1-1,.93.93,0,0,1,1-.93h0l4.23,0,0-1.46c0-.67.6-1,1.23-1a1.1,1.1,0,0,1,1.22,1l0,1.46,4.56,0a.95.95,0,1,1,0,1.89Zm5.4,5c-4,0-4.41-.2-4.41-2.14s.26-2.07,4.7-2.07c3.67,0,4.08,0,4.08,2.07S202.39,351,198.33,351Zm-.24,8.56c-2.37,0-2.78-.28-2.78-2.37,0-2.5,0-2.69,3.09-2.69,2.72,0,2.91.14,2.91,2.78C201.31,359.35,200.8,359.56,198.09,359.56Zm.19-11.4c-2.3,0-2.32,0-2.32.72s0,.72,2.28.72,2.37,0,2.37-.72S200.61,348.16,198.28,348.16Zm1.08,8.16c0-.33-.43-.4-1.1-.4-.91,0-1.1,0-1.1,1.05s0,1.08,1.17,1.08c1,0,1.06-.07,1.06-1A6.64,6.64,0,0,0,199.36,356.32Z"/><path class="cls-2" d="M211.83,357.09c-.1-2.52.16-4.56.28-7.1.07-1.56.24-3.92.19-5.4a1.31,1.31,0,0,1,2.62,0c0,1.51-.21,3.79-.34,5.4a70.44,70.44,0,0,0-.43,7.06c.15,3.5,4.42,3.26,8.6,0a1.33,1.33,0,1,1,1.65,2.09C219.72,362.88,212,363.57,211.83,357.09Z"/><path class="cls-2" d="M233.58,361.44c-2.3-1.25-2.35-3.94.41-5a9.39,9.39,0,0,1,4.77-.19,14.39,14.39,0,0,0,0-1.49c-.29-4.8-.55-7.08-.53-10.52a1.28,1.28,0,0,1,2.55,0c-.08,1.18-.1,2.28-.08,3.46a7.66,7.66,0,0,0,.89-.05,5.2,5.2,0,0,0,1.78-.55c1.51-.86,3.07,1.22,1.44,2.14a5.59,5.59,0,0,1-1.51.5c-.53.1-1.06.15-1.47.19a5.2,5.2,0,0,1-1.05,0c0,1.34.12,2.83.16,4.58,0,.58,0,1.44,0,2.28a10.18,10.18,0,0,1,3.27,1.8c1.7,1.47,0,3.91-1.68,2.16a9.48,9.48,0,0,0-1.95-1.51A5,5,0,0,1,233.58,361.44Zm1.08-3.17a.69.69,0,0,0,0,1.32c1.29.69,3.31.28,3.81-1.23A6.25,6.25,0,0,0,234.66,358.27Z"/><path class="cls-2" d="M257.34,361.08c4.3-3,5.62-7.28,4.64-10.06-.68-1.87-2.48-2-4.13-1a14.18,14.18,0,0,1-2.33,1.11,1.31,1.31,0,1,1-.75-2.5c.63-.21,1.4-.48,2.07-.77,2.45-1.08,6-1,7.25,1.78,1.85,4-.19,9.7-5,13.23C257.51,364.05,255.93,362.08,257.34,361.08Zm-.5-17.17c-1.37-.76-.36-2.64,1.32-1.87a16.1,16.1,0,0,0,3.72,1.06c2,.33,1.18,2.76-.6,2.42A15.18,15.18,0,0,1,256.84,343.91Z"/><path class="cls-2" d="M277.11,362.13a1.66,1.66,0,0,1-1.65-1.58,1.73,1.73,0,0,1,1.65-1.66,1.55,1.55,0,0,1,1.66,1.66A1.6,1.6,0,0,1,277.11,362.13Zm-1-6.09v-.51c0-2.33-.24-7.92-.38-11.69v-.07a1.3,1.3,0,0,1,1.39-1.32,1.36,1.36,0,0,1,1.44,1.39c0,2.83-.38,9.43-.38,11.76,0,.58,0,1.59-1.06,1.59a1,1,0,0,1-1-1.13Z"/><path class="cls-2" d="M71.33,310H63.52l.06-7.16s6.53,0,7.49-.07l-.13-9.21a67.17,67.17,0,0,0-6.72-.13l-.13-8.32c3.33-.06,7.3,0,7.3,0l-.45-7.23,8.32.32-1,7.68s9.09-.13,9.92-.26l-.13-7.49,9-.32v7.68s5-.12,6.72-.32l.13,7.75s-5.25.64-6.59.83L97,302.4c2.94-.13,3.52-.13,5.25-.26l.06,8.71s-5.31.12-6.21,0l.45,6.4H88.35s.38-4.61.51-6.79H77.79l.13,7-7-.25S71.33,312.19,71.33,310Zm7.29-7.68c3.2.07,3.39-.06,10.11-.19-.19-2.17-.25-9-.25-9-4.93,0-9.73.25-9.73.25C78.81,293.76,78.62,302.33,78.62,302.33Z"/><path class="cls-2" d="M158.82,298.5a110.22,110.22,0,0,1,.06,19H148.77c.13-5.05.26-7.17.06-13.57-.06-2.24-.38-6.78-4.92-6.46-2.82.19-4,2.75-4.23,6.08-.32,7.62.13,10.5,0,13.57l-10.3.06c.19-6.27.38-8.77-.07-13.31-.19-1.92-.44-6.08-4.41-5.63-1.15.06-3.71,1-3.84,5.89-.06,3.9,0,5.76,0,13.37l-8.77.07s.26-24.39.07-30.21l9.27-.06-.19,4.54a10.31,10.31,0,0,1,9-4.29,8,8,0,0,1,7.3,6c.89-2.18,4.54-5.83,9.72-5.89C155.1,287.62,158.43,293.31,158.82,298.5Z"/><path class="cls-2" d="M192.31,288.51,192,299c-2.62-1.41-4.86-2.31-7.94-2.11-3.32.25-6.14,1.08-7.1,5.37,0,0,.7,13.82.83,15.36l-10.24.13s.19-24.64.07-30.72l9.08-.13L176,295C177.85,289.28,183,286,192.31,288.51Z"/><path class="cls-2" d="M200.07,291.52c-1.21-7.23,4.29-13.89,13.38-14.14,8.19-.2,15.29,5.56,14.08,13.88-1.35,9.92-10.56,10.24-14.91,17.41,4-.06,7-.51,12.73-1.09V317c-16.7-.06-12.61-.06-23-.19-2.05-13.89,13.51-18.82,15.49-25,1.34-4-1.41-7.56-5.12-7-3.26.38-4.8,2.75-4.42,7.48Z"/><path class="cls-2" d="M237.92,310.78h31l-.39,5.83s-27.39.19-30.2.19Z"/><path class="cls-2" d="M290.68,278.53c-.51,14.53-.44,24.06-.76,31.29l7.29-.13-.64,8s-11.2-.12-15.36-.38c-.51-35.77-.51-36.09-.38-38.65Z"/><path class="cls-2" d="M315.8,275.52l.32,7.62s-4.55.76-7.49,1a75.19,75.19,0,0,1-1.34-7.88Zm-7.49,12.42,8.25.12s.52,27.84.52,29.51l-9.6-.2S308.05,292.74,308.31,287.94Z"/><path class="cls-2" d="M356,291.46s-13.38,7.93-14.78,8.12c0,0,10.11,6.59,15.8,11.14l-6.65,7.55s-12.1-11.65-13.63-12.86l-.13,12.35s-4.67-.13-8.58,0c0,0,.26-28.1.39-39.36l9.4.26.32,16.12s6-5.56,12.36-10.88Z"/><path class="cls-2" d="M362.89,307.77C360,298.5,365,287.94,375.43,287.1c6.34-.57,12.22,1.73,15,5.38-2.63,3.77-2.88,3.71-14.59,17.85,7.16,2.69,12.67-3,13.75-10.24l5.51,3.84c-1.09,8.52-6.53,14.34-15,14.92C372.81,319.36,365.32,315.39,362.89,307.77Zm7.81-2.17,10.11-10.24c-2.11-2-6.27-1.86-8.71,0C369.42,297.34,367.75,302.21,370.7,305.6Z"/><path class="cls-2" d="M66.21,259.14a11.22,11.22,0,0,0,4.24-5.34,1.09,1.09,0,1,1,2,.8,15.27,15.27,0,0,1-5,6.34A1.1,1.1,0,1,1,66.21,259.14Zm13.58.84a15,15,0,0,0-3.86-5.56c-1-.82.38-2.26,1.58-1.2,1.74,1.54,4,4.12,4.46,6C82.37,260.72,80.27,261.54,79.79,260Z"/><path class="cls-2" d="M88.65,258.28a5.23,5.23,0,0,0-1.14-1.54c-.82-.7.34-2,1.28-1.12a7.55,7.55,0,0,1,1.48,1.78A.92.92,0,1,1,88.65,258.28Zm-.4,5.42a.89.89,0,0,1,.5-1.2,10.71,10.71,0,0,0,6.3-7.56,1,1,0,1,1,1.88.52,13,13,0,0,1-7.3,8.62A1,1,0,0,1,88.25,263.7Zm3.08-6.52a5.29,5.29,0,0,0-.94-1.68c-.72-.8.62-1.9,1.44-.92a8.57,8.57,0,0,1,1.2,2A.91.91,0,1,1,91.33,257.18Z"/><path class="cls-2" d="M106.47,257.32a7,7,0,0,0-2.48-1c-1.2-.2-.82-2.1.64-1.82a10.12,10.12,0,0,1,2.92,1A1.08,1.08,0,0,1,108,257,1,1,0,0,1,106.47,257.32Zm0,6.28a1.09,1.09,0,1,1-.66-2.06c4-1.08,8.42-5.48,10.52-9.46.66-1.24,2.66-.42,1.78,1.16C115.55,257.82,111,262.1,106.47,263.6Zm2.32-9.84a7,7,0,0,0-2.18-1.54c-1.14-.46-.34-2.24,1-1.64a10.94,10.94,0,0,1,2.66,1.66,1.07,1.07,0,1,1-1.5,1.52Z"/><path class="cls-2" d="M132.33,260.3a.88.88,0,1,1,0,1.76c-2.94-.1-6.94-.12-9.58.06a.89.89,0,1,1-.06-1.78c1.34,0,3.3-.08,5.32-.08.24-.9.52-2,.62-2.66.06-.3,0-.48-.4-.48-.84,0-2.2,0-3.52,0a.86.86,0,1,1-.14-1.72c1.76-.06,3.58,0,4.58,0a1.51,1.51,0,0,1,1.5,2c-.2.88-.46,1.92-.72,2.78C130.75,260.26,131.57,260.28,132.33,260.3Z"/><path class="cls-2" d="M140.17,263.86c-1.61.62-2.39-1.26-.87-1.76a15.55,15.55,0,0,0,6.69-4.56,8.75,8.75,0,0,0-2.1-1c-1.12-.3-.6-2,.8-1.6a13.24,13.24,0,0,1,2.52,1,19.66,19.66,0,0,0,1.68-2.86c.38-.82.3-.92-.22-.9-.8,0-2.86.22-3.54.3a25.74,25.74,0,0,1-4.59,4.88c-1.33.92-2.52-.82-1.16-1.66a18.09,18.09,0,0,0,5.35-6.3c.7-1.7,2.76-.46,2.06.7l-.36.54c1-.08,2.08-.18,3-.22,2.06-.06,2.42,1.38,1.64,2.8s-1.48,2.58-2.26,3.72a7.56,7.56,0,0,1,1.44,1.26,1.08,1.08,0,0,1,0,1.52,1,1,0,0,1-1.42-.06,11.4,11.4,0,0,0-1.2-1.08A17.21,17.21,0,0,1,140.17,263.86Z"/><path class="cls-2" d="M164.05,250.64l2.64-.16c1.54-.08,2.88,1,2.14,2.42-2.44,4.66-5.2,8.7-10.82,10.92-1.7.66-2.52-1.3-.86-1.88a16.76,16.76,0,0,0,9.22-8.92c.16-.38,0-.76-.48-.74-.84,0-2.3.16-3.2.26a24.25,24.25,0,0,1-4.5,4.84c-1.34.9-2.52-.84-1.16-1.68,1.92-1.18,4.52-4.84,5.44-6.42.66-1.12,2.66-.16,1.72,1.18Zm4.2-1.06c-1-.42-.22-1.62.7-1.28a6.19,6.19,0,0,1,2,1.2c.78.84-.38,2.06-1,1.28A7.07,7.07,0,0,0,168.25,249.58Zm1.82-1.72c-1-.4-.3-1.6.64-1.3a6.38,6.38,0,0,1,2,1.14c.8.8-.34,2.06-1,1.3A7.28,7.28,0,0,0,170.07,247.86Z"/></svg>