<svg id="レイヤー_1" data-name="レイヤー 1" xmlns="http://www.w3.org/2000/svg" viewBox="0 0 168 168"><defs><style>.cls-1{fill:#002d97;}.cls-2{fill:#fff;}</style></defs><circle class="cls-1" cx="84" cy="84" r="84"/><path class="cls-2" d="M55.27,29.61c-1.3,0-3.8-.05-6.39-.05-3.14,0-6.41,0-7.85.05-.84,0-1.15.43-1.15,1.1-.05,4.39.19,10.56-2.16,14.33a1.32,1.32,0,0,1-1.13.67,1.11,1.11,0,0,1-1.17-1,1,1,0,0,1,.14-.51c1.78-2.76,2.06-6.77,2.06-10.37,0-1.15,0-2.25,0-3.26V30.5c0-1.95.93-2.93,3.12-3,1.22,0,3-.05,4.92-.05V25.79a1.25,1.25,0,0,1,2.49,0v1.68c2.89,0,5.69,0,7.18.05a1,1,0,0,1,1.13,1,1.05,1.05,0,0,1-1.13,1.06ZM39.35,42a1.32,1.32,0,0,1,.34-.84,9,9,0,0,0,1.78-3.77,1.06,1.06,0,0,1,1.08-.79,1,1,0,0,1,1.08,1c0,.65-1.37,5.38-3.17,5.38A1.06,1.06,0,0,1,39.35,42Zm9,3.7c-2.64,0-3.89-.63-3.89-2.62s.12-5.42.17-8.28a1,1,0,0,1,1.15-1,1.09,1.09,0,0,1,1.18,1v0c-.1,2.83-.17,5.92-.2,8,0,.58.39.79,1.73.79,1.59,0,2.57-.14,2.57-1.94a1.07,1.07,0,0,1,1.13-1.13,1.19,1.19,0,0,1,1.27,1.11C53.49,45.57,50.71,45.74,48.38,45.74Zm1-11.86A9,9,0,0,0,46,32.3a1,1,0,0,1-.84-1,1,1,0,0,1,1.11-1,10.6,10.6,0,0,1,4.56,1.75,1.17,1.17,0,0,1,.43.91,1.19,1.19,0,0,1-1.13,1.18A1.09,1.09,0,0,1,49.34,33.88Zm6.38,7.9a1.08,1.08,0,0,1-1-.65,9.43,9.43,0,0,0-2.93-3.26,1,1,0,0,1-.46-.8,1.11,1.11,0,0,1,1.16-1c1,0,4.56,3.19,4.56,4.39A1.41,1.41,0,0,1,55.72,41.78Z"/><path class="cls-2" d="M81.88,37.87l-5.16-.1a15.54,15.54,0,0,0,5.36,2.16,1,1,0,0,1,.86,1,1.2,1.2,0,0,1-1.23,1.2,11.71,11.71,0,0,1-4.22-1.75,2.28,2.28,0,0,1,.43,1.44c0,1.71-.55,4-3.41,4-2.16,0-2.61-.55-2.61-1.15a.9.9,0,0,1,.93-.94,1.29,1.29,0,0,1,.41.08,4.11,4.11,0,0,0,1.06.19c.91,0,1.46-.55,1.46-2,0-.39-.24-.53-.67-.53H72.55c-1.8,4.32-6.8,4.7-7.06,4.7a1.05,1.05,0,0,1-1.13-1,1.09,1.09,0,0,1,1-1.06c2.23-.31,4-1.08,4.9-2.59-.94,0-1.85,0-2.57,0h0a.82.82,0,0,1-.86-.87A14.35,14.35,0,0,1,63,42.31,1.05,1.05,0,0,1,62,41.25a1,1,0,0,1,.72-1,20.65,20.65,0,0,0,5-2.5L63,37.87h0A.86.86,0,0,1,62,37,.92.92,0,0,1,63,36l6.89,0c.31-.29.62-.6.93-.94-5.06,0-5.28-.07-5.28-3.12,0-1.92.12-2.92,2.31-3,1.17-.05,2.88-.07,4.63-.07s3.55,0,4.92.07c2,.07,2.16,1.42,2.16,2.86,0,1.85-.07,3.17-2.28,3.24-1.25,0-2.71,0-4.18,0,0,.1,0,.22-.64.94l9.45,0a.9.9,0,0,1,.94.93.88.88,0,0,1-.91.92ZM76.19,27.76V28c0,.58-.55.87-1.1.87S74,28.53,74,28v-.19H70.75V28c0,.58-.56.87-1.11.87s-1.08-.29-1.08-.87v-.19H63.38a.93.93,0,1,1,0-1.85h5.18v-.53c0-.55.55-.84,1.11-.84s1.08.29,1.08.84v.53H74v-.53c0-.55.55-.84,1.1-.84s1.1.29,1.1.84v.53h5.36a.93.93,0,1,1,0,1.85Zm1.18,3.36c-.07-.77-.19-.77-4.68-.77-4.94,0-5,0-5.09.84l0,.17h9.79Zm0,1.51H67.58c0,.12,0,.22,0,.31.05.56.27.68,1,.68,1.13,0,2.79,0,4.47,0,1.2,0,2.42,0,3.43,0,.53,0,.89-.2.91-.7Zm-6.65,5.12a24.15,24.15,0,0,1-2.49,2l2.68,0c0-.24,0-.46.08-.72A1,1,0,0,1,72,38.08a1,1,0,0,1,1.08,1,3.51,3.51,0,0,1-.07.62l2.78,0a2.52,2.52,0,0,1,.77.1A20.4,20.4,0,0,1,74,37.75Z"/><path class="cls-2" d="M87.57,44.39a1.06,1.06,0,0,1,.53-.84,8.06,8.06,0,0,0,2.61-2.8.84.84,0,0,1,.75-.44,1.23,1.23,0,0,1,1.17,1.16c0,.84-2.61,4-3.76,4A1.27,1.27,0,0,1,87.57,44.39Zm1.08-4.53a.91.91,0,0,1-1-.94.89.89,0,0,1,1-.93h1.46V30.21h-1a1,1,0,0,1-1-1,1,1,0,0,1,1-1h0l1,0V26.08a1,1,0,0,1,1-.91.93.93,0,0,1,1,.91v2.16h3.12V26.08a1,1,0,0,1,1-.91.93.93,0,0,1,1,.91v2.16l1.18,0h0a1,1,0,0,1,0,2h-1.2V38h1a.86.86,0,0,1,.88.93.88.88,0,0,1-.91.94Zm6.62-9.68H92.15v1.47h3.12Zm0,3.2H92.15v1.37h3.12Zm0,3.09H92.15V38h3.12Zm10.47,1.64H102a11,11,0,0,1-4.59,7.65,1.26,1.26,0,0,1-.72.24,1.19,1.19,0,0,1-1.18-1.15A1,1,0,0,1,96,44c.24-.15.46-.32.67-.48a.68.68,0,0,1-.19,0,.73.73,0,0,1-.62-.34A4.41,4.41,0,0,0,94.6,42a.76.76,0,0,1-.38-.67,1.05,1.05,0,0,1,1-1c.51,0,2.38,1,2.38,2a1.34,1.34,0,0,1-.1.45c2.26-2.3,2.57-5.45,2.57-7.77,0-.85-.05-1.59-.05-2.12,0-1.7,0-3.09,0-4.8,0-2.42,2-2.42,4.13-2.42,1.92,0,3.76.21,3.79,2.42v2.59c0,7.42,0,8.19,0,8.5l0,3.39v0c0,1.42-.91,3.2-4,3.2-1.83,0-2.5-.34-2.5-1.3a1,1,0,0,1,.94-1.1.75.75,0,0,1,.21,0,7.8,7.8,0,0,0,1.45.17c.91,0,1.58-.31,1.58-1.39Zm0-5.26h-3.53V33c0,.48,0,1,0,1.63s0,.94-.05,1.45h3.55Zm0-2c0-.87,0-1.68,0-2.4s-.38-.79-1.58-.79-1.85,0-1.85.79,0,1.56,0,2.4Z"/><path class="cls-2" d="M115.67,46.05a1,1,0,0,1-1.15-1v0c.17-4.4.12-12,.17-17.19,0-2.35,1.66-2.35,4.1-2.35.92,0,1.88,0,2.33,0a2.09,2.09,0,0,1,2.19,1.9c0,.84,0,1.7,0,2.54,0,3,0,3.63-4.77,3.63-.63,0-1.23,0-1.66,0v2.16c0,2.59,0,6-.09,9.34A1.06,1.06,0,0,1,115.67,46.05Zm5.57-17.31c0-.26,0-.5,0-.74,0-.67-.17-.74-2.09-.74s-2.14.07-2.18.93c0,.17,0,.36,0,.55Zm-4.32,1.59v1.46c.34,0,1.06,0,1.78,0,2.33,0,2.49-.1,2.52-.77,0-.22,0-.46,0-.72Zm9.31,13.06c-.64,0-1.36.07-2.06.07s-1.44,0-2.09-.07a2.32,2.32,0,0,1-2.37-2.24c0-.33,0-.74,0-1.15,0-1.08,0-2.33.1-3.29A2.21,2.21,0,0,1,122,34.58c.63,0,1.3,0,2,0s1.58,0,2.28,0a2.25,2.25,0,0,1,2.18,2c.07.84.1,1.9.1,2.89,0,.62,0,1.19,0,1.7A2.37,2.37,0,0,1,126.23,43.39Zm-4.68-3.7c0,1.87,0,1.9,2.5,1.9,1.78,0,2.47,0,2.52-1,0-.26,0-.59,0-.93Zm5-1.7c0-.29,0-.53,0-.75,0-.89-.5-1-2.13-1-.6,0-1.25,0-1.83,0a.92.92,0,0,0-.93,1c0,.22,0,.46,0,.73Zm3.36-4.42c-2.83,0-4.82,0-4.9-2.11,0-.48,0-1,0-1.52,0-.84,0-1.7,0-2.54a2,2,0,0,1,2.13-1.9c.46,0,1.47,0,2.4,0,.7,0,1.37,0,1.78,0,1.78.1,2.52,1.06,2.52,2.14v1.8c0,3.6.05,7.32.05,10.37,0,1.13,0,2.14,0,3,0,1.7-.84,3.19-3.57,3.19-1.68,0-2.55-.22-2.55-1.27a1,1,0,0,1,.94-1.06l.19,0a7.77,7.77,0,0,0,1.27.15c.8,0,1.39-.29,1.42-1.47,0-1,.05-2,.05-3.07,0-1.61,0-3.26,0-4.78v-1C131.25,33.54,130.63,33.57,129.93,33.57Zm1.7-4.83c0-1.46,0-1.48-2.25-1.48-1.92,0-2.19,0-2.23.76,0,.22,0,.48,0,.72Zm.05,1.59h-4.56c0,.26,0,.5,0,.72,0,.67.09.77,2.64.77.79,0,1.56,0,1.89,0Z"/><path class="cls-2" d="M52.17,78.8c0,5.1-4.17,7-8,7-4.23,0-7.76-2.49-7.76-7a6.45,6.45,0,0,1,3.71-5.91,5.18,5.18,0,0,1-2.64-4.56c0-4.14,3.48-5.82,6.78-5.82,4.5,0,6.78,2.79,6.78,5.82a5.26,5.26,0,0,1-2.64,4.56A6.15,6.15,0,0,1,52.17,78.8Zm-7.86-4.23c-3,0-4.62,2-4.62,4.2,0,2.52,2.28,4,4.62,4s4.62-1.44,4.62-4C48.93,77.36,48.33,74.57,44.31,74.57Zm0-9.12c-2.07,0-3.57,1.38-3.57,3,0,2.16,1.56,3.09,3.48,3.09,3.54,0,3.66-2.46,3.66-3.09C47.88,66.11,45.54,65.45,44.31,65.45Z"/><path class="cls-2" d="M59.61,85.52a1.94,1.94,0,0,1-2.1-2.1,2,2,0,0,1,2.1-2,2.07,2.07,0,0,1,2.13,2A2.16,2.16,0,0,1,59.61,85.52Z"/><path class="cls-2" d="M75.33,85.58a1.67,1.67,0,0,1-1.77-1.65c0-2.79.12-9.18.12-13.14,0-4.2-.15-4.53-1.17-4.53h-.42a1.49,1.49,0,0,1-1.53-1.59,1.74,1.74,0,0,1,1.56-1.83c.6,0,.84,0,1.47,0A3.19,3.19,0,0,1,77.07,66c0,.39,0,.93,0,1.59C77.1,70,77,74,77,78.32c0,1.86,0,3.75.06,5.61V84A1.61,1.61,0,0,1,75.33,85.58Z"/><path class="cls-2" d="M94.41,85.61c-2.76,0-6.57-1.44-6.57-3.42a1.66,1.66,0,0,1,1.56-1.71,1.68,1.68,0,0,1,1,.45,6.25,6.25,0,0,0,4.11,1.56,4.51,4.51,0,0,0,4.77-4.56,3.87,3.87,0,0,0-4.11-4,7.71,7.71,0,0,0-2.37.42,3.89,3.89,0,0,1-1.17.42c-.15,0-.3,0-.45,0-1.32,0-2.16-.6-2.16-2,0-.24.6-4.89,1.05-7.53.3-1.65,1-2.4,2.91-2.4h.21c.87,0,1.32,0,6.24,0a1.55,1.55,0,0,1,1.59,1.62A1.48,1.48,0,0,1,99.54,66l-5.79,0c-.57,0-.81.27-.9.81-.15,1-.6,3.45-.69,4V71c0,.24.06.33.24.33a6,6,0,0,0,.69-.15A11,11,0,0,1,95.34,71c5.37,0,7.26,3.63,7.26,6.9C102.6,82.28,99.33,85.61,94.41,85.61Z"/><path class="cls-2" d="M107.57,84.78c.08-2.1.36-5.47.46-7.21a1.24,1.24,0,0,1,1.16-1.34,1.3,1.3,0,0,1,1.21,1c.46,1.44,1.51,5.15,1.8,5.74,0,.07.07.11.12.11s.08,0,.11-.11c.45-1.1,1.41-4.44,1.88-5.8a1.33,1.33,0,0,1,1.24-1,1.24,1.24,0,0,1,1.2,1.31c0,1.55.3,5.45.39,7.15v0a.64.64,0,0,1-.69.62.66.66,0,0,1-.72-.62c-.12-1.72-.24-6.48-.24-6.48,0-.2,0-.29-.11-.29s-.15.11-.18.26c-.27,1-1.5,4.89-2,6.17a1,1,0,0,1-.94.69.94.94,0,0,1-.86-.68c-.39-.91-1.44-4.71-1.88-6.13,0-.14-.11-.22-.16-.22s-.11.09-.13.34c-.09,1.06-.25,4.71-.31,6.36a.67.67,0,0,1-.72.6.57.57,0,0,1-.64-.54Z"/><path class="cls-2" d="M119.46,82.37a3,3,0,1,1,6,0,3,3,0,1,1-6,0Zm4.82,0a1.81,1.81,0,1,0-1.79,1.9A1.77,1.77,0,0,0,124.28,82.37Z"/><path class="cls-2" d="M131.81,84.74c0-.49,0-1.4,0-2.13,0-.48,0-.89,0-1.08-.05-.75-.47-1-1-1a1.72,1.72,0,0,0-1.65,1.45c0,.22,0,.5,0,.83,0,.49,0,1.13,0,2a.57.57,0,0,1-.61.61.59.59,0,0,1-.64-.58v0c0-1.14.05-1.93.05-2.64s0-1.34,0-2.14v0a.6.6,0,0,1,.65-.54.57.57,0,0,1,.61.57s0,.08,0,.12v0s0,0,0,0l.06,0a2.33,2.33,0,0,1,1.7-.72,2,2,0,0,1,2,2c0,.43,0,1.5,0,2.39,0,.37,0,.71,0,1a.61.61,0,0,1-.63.63.59.59,0,0,1-.62-.6Z"/><path class="cls-2" d="M42,137.84a1.62,1.62,0,0,1,.81-1.32C46,134.45,49,130.61,49,129.89a.08.08,0,0,0-.09-.09c-.06,0-.09,0-.18.06a7.18,7.18,0,0,1-3.15.72,6.65,6.65,0,0,1-6.9-6.78,7.14,7.14,0,0,1,7.53-7.23,7.33,7.33,0,0,1,7.56,7.71,15.72,15.72,0,0,1-2,7.17c-1.2,2.22-5.79,8-7.95,8A1.75,1.75,0,0,1,42,137.84Zm4.14-18.27a4.2,4.2,0,0,0-4.44,4.14c0,2.82,2.28,4,4.29,4a4.23,4.23,0,0,0,4.5-4.17C50.49,121.13,48.54,119.57,46.14,119.57Z"/><path class="cls-2" d="M61.47,139.52a1.94,1.94,0,0,1-2.1-2.1,2,2,0,0,1,2.1-2,2.07,2.07,0,0,1,2.13,2A2.16,2.16,0,0,1,61.47,139.52Z"/><path class="cls-2" d="M76.86,125.36c1.83-.06,2.7-1.26,2.7-3a2.86,2.86,0,0,0-3.12-2.7,4.29,4.29,0,0,0-3.18,1.56,1.51,1.51,0,0,1-1.05.45A1.76,1.76,0,0,1,70.53,120c0-1.68,3.45-3.42,6.06-3.42,3.81,0,6.24,2.43,6.24,5.79a4.8,4.8,0,0,1-2.43,4.41A6.29,6.29,0,0,1,84,132.53c0,4.23-3.24,7.23-7.77,7.23s-7.17-2.64-7.17-4a1.86,1.86,0,0,1,1.77-1.8,1.61,1.61,0,0,1,1.17.57,5,5,0,0,0,4.38,2.07,4.19,4.19,0,0,0,4.32-4.08c0-3.06-1.83-4-4-4h-.27c-.18,0-.33,0-.45,0a1.62,1.62,0,0,1-1.59-1.59A1.57,1.57,0,0,1,76,125.36Z"/><path class="cls-2" d="M89.88,132c-.12-1.29-.18-2.55-.18-3.81s.06-2.31.15-3.54c.42-5.22,3.27-8.1,7.35-8.1s6.84,2.76,7.32,7.77c.12,1.32.21,2.64.21,3.93,0,3.39-.27,11.55-7.53,11.55C93.21,139.79,90.36,137,89.88,132Zm11.16.12a32,32,0,0,0,.27-4.23c0-2.31,0-8.25-4.11-8.25-2.1,0-3.69,1.92-4,5.13-.09,1.11-.15,2.22-.15,3.3a31.08,31.08,0,0,0,.21,3.75c.36,3.06,2,4.83,3.93,4.83S100.62,135,101,132.11Z"/><path class="cls-2" d="M111.84,138.71c0-.94,0-2.68,0-4.26,0-1.06,0-2,0-2.69,0-.24,0-.24-.74-.24l-1.58,0a.64.64,0,0,1-.69-.64.62.62,0,0,1,.66-.64h0c.72,0,2,0,3.24,0,1,0,2,0,2.72,0a.61.61,0,0,1,.62.65.58.58,0,0,1-.57.63h-.05c-.41,0-.76,0-1,0-1.18,0-1.18,0-1.18.24,0,.82,0,2,0,3.16,0,1.43,0,2.9.06,3.79,0,.41-.35.62-.72.62a.65.65,0,0,1-.72-.61Z"/><path class="cls-2" d="M122.18,138.74c0-.49,0-1.38,0-2.11,0-.47,0-.86,0-1a1.09,1.09,0,0,0-1.11-1.16,1.48,1.48,0,0,0-1.5,1.29c0,.21,0,.52,0,.92,0,.55,0,1.26,0,2.11a.56.56,0,0,1-.61.61.59.59,0,0,1-.63-.58v0c0-1.14,0-2.72,0-4.23s0-2.93,0-3.73a.59.59,0,0,1,.64-.55.56.56,0,0,1,.61.56c0,1.14,0,2.58,0,3,0,0,0,.07,0,.07l.06,0a2.72,2.72,0,0,1,1.62-.5,2,2,0,0,1,2.11,2.06c0,.43,0,1.5,0,2.39,0,.37,0,.71,0,1a.63.63,0,0,1-1.25,0Z"/><path class="cls-2" d="M127.41,134c0,.5,0,1.4,0,2.14,0,.47,0,.87,0,1.07,0,.78.49,1.1,1,1.1a1.54,1.54,0,0,0,1.48-1.36c0-.26,0-.63,0-1.12s0-1.11,0-1.83a.57.57,0,0,1,.62-.61.6.6,0,0,1,.63.6v0c0,1.28-.06,2-.06,2.79a3.17,3.17,0,0,0,.33,1.46.91.91,0,0,1,.1.42.62.62,0,0,1-.62.63c-.41,0-.58-.29-.71-.69,0,0,0-.06,0-.06s0,0-.05,0a2.42,2.42,0,0,1-1.81.79,2,2,0,0,1-2.09-2c0-.39,0-1.25,0-2.06,0-.49,0-1,0-1.29a.62.62,0,0,1,.63-.64.6.6,0,0,1,.62.59Z"/><path class="cls-2" d="M85,107.31a5.82,5.82,0,0,1-1.63-3.72,4.76,4.76,0,0,1,.46-2c.17-.38.43-.69.6-1.05a4,4,0,0,0,.53-1.73,3.79,3.79,0,0,0-1.06-2.21,1.22,1.22,0,0,1-.24-.72,1.26,1.26,0,0,1,1.18-1.25,1.07,1.07,0,0,1,.86.46A6.22,6.22,0,0,1,87.47,99a4.77,4.77,0,0,1-.55,2.16c-.14.32-.33.61-.48.89a3.49,3.49,0,0,0-.41,1.56,4.53,4.53,0,0,0,.92,2.33,1.16,1.16,0,0,1,.19.65,1.26,1.26,0,0,1-1.23,1.22A1.25,1.25,0,0,1,85,107.31Z"/></svg>