<svg id="レイヤー_3" data-name="レイヤー 3" xmlns="http://www.w3.org/2000/svg" viewBox="0 0 400 400">
  <defs>
    <style>
      .cls-1 {
        fill: #002d97;
      }

      .cls-2 {
        fill: #fff;
      }
    </style>
  </defs>
  <g>
    <circle class="cls-1" cx="200" cy="200" r="200"/>
    <g>
      <path class="cls-2" d="M87.22,69.07C86.16,62.74,91,56.92,98.92,56.69c7.17-.17,13.39,4.87,12.32,12.16-1.17,8.67-9.24,9-13,15.23,3.52-.06,6.1-.45,11.14-1v8.24c-14.62-.06-11-.06-20.16-.17C87.39,79,101,74.72,102.73,69.29c1.18-3.53-1.23-6.61-4.48-6.16-2.85.34-4.2,2.41-3.86,6.55Z" transform="translate(1)"/>
      <path class="cls-2" d="M124.35,90.91s-.23-5.27-.06-7.9c3.47,0,4.71.11,8,.17a57.81,57.81,0,0,1-.17,7.84A64.29,64.29,0,0,1,124.35,90.91Z" transform="translate(1)"/>
    </g>
    <g>
      <path class="cls-2" d="M94.69,136.74a35.59,35.59,0,0,1-6.27,1.57A1.25,1.25,0,0,1,87.11,137a1.32,1.32,0,0,1,1.12-1.31c.51-.1,1-.16,1.44-.26V125.25H88.8a1.61,1.61,0,0,1-.41-.06,1.35,1.35,0,0,1,.35.93c0,.83-.67,1.25-2.72,2.21v3.42c0,.51.06,3.42.1,4.54v.16c0,2.05-1,3.84-3.91,3.84-1.41,0-2.91-.12-2.91-1.72a1.3,1.3,0,0,1,1.22-1.41.89.89,0,0,1,.28,0,4.58,4.58,0,0,0,1.12.16c.68,0,1.16-.29,1.19-1.38,0-.83,0-3.29,0-6.33a18.93,18.93,0,0,1-2.62.83A1.45,1.45,0,0,1,79,129a1.36,1.36,0,0,1,1-1.31l3.07-1v-5.4H80.84a1.33,1.33,0,0,1-1.38-1.38,1.32,1.32,0,0,1,1.38-1.34h2.27V113.7a1.43,1.43,0,0,1,1.47-1.5A1.39,1.39,0,0,1,86,113.7v4.87h1.73a1.33,1.33,0,0,1,1.41,1.34,1.35,1.35,0,0,1-1.41,1.38H86v4.22c.32-.16.64-.35,1-.54a1.26,1.26,0,0,1,.54-.16,1.08,1.08,0,0,1,.33.06,1.18,1.18,0,0,1-.29-.8,1.16,1.16,0,0,1,1.21-1.18h17.79a1.16,1.16,0,0,1,1.28,1.18,1.18,1.18,0,0,1-1.28,1.18h-9.4l.06,14.05a1.28,1.28,0,0,1-2.56,0Zm7.1-15c-1.4.07-2.88.1-4.28.1-6,0-7.2-.13-7.2-3.58,0-.9.06-1.89.09-2.75.07-1.25,1.12-2.47,3.14-2.5,1.38,0,2.94-.06,4.51-.06,1.28,0,2.53,0,3.68.06a3.1,3.1,0,0,1,3.07,2.3c.07.71.1,1.51.1,2.34,0,.58,0,1.15,0,1.66C104.77,120.81,103.62,121.64,101.79,121.73Zm-7,3.52H92.1l0,1.7h2.63Zm0,3.78H92.13v1.7h2.59Zm0,3.78H92.13V135c.83-.19,1.63-.42,2.46-.67l.13,0ZM102,116.17c-.07-1.16-.16-1.16-4.77-1.16-3.59,0-4.07,0-4.13,1.19l0,.19h9Zm.06,2.17h-9v.45c0,.93.54,1,4.32,1,4.41,0,4.57-.06,4.64-1Zm-3.39,10.59a1.14,1.14,0,0,1,0-2.27c.8,0,1.76,0,2.72,0s1.92,0,2.68,0a2.06,2.06,0,0,1,2.15,2.08,15.65,15.65,0,0,1-2.27,6.27A14.85,14.85,0,0,0,107,136.9a1.3,1.3,0,0,1,.77,1.19,1.48,1.48,0,0,1-1.41,1.47c-1.25,0-3.78-2.37-3.94-2.53-1.09,1.22-2.81,2.59-3.58,2.59a1.48,1.48,0,0,1-1.41-1.41,1,1,0,0,1,.58-.92,11.28,11.28,0,0,0,2.75-2.12,11.78,11.78,0,0,1-2.34-4.51,1.12,1.12,0,0,1,1.15-1.09,1.08,1.08,0,0,1,1,.74,10.92,10.92,0,0,0,1.6,2.91,10.46,10.46,0,0,0,1.28-3.9.41.41,0,0,0-.45-.45c-1.09,0-2.88,0-4.32.06Z" transform="translate(1)"/>
      <path class="cls-2" d="M123.06,139.08c-2.53.41-2.79-2.66-.58-3a12.52,12.52,0,0,0,6.72-2.69c1.92-1.69,2-3.45,1.06-4.54-1.38-1.57-3.91-1.54-6-.93a56.88,56.88,0,0,0-6.56,3,1.58,1.58,0,1,1-1.37-2.82,58.86,58.86,0,0,1,7.36-2.75c2.68-.67,6.36-.7,8.6,1.63,2.69,2.79,1.6,6.34-1.31,8.77A16.13,16.13,0,0,1,123.06,139.08Z" transform="translate(1)"/>
      <path class="cls-2" d="M145.57,137.77c-.95,2.14-4.35,1.21-3-1.51a100.44,100.44,0,0,0,5.6-13.89,9.29,9.29,0,0,1-4.67-.44c-1.64-.71-1.32-3.62,1.08-2.75a8.77,8.77,0,0,0,4.42.19,14.37,14.37,0,0,0,0-3.46c-.13-1.82,2.88-1.92,3.2-.16a10.39,10.39,0,0,1,0,2.56c.45-.22.83-.45,1.21-.67a1.53,1.53,0,1,1,1.25,2.75,20.13,20.13,0,0,1-3.23,1.28A126.53,126.53,0,0,1,145.57,137.77Zm7.78-1.44c-1.38-1.54.61-4.07,2.27-2.37s3.59,1.5,7.33,1.18a1.66,1.66,0,1,1,.42,3.3C158.73,139.37,154.76,137.89,153.35,136.33ZM157,125.16c-1.67.61-2.66-2-.55-2.75a11.85,11.85,0,0,1,7.68.16c2.15.76,1.28,3.58-.73,2.91C161.57,124.87,158.66,124.52,157,125.16Z" transform="translate(1)"/>
      <path class="cls-2" d="M191.38,133.19c-1.51,6.5-6.18,7.26-8.61,7.26a16.49,16.49,0,0,1-4.74-.76,1.51,1.51,0,0,1-1.15-1.48,1.6,1.6,0,0,1,1.63-1.63,2.24,2.24,0,0,1,.87.16,10.61,10.61,0,0,0,3.71.77c2.27,0,4.13-1.15,5.12-4.32l-15.84,0a1.37,1.37,0,0,1-1.44-1.44,1.35,1.35,0,0,1,1.41-1.37l16.35,0c.09-.9.13-1.63.13-2.08v-.07c0-.76-.61-1-1.25-1-1.19,0-2.43,0-3.65,0s-2.43,0-3.65,0l-.19.57a1.77,1.77,0,0,1-1.76,1.12c-.8,0-1.54-.41-1.54-1.21a2.15,2.15,0,0,1,.16-.67,39.32,39.32,0,0,0,2.5-8.67,1.39,1.39,0,0,1,1.47-1.16,1.47,1.47,0,0,1,1.6,1.41,1,1,0,0,1,0,.29l-.1.45h8.55a1.36,1.36,0,0,1,1.44,1.37,1.3,1.3,0,0,1-1.44,1.31h-9.15c-.23.87-.42,1.73-.68,2.6,1.25,0,2.53,0,3.81,0s2.59,0,3.87,0a2.93,2.93,0,0,1,3.2,3c0,.12,0,1.53-.16,2.75l5.28,0a1.37,1.37,0,0,1,1.38,1.44,1.29,1.29,0,0,1-1.35,1.34Zm-16.1-12.89a1.61,1.61,0,0,1-3.2-.07c0-.42,0-.93,0-1.44s0-1.06,0-1.57c.06-1.82,1.44-3.13,4-3.17,3.23,0,6.37-.06,9.5-.06,2.56,0,5.16,0,7.84.06,2.21,0,3.84,1.19,3.91,3.14,0,.48,0,1.15,0,1.79,0,1.25,0,2.63-1.7,2.63a1.42,1.42,0,0,1-1.53-1.38v-.06c0-3.14,0-3.4-2-3.46-2.53,0-5.41-.06-8.22-.06-2.34,0-4.58,0-6.53.06-1.73,0-2,.51-2.08,1.67v1.92Z" transform="translate(1)"/>
      <path class="cls-2" d="M231,135.21l-7.9-.13a18.75,18.75,0,0,0,6.68,2.37,1.34,1.34,0,0,1,1.28,1.37,1.68,1.68,0,0,1-1.69,1.67,20.5,20.5,0,0,1-8.32-3.43,1.24,1.24,0,0,1-.58-1.05,1.32,1.32,0,0,1,.39-1h-5a1.51,1.51,0,0,1,.51,1.12,1.28,1.28,0,0,1-.54,1c-2.72,1.92-7.07,3.46-8.41,3.46a1.52,1.52,0,0,1-1.57-1.54,1.41,1.41,0,0,1,1.34-1.41,15.63,15.63,0,0,0,6.72-2.65l-7.94.12h0a1.23,1.23,0,0,1-1.28-1.28,1.26,1.26,0,0,1,1.31-1.31H231a1.27,1.27,0,0,1,1.31,1.31,1.25,1.25,0,0,1-1.28,1.32ZM220.1,117.42v1.5c1.28,0,2.53,0,3.71.06,2,.07,3.27.93,3.33,2.21s.13,2.53.13,3.84,0,2.62-.13,3.78c-.09,1.37-1.34,2.33-3.49,2.4-1.79,0-3.61.06-5.37.06s-3.49,0-5.12-.06c-2.37-.07-3.49-1-3.55-2.37-.07-1.15-.1-2.34-.1-3.49,0-1.34,0-2.66.1-3.84.06-1.41,1-2.46,3.48-2.53,1.19,0,2.44-.06,3.75-.06v-1.5l-9.18,0a1.3,1.3,0,1,1,0-2.59l9.15.06v-1.41a1.67,1.67,0,0,1,3.32,0l0,1.41,9.06-.06a1.31,1.31,0,0,1,1.44,1.28,1.33,1.33,0,0,1-1.44,1.31Zm4.13,6.81H212.39v1.47h11.84Zm-.06-2.18c0-.6-.45-1-1.48-1-1.44,0-2.91-.06-4.35-.06s-2.91,0-4.41.06c-1,0-1.41.51-1.44,1l0,.39H224.2Zm-11.72,5.48,0,.51c0,1.09.77,1.12,5.5,1.12,5.5,0,6.08,0,6.18-1.12,0-.16,0-.35,0-.51Z" transform="translate(1)"/>
      <path class="cls-2" d="M248.92,116.77a11.23,11.23,0,0,0,1.34-.57c1.76-1.06,3.49,1.6,1.12,2.78a17.46,17.46,0,0,1-3.51,1.06,32.47,32.47,0,0,1-1.54,3.23,4.66,4.66,0,0,1,5.37,2.78c1.32-.67,2.66-1.34,3.91-1.88A24,24,0,0,0,258.1,123a1.71,1.71,0,1,1,1.8,2.88c-1,.51-1.76.67-3.46,1.31-1.34.52-2.78,1.16-4.06,1.76a25.6,25.6,0,0,1,.06,3.52,1.89,1.89,0,0,1-1.7,2c-.8,0-1.53-.58-1.44-1.83,0-.67.07-1.4.07-2.08-.29.16-.58.32-.83.48-4,2.56-3.49,4.48-1.7,5.38s4.83.22,6.34-.26c2.81-.86,3.71,2.6.76,3.36-1.88.48-6.23,1-8.73-.44-4.32-2.44-3.55-6.76,2.24-10.56.45-.29,1-.64,1.57-1-.87-2.68-3.33-2.36-5.41,0l-.13.12a7.83,7.83,0,0,1-.73.84c-1.76,1.56-4.1-.26-2.18-2a16,16,0,0,0,2.59-3,25.52,25.52,0,0,0,1.51-2.84,6.53,6.53,0,0,1-4-.35c-2.31-1.16-.74-4.16,1.5-2.66.61.41,1.89.25,3,.06.13,0,.32,0,.48-.06A13.4,13.4,0,0,0,246,115c.13-1.92,3.14-1.73,3.2-.16a6.15,6.15,0,0,1-.26,1.86Z" transform="translate(1)"/>
      <path class="cls-2" d="M84.13,185a1.94,1.94,0,0,1-3.84,0v0c.07-3.84.16-8.12.16-12.25,0-3-.06-6-.16-8.54-.06-1.35,1.38-1.7,1.95-1.7A1.69,1.69,0,0,1,84.13,164v.06c-.06,2.66-.09,5.66-.09,8.77,0,4,0,8.16.09,12.09Z" transform="translate(1)"/>
      <path class="cls-2" d="M102,185.13c0-1.32.07-3.75.07-5.7,0-1.28,0-2.37-.07-2.88-.12-2-1.24-2.78-2.59-2.78-1.95,0-4.29,1.72-4.38,3.87,0,.57,0,1.31,0,2.21,0,1.31,0,3,.09,5.28a1.51,1.51,0,0,1-1.63,1.63,1.59,1.59,0,0,1-1.7-1.57v-.06c.1-3,.13-5.16.13-7s0-3.59-.09-5.73v-.07a1.58,1.58,0,0,1,1.72-1.44,1.52,1.52,0,0,1,1.64,1.51c0,.13,0,.22,0,.32v.09s0,.07,0,.07.09-.07.16-.13a6.19,6.19,0,0,1,4.54-1.92,5.23,5.23,0,0,1,5.41,5.34c0,1.16.09,4,.09,6.37,0,1,0,1.89,0,2.56a1.67,1.67,0,0,1-3.33.1Z" transform="translate(1)"/>
      <path class="cls-2" d="M116.42,186.92c-3.9,0-5.53-2.21-5.53-3.27a1.62,1.62,0,0,1,1.63-1.53,1.56,1.56,0,0,1,1.28.67,3.14,3.14,0,0,0,2.59,1.12c1.7,0,2.37-.9,2.37-1.63,0-1-.7-1.63-4.45-3.33a4.36,4.36,0,0,1-2.88-4c0-2.18,1.8-4.29,4.87-4.29s4.92,1.44,4.92,2.69a1.62,1.62,0,0,1-1.59,1.6,1.83,1.83,0,0,1-1.32-.64,2.63,2.63,0,0,0-2-.77c-1.09,0-1.7.61-1.7,1.31a1.65,1.65,0,0,0,1.06,1.41c.83.42,2.27,1.06,3.23,1.57,2.21,1.18,3.13,2.82,3.13,4.38C122,184.71,119.63,186.92,116.42,186.92Z" transform="translate(1)"/>
      <path class="cls-2" d="M132.93,174c-.48,0-.48.16-.48.35,0,1.19-.1,3.91-.1,6,0,2.49.1,3.52,1.89,3.52a5.1,5.1,0,0,0,.74-.07c.09,0,.15,0,.25,0a1.38,1.38,0,0,1,1.38,1.41c0,1.15-1.06,1.7-2.72,1.7-4.74,0-4.74-4.2-4.74-5.51,0-1.85.07-5,.07-6.46v-.48c0-.42-.2-.45-.52-.45h-1a1.46,1.46,0,0,1-1.44-1.54,1.4,1.4,0,0,1,1.44-1.47h.93c.51,0,.55-.09.55-.54,0,0,0-.64,0-1.38,0-.38,0-.76,0-1.12v-.09a1.45,1.45,0,0,1,1.6-1.44,1.67,1.67,0,0,1,1.69,2c0,.86-.06,2.08-.06,2.08,0,.51.13.54.45.54H135a1.51,1.51,0,0,1,0,3Z" transform="translate(1)"/>
      <path class="cls-2" d="M153.05,186.09a4.13,4.13,0,0,1-.86-1.06.19.19,0,0,0-.13-.1.3.3,0,0,0-.19.1,6.82,6.82,0,0,1-5,1.92,5.26,5.26,0,0,1-5.6-5,4.19,4.19,0,0,1,3.1-4,34.07,34.07,0,0,1,5.48-1.41c.31,0,.57-.42.57-1.09,0-.38-.09-2-2.27-2a4.26,4.26,0,0,0-3.14,1.35,1.56,1.56,0,0,1-1.18.57,1.51,1.51,0,0,1-1.54-1.47c0-1.53,2.82-3.23,6-3.23,3.52,0,5.44,1.73,5.44,5.41,0,.41,0,.8-.06,1.25a23.37,23.37,0,0,0-.16,2.65,5.33,5.33,0,0,0,0,.74c.29,2.56,1.47,2.65,1.73,2.85a1.33,1.33,0,0,1,.51,1.12,1.65,1.65,0,0,1-2.79,1.44Zm-2.94-6.88c-5.41.67-5.73,2-5.73,2.78,0,1,.87,2,2.5,2,2.59,0,3.71-1.31,3.71-3.58,0-.48-.06-1.18-.45-1.18Z" transform="translate(1)"/>
      <path class="cls-2" d="M164.15,183.21c0,.57.38.7,5.21.7s6.95,2.34,6.95,5c0,4.29-4.19,6.08-8.48,6.08-5.79,0-7.84-2.94-7.84-5a4,4,0,0,1,2.81-3.59c.1,0,.16-.09.16-.13s-.06-.12-.28-.19a2.39,2.39,0,0,1-1.76-2.27,3.11,3.11,0,0,1,1.82-2.85c.22-.13.42-.19.42-.29s-.1-.19-.36-.38a5.28,5.28,0,0,1-1.92-4c0-3.71,3.21-5.6,6.34-5.6h.06a8.51,8.51,0,0,1,3.56.77,1.06,1.06,0,0,0,.54.16.93.93,0,0,0,.51-.16,4.41,4.41,0,0,1,2.15-.67c.92,0,2.27.09,2.27,1.66a1.36,1.36,0,0,1-1.35,1.47,1.42,1.42,0,0,1-.35,0,2.24,2.24,0,0,0-.41,0,1.28,1.28,0,0,0-.68.19c-.06,0-.12,0-.12.16a.57.57,0,0,0,0,.19,4.49,4.49,0,0,1,.29,1.89c0,3.07-2.12,5.22-6.05,5.38C166.32,181.67,164.15,181.93,164.15,183.21Zm3.71,3.42c-4.22,0-4.67,2.59-4.67,3s.1,2.49,4.7,2.49c.9,0,5.06-.13,5.06-3C173,186.63,170.29,186.63,167.86,186.63Zm-.48-13.22c-1.89,0-3.36,1.19-3.36,2.82,0,.83.38,2.75,3.23,2.75,1.89,0,3.49-.93,3.49-2.78C170.74,174.76,169.78,173.41,167.38,173.41Z" transform="translate(1)"/>
      <path class="cls-2" d="M181.65,185.19v-.06c.1-3,.13-5.16.13-7s0-3.59-.1-5.73v-.07a1.59,1.59,0,0,1,1.73-1.44,1.51,1.51,0,0,1,1.63,1.51c0,.13,0,.22,0,.32v.13c0,.06,0,.09,0,.09a.32.32,0,0,0,.13-.13,5.94,5.94,0,0,1,4.1-2,1.5,1.5,0,0,1,1.56,1.54,1.82,1.82,0,0,1-1.82,1.76c-1.89.19-4,1.76-4.1,3.77,0,.58,0,1.25,0,2.12,0,1.24,0,2.84.1,5.12a1.51,1.51,0,0,1-1.63,1.63A1.58,1.58,0,0,1,181.65,185.19Z" transform="translate(1)"/>
      <path class="cls-2" d="M206.83,186.09A3.94,3.94,0,0,1,206,185a.18.18,0,0,0-.12-.1.32.32,0,0,0-.2.1,6.82,6.82,0,0,1-5,1.92,5.26,5.26,0,0,1-5.6-5,4.19,4.19,0,0,1,3.11-4,33.78,33.78,0,0,1,5.47-1.41c.32,0,.57-.42.57-1.09,0-.38-.09-2-2.27-2a4.22,4.22,0,0,0-3.13,1.35,1.58,1.58,0,0,1-1.19.57,1.5,1.5,0,0,1-1.53-1.47c0-1.53,2.81-3.23,6-3.23,3.52,0,5.44,1.73,5.44,5.41,0,.41,0,.8-.06,1.25a23.37,23.37,0,0,0-.16,2.65,5.33,5.33,0,0,0,0,.74c.29,2.56,1.47,2.65,1.73,2.85a1.33,1.33,0,0,1,.51,1.12,1.89,1.89,0,0,1-1.63,1.92A1.86,1.86,0,0,1,206.83,186.09Zm-3-6.88c-5.41.67-5.72,2-5.72,2.78,0,1,.86,2,2.49,2,2.59,0,3.71-1.31,3.71-3.58,0-.48-.06-1.18-.44-1.18Z" transform="translate(1)"/>
      <path class="cls-2" d="M233.13,185.13c0-1.25,0-3.56,0-5.51,0-1.44,0-2.69,0-3.23-.1-1.89-1.09-2.66-2.24-2.66a4.12,4.12,0,0,0-3.81,3.81c0,.51,0,1.12,0,1.86,0,1.37,0,3.23.1,5.73v.06a1.57,1.57,0,0,1-1.6,1.63,1.53,1.53,0,0,1-1.54-1.66v0c0-1.25,0-3.56,0-5.51,0-1.44,0-2.69,0-3.23-.13-1.92-1.12-2.69-2.24-2.69a4.08,4.08,0,0,0-3.74,3.84c0,.51,0,1.12,0,1.86,0,1.37,0,3.23.1,5.73a1.51,1.51,0,0,1-1.57,1.72,1.61,1.61,0,0,1-1.63-1.69v-.07c.1-3.42.13-5.66.13-7.74,0-1.6,0-3.14-.07-5v-.07a1.53,1.53,0,0,1,1.6-1.53,1.56,1.56,0,0,1,1.6,1.6.36.36,0,0,0,0,.16s.09-.07.12-.1a5.15,5.15,0,0,1,3.84-1.73,4.62,4.62,0,0,1,4.32,2.92,5.77,5.77,0,0,1,4.84-2.88c2.52,0,4.86,1.92,4.95,5.4,0,1.12.07,3.88.07,6.21,0,1.06,0,2,0,2.72a1.64,1.64,0,0,1-1.6,1.79,1.6,1.6,0,0,1-1.57-1.69Z" transform="translate(1)"/>
      <path class="cls-2" d="M245.91,185.8c-2.57-6.31,0-15.78.54-19.58.35-2.37,3.45-1.67,3.1.19-.51,2.59-2.43,10.11-1.66,13.08.09.42.22.32.35,0s.42-.8.54-1a1.28,1.28,0,0,1,2.24,1.25,16.08,16.08,0,0,0-1.88,4.48c-.2.86.19,1.86-.61,2.56S246.55,187.37,245.91,185.8Zm8.57-2.27a1.58,1.58,0,0,1,2.27-2.21c1.73,1.57,5.57,1.05,8.07.54s2.75,2.85.64,3.39C262,186.12,256.78,186,254.48,183.53Zm1.82-12.77a1.51,1.51,0,1,1-.44-3,19.41,19.41,0,0,1,8.41-.19c2.24.55,1.63,3.55-.54,3.07A16.27,16.27,0,0,0,256.3,170.76Z" transform="translate(1)"/>
      <path class="cls-2" d="M80.48,227.81a17.9,17.9,0,0,0,6.79-8.54,1.74,1.74,0,1,1,3.23,1.28,24.45,24.45,0,0,1-8,10.14A1.77,1.77,0,1,1,80.48,227.81Zm21.73,1.35c-1-3.07-4.1-7.11-6.18-8.9-1.53-1.31.61-3.61,2.53-1.92,2.79,2.47,6.37,6.59,7.14,9.54C106.34,230.34,103,231.65,102.21,229.16Z" transform="translate(1)"/>
      <path class="cls-2" d="M116.79,226.44A8.32,8.32,0,0,0,115,224c-1.31-1.12.55-3.13,2.05-1.79a12,12,0,0,1,2.37,2.85A1.48,1.48,0,1,1,116.79,226.44Zm-.64,8.67a1.41,1.41,0,0,1,.8-1.92A17.14,17.14,0,0,0,127,221.09a1.56,1.56,0,1,1,3,.84c-1.82,6-5.37,10.94-11.68,13.79A1.53,1.53,0,0,1,116.15,235.11Zm4.92-10.43a8.21,8.21,0,0,0-1.5-2.69c-1.15-1.28,1-3,2.3-1.47a13.47,13.47,0,0,1,1.92,3.17A1.45,1.45,0,1,1,121.07,224.68Z" transform="translate(1)"/>
      <path class="cls-2" d="M145.71,224.9a11.18,11.18,0,0,0-4-1.63c-1.92-.32-1.31-3.36,1-2.91a16.23,16.23,0,0,1,4.68,1.6,1.73,1.73,0,0,1,.73,2.4A1.65,1.65,0,0,1,145.71,224.9Zm0,10a1.75,1.75,0,1,1-1.06-3.3c6.37-1.72,13.47-8.76,16.83-15.13,1.06-2,4.26-.67,2.85,1.85C160.24,225.7,153,232.55,145.71,235Zm3.71-15.74a11.2,11.2,0,0,0-3.49-2.47c-1.82-.73-.54-3.58,1.63-2.62a17.79,17.79,0,0,1,4.26,2.65,1.72,1.72,0,1,1-2.4,2.44Z" transform="translate(1)"/>
      <path class="cls-2" d="M187.47,229.67a1.41,1.41,0,1,1-.07,2.82c-4.7-.16-11.1-.2-15.32.09a1.43,1.43,0,1,1-.1-2.85c2.15-.06,5.28-.12,8.51-.12.39-1.44.83-3.27,1-4.26.1-.48,0-.77-.64-.77-1.34,0-3.51,0-5.63.07a1.39,1.39,0,1,1-.22-2.76c2.81-.09,5.73,0,7.33,0,2.08.09,2.75,1.56,2.4,3.23-.32,1.41-.74,3.07-1.16,4.45C184.94,229.61,186.25,229.64,187.47,229.67Z" transform="translate(1)"/>
      <path class="cls-2" d="M200.42,235.37c-2.56,1-3.8-2-1.37-2.82a24.85,24.85,0,0,0,10.68-7.3,14.19,14.19,0,0,0-3.35-1.53c-1.8-.48-1-3.2,1.27-2.56a21.48,21.48,0,0,1,4,1.66,31.47,31.47,0,0,0,2.68-4.57c.61-1.32.48-1.48-.35-1.44-1.28,0-4.57.35-5.66.48-2.24,2.94-5.19,6.3-7.33,7.8s-4-1.31-1.86-2.65c3.11-1.92,7.4-7.33,8.55-10.08s4.41-.74,3.29,1.12c-.16.25-.35.54-.57.86,1.57-.12,3.33-.29,4.86-.35,3.3-.1,3.87,2.21,2.63,4.48s-2.37,4.13-3.62,5.95a11.58,11.58,0,0,1,2.3,2,1.72,1.72,0,0,1-.06,2.43,1.54,1.54,0,0,1-2.27-.1,17.42,17.42,0,0,0-1.92-1.72A27.63,27.63,0,0,1,200.42,235.37Z" transform="translate(1)"/>
      <path class="cls-2" d="M239,214.22c1.38-.1,2.95-.2,4.23-.26,2.46-.13,4.6,1.6,3.42,3.87-3.9,7.46-8.32,13.92-17.31,17.47-2.72,1.06-4-2.08-1.38-3,7.11-2.46,12.39-8.83,14.76-14.27.25-.61,0-1.21-.77-1.18-1.35,0-3.68.26-5.12.42-2.18,2.88-5,6.23-7.2,7.74s-4-1.35-1.86-2.69c3.07-1.89,7.23-7.74,8.71-10.27,1.05-1.79,4.25-.26,2.75,1.89Zm6.72-1.7c-1.63-.67-.35-2.59,1.12-2.05a9.77,9.77,0,0,1,3.17,1.92c1.25,1.34-.61,3.3-1.66,2.05A11.55,11.55,0,0,0,245.74,212.52Zm2.91-2.75c-1.63-.64-.48-2.56,1-2.08a10.44,10.44,0,0,1,3.23,1.82c1.28,1.28-.54,3.3-1.63,2.08A11.31,11.31,0,0,0,248.65,209.77Z" transform="translate(1)"/>
      <path class="cls-2" d="M100.1,282.44c0,.67-.39,1-.8,1a.94.94,0,0,1-.9-.93c0-2.75-.06-6.08-.06-9.54,0-4.76,0-9.69.09-13.5a3.52,3.52,0,0,1,3.62-3.81c.54,0,1.06,0,1.57,0,1.12,0,2.11,0,3.26.07a.8.8,0,0,1,.87.83.81.81,0,0,1-.84.83h-.12c-.2,0-1.09-.1-4.42-.1a2.18,2.18,0,0,0-2.27,2.37c-.1,2.11-.13,5-.13,8.13,0,5,.1,10.59.13,14.69Z" transform="translate(1)"/>
      <path class="cls-2" d="M123.05,275.05l-1.6,0c-.19,0-.22,0-.25.23-.52,2.72-1,5-1.12,6.08a1.56,1.56,0,0,1-1.6,1.41,1.48,1.48,0,0,1-1.57-1.41,2,2,0,0,1,.06-.42c.2-.89,1.19-5.73,1.19-5.82s0-.1-.13-.1h-2.66c-.16,0-.22.1-.25.26-.51,2.72-1,5-1.12,6.08a1.56,1.56,0,0,1-1.6,1.41,1.48,1.48,0,0,1-1.57-1.41c0-.1,0-.1,1.22-6.11,0-.16,0-.16-.13-.2-.42,0-.64,0-1,0a1.42,1.42,0,0,1-1.63-1.51,1.44,1.44,0,0,1,1.51-1.5h.06c.42,0,1,0,1.6,0,.16,0,.22-.06.26-.22.25-1.32.51-2.66.76-4,0-.1,0-.23-.12-.23a11.25,11.25,0,0,0-1.19,0,1.42,1.42,0,0,1-1.63-1.51,1.44,1.44,0,0,1,1.5-1.5h.07c.45,0,1.09,0,1.82,0a.19.19,0,0,0,.19-.16c.42-2.21.74-4,.87-4.77a1.59,1.59,0,0,1,1.6-1.34,1.44,1.44,0,0,1,1.53,1.41c0,.09,0,.16-.89,4.73v0c0,.07.06.1.13.1h2.59c.29,0,.29,0,1.12-4.93a1.59,1.59,0,0,1,1.6-1.34,1.45,1.45,0,0,1,1.53,1.41c0,.09,0,.12-.89,4.7v.06c0,.07,0,0,.12.07h.93a1.51,1.51,0,1,1,0,3h0l-1.47,0c-.16,0-.16.07-.19.23-.26,1.31-.55,2.65-.8,4v.09s0,.1.16.1h1.09a1.51,1.51,0,1,1,0,3Zm-3.52-7.11c0-.06,0-.13,0-.19s0-.13-.2-.13h-2.59c-.22,0-.19,0-.22.23-.26,1.31-.55,2.68-.8,4V272c0,.07,0,.1.16.1h2.62c.13,0,.19-.06.22-.19Z" transform="translate(1)"/>
      <path class="cls-2" d="M149.72,281.13c0-1.25,0-3.56,0-5.51,0-1.44,0-2.69,0-3.23-.09-1.89-1.08-2.66-2.24-2.66a4.11,4.11,0,0,0-3.8,3.81c0,.51,0,1.12,0,1.86,0,1.37,0,3.23.1,5.73v.06a1.57,1.57,0,0,1-1.6,1.63,1.53,1.53,0,0,1-1.54-1.66v0c0-1.25,0-3.56,0-5.51,0-1.44,0-2.69,0-3.23-.12-1.92-1.12-2.69-2.23-2.69a4.09,4.09,0,0,0-3.75,3.84c0,.51,0,1.12,0,1.86,0,1.37,0,3.23.1,5.73a1.52,1.52,0,0,1-1.57,1.72,1.61,1.61,0,0,1-1.63-1.69v-.07c.09-3.42.12-5.66.12-7.74,0-1.6,0-3.14-.06-5v-.07a1.52,1.52,0,0,1,1.6-1.53,1.56,1.56,0,0,1,1.6,1.6.45.45,0,0,0,0,.16s.1-.07.13-.1a5.12,5.12,0,0,1,3.84-1.73,4.62,4.62,0,0,1,4.32,2.92,5.76,5.76,0,0,1,4.83-2.88c2.53,0,4.86,1.92,5,5.4,0,1.12.06,3.88.06,6.21,0,1.06,0,2,0,2.72a1.63,1.63,0,0,1-1.6,1.79,1.6,1.6,0,0,1-1.57-1.69Z" transform="translate(1)"/>
      <path class="cls-2" d="M160,281.19v-.06c.1-3,.13-5.16.13-7s0-3.59-.1-5.73v-.07a1.59,1.59,0,0,1,1.73-1.44,1.51,1.51,0,0,1,1.63,1.51c0,.13,0,.22,0,.32v.13c0,.06,0,.09,0,.09a.41.41,0,0,0,.13-.13,5.94,5.94,0,0,1,4.09-1.95,1.5,1.5,0,0,1,1.57,1.54,1.82,1.82,0,0,1-1.82,1.76c-1.89.19-4,1.76-4.1,3.77,0,.58,0,1.25,0,2.12,0,1.24,0,2.84.1,5.12a1.52,1.52,0,0,1-1.64,1.63A1.58,1.58,0,0,1,160,281.19Z" transform="translate(1)"/>
      <path class="cls-2" d="M174,282.6a1.75,1.75,0,0,1-1.79-1.89,3.28,3.28,0,0,1,.92-2.18c2.21-2.49,5.92-6.3,8.74-9.76a6.58,6.58,0,0,0,1.79-4.09,3.18,3.18,0,0,0-3.33-3.26,4.64,4.64,0,0,0-3.93,2.46,2,2,0,0,1-1.67,1,1.81,1.81,0,0,1-1.88-1.7c0-1.12,2.43-4.92,7.45-4.92,3.71,0,7.23,2.3,7.23,6.11,0,1.82-.76,3.93-2.65,6.33-2.43,3.07-5.57,5.79-8.23,8.67,2.66,0,6.28-.28,8.9-.28a1.71,1.71,0,0,1,1.92,1.66,1.9,1.9,0,0,1-2,1.89Z" transform="translate(1)"/>
      <path class="cls-2" d="M209.2,289.32h-16a1.53,1.53,0,0,1-1.6-1.6,1.58,1.58,0,0,1,1.64-1.63c1.63,0,4.89,0,8.09,0s6.43,0,7.91,0a1.56,1.56,0,0,1,1.66,1.59A1.59,1.59,0,0,1,209.2,289.32Z" transform="translate(1)"/>
      <path class="cls-2" d="M215.1,280.93c.06-2.24.06-6.78.06-11.07s0-8.35-.06-9.63a1.69,1.69,0,0,1,1.76-1.79,1.65,1.65,0,0,1,1.73,1.7v.06c0,1.57-.1,6.49-.1,11.49,0,3.39,0,6.81.1,9.24V281a1.63,1.63,0,0,1-1.73,1.66A1.65,1.65,0,0,1,215.1,281Z" transform="translate(1)"/>
      <path class="cls-2" d="M225.33,260.46a2.17,2.17,0,0,1,2.24-2.18,2.26,2.26,0,0,1,2.24,2.18,2.23,2.23,0,0,1-2.24,2.27A2.12,2.12,0,0,1,225.33,260.46Zm2.24,22.39a1.59,1.59,0,0,1-1.7-1.63c0-2.65,0-6.3,0-9.21,0-1.44,0-2.72,0-3.59a1.72,1.72,0,0,1,3.43-.09v.06c0,1.31-.07,3.84-.07,6.53,0,2.21,0,4.48.07,6.24v.06A1.62,1.62,0,0,1,227.57,282.85Z" transform="translate(1)"/>
      <path class="cls-2" d="M248.45,282.76a1.81,1.81,0,0,1-1.25-.58c-.92-1-4.73-5.09-6.11-6.69a.78.78,0,0,0-.64-.22c-.73,0-.73.19-.73,2.34,0,.7,0,1.72.09,3.52a1.51,1.51,0,0,1-1.63,1.63,1.58,1.58,0,0,1-1.69-1.57v-.06c.09-3.33.16-8.13.16-12.48,0-3.59,0-6.85-.1-8.77,0-.87.67-1.47,1.76-1.47a1.49,1.49,0,0,1,1.66,1.44v.06c-.09,3.52-.13,11.78-.13,11.78a.49.49,0,0,0,.52.44c.48,0,.6-.09,6.65-4.92a1.77,1.77,0,0,1,1-.39,1.91,1.91,0,0,1,1.76,1.89,1.5,1.5,0,0,1-.64,1.25c-1.89,1.34-3.3,2.33-5,3.45-.23.13-.33.26-.33.36s.1.25.26.41c1.63,1.63,4.83,4.51,5.7,5.44a1.91,1.91,0,0,1,.54,1.28A1.94,1.94,0,0,1,248.45,282.76Z" transform="translate(1)"/>
      <path class="cls-2" d="M262.15,283c-4.38,0-7.65-3.3-7.65-8.06s3.46-8.26,7.59-8.26c4.41,0,6.91,3.23,6.91,5.66,0,1.51-1,2.72-3,2.79-1,0-1.67,0-7.87,0-.2,0-.26.26-.26.61a4.21,4.21,0,0,0,4.35,4.25,5.39,5.39,0,0,0,4.16-2,1.47,1.47,0,0,1,1.09-.51,1.74,1.74,0,0,1,1.69,1.66,1.49,1.49,0,0,1-.48,1.12A8,8,0,0,1,262.15,283Zm3.52-11.2c0-.45-.67-2.34-3.55-2.34a4.2,4.2,0,0,0-4,2.79c0,.29.32.29,3.29.29,1.31,0,2.76,0,3.62,0A.68.68,0,0,0,265.67,271.75Z" transform="translate(1)"/>
      <path class="cls-2" d="M280.43,258.09c0-.67.39-1,.8-1a.94.94,0,0,1,.93.92c0,2.76.06,6.09.06,9.54,0,4.77,0,9.7-.09,13.5a3.54,3.54,0,0,1-3.65,3.81c-.77,0-1.44,0-2.11,0-.9,0-1.76,0-2.72,0a.8.8,0,0,1-.86-.83.85.85,0,0,1,.86-.86h.13c.19,0,1.09.09,4.41.09a2.17,2.17,0,0,0,2.27-2.37c.07-1.92.1-4.48.1-7.26,0-5.22-.1-11.23-.13-15.55Z" transform="translate(1)"/>
      <path class="cls-2" d="M309.14,260.77a11.23,11.23,0,0,0,1.34-.57c1.76-1.06,3.49,1.6,1.12,2.78a17.58,17.58,0,0,1-3.52,1.06,32.33,32.33,0,0,1-1.53,3.23,4.66,4.66,0,0,1,5.37,2.78c1.32-.67,2.66-1.34,3.91-1.88a25,25,0,0,0,2.49-1.19,1.71,1.71,0,1,1,1.79,2.88c-1,.51-1.76.67-3.45,1.31-1.34.52-2.78,1.16-4.07,1.76a25.56,25.56,0,0,1,.07,3.52,1.9,1.9,0,0,1-1.7,2c-.8,0-1.53-.58-1.44-1.83,0-.67.07-1.4.07-2.08-.29.16-.58.32-.83.48-4,2.56-3.49,4.48-1.7,5.38s4.83.22,6.34-.26c2.81-.86,3.71,2.6.76,3.36-1.88.48-6.24,1-8.73-.44-4.32-2.44-3.55-6.76,2.24-10.56.45-.29,1-.64,1.57-1-.87-2.68-3.33-2.36-5.41,0l-.13.12a6.81,6.81,0,0,1-.74.84c-1.76,1.56-4.09-.26-2.17-2a16,16,0,0,0,2.59-3,25.47,25.47,0,0,0,1.5-2.84,6.5,6.5,0,0,1-4-.35c-2.31-1.16-.74-4.16,1.5-2.66.61.41,1.89.25,3,.06.13,0,.32,0,.48-.06a13.4,13.4,0,0,0,.35-2.69c.13-1.92,3.14-1.73,3.2-.16a6.15,6.15,0,0,1-.26,1.86Z" transform="translate(1)"/>
      <path class="cls-2" d="M91.55,330.15c-3,.48-3.19-3-.63-3.39,4-.55,7.13-1.73,9.4-3.75,2.72-2.4,2.91-5,1.44-6.72-2.05-2.33-5.66-2.27-8.54-1.4a31.09,31.09,0,0,0-4.58,1.88c-1.44.71-2.88,1.44-4.44,2.18-2.6,1.18-4-2.21-1.57-3.2a75.19,75.19,0,0,1,10-3.74c3.65-.93,8.51-.9,11.46,2.17,3.45,3.62,2.17,8.19-1.76,11.46A22.27,22.27,0,0,1,91.55,330.15Z" transform="translate(1)"/>
      <path class="cls-2" d="M116.7,328.29c-2.88-5.53-1.41-11.61-1.06-15.55.16-1.82.35-2.85.42-4.22a1.55,1.55,0,0,1,3.1.06,42.65,42.65,0,0,1-.51,4.29c-.38,2.69-1.31,5.44-.83,8.61.09.54.29.77.54.09.16-.38.51-1,.67-1.4a1.27,1.27,0,1,1,2.37.92,17.19,17.19,0,0,0-1.6,5.6c0,.36.19,1.28-.25,1.86A1.69,1.69,0,0,1,116.7,328.29Zm16.19-16.19c.7-.16,1.34-.29,1.89-.45,2-.57,3.29,2.21.57,2.79-.83.19-1.66.38-2.52.54,0,.93.06,1.89.12,3.17.29,6.4-1.37,11-6.36,14.56-1.86,1.31-3.88-1.18-1.89-2.46,4.09-2.66,5.37-6.56,5.25-12,0-1-.07-1.88-.1-2.75a23.61,23.61,0,0,1-5.38.23c-2.14-.2-2-3.3.52-2.92a18.81,18.81,0,0,0,4.83-.16v-.83a20.16,20.16,0,0,0-.36-3.77c-.25-2.37,2.92-2.24,3.3-.48a15.89,15.89,0,0,1,.16,3.81Z" transform="translate(1)"/>
      <path class="cls-2" d="M153.61,315.75a11.19,11.19,0,0,1,1-1.66c.52-.68.36-.64-.25-.45-2.4.77-1.86.77-4,1.6-1,.38-1.92.7-2.88,1-2.82.77-3.65-2.91-1.09-3.46.67-.16,2.53-.51,3.55-.77,1.57-.38,4.35-1,7.62-2a43.25,43.25,0,0,1,8.73-1.88,1.89,1.89,0,0,1,2.18,2.46c-.2.54-.9,1.18-3.14,1a14,14,0,0,0-4.77.9,9.21,9.21,0,0,0-4.09,3.74c-2.82,4.71-.67,11.43,6.49,11.17,3.36-.13,3.56,3.65.16,3.62C153.45,331.05,150.12,322.18,153.61,315.75Z" transform="translate(1)"/>
      <path class="cls-2" d="M179.45,321.83A9.65,9.65,0,0,1,176.6,323a1.53,1.53,0,0,1-1.54-1.5,1.36,1.36,0,0,1,.93-1.31c1.28-.55,2.4-1,3.46-1.51v-5.09h-2.69a1.41,1.41,0,1,1,0-2.81h2.69l0-4.93A1.49,1.49,0,0,1,181,304.3a1.43,1.43,0,0,1,1.47,1.5v5h2.05a1.41,1.41,0,1,1,0,2.81h-2.05v3.56c.39-.23.77-.48,1.15-.74a1.21,1.21,0,0,1,.68-.22,1.3,1.3,0,0,1,1.24,1.31c0,.7-.44,1.21-3.1,2.75v3.84c0,.51.1,3.39.13,4.51v.13c0,2-1.28,3.52-4,3.52-2.18,0-2.92-.58-2.92-1.73a1.32,1.32,0,0,1,1.25-1.44,1,1,0,0,1,.29,0,4.58,4.58,0,0,0,1,.13c.68,0,1.32-.22,1.32-1.05Zm7.55-2a1.24,1.24,0,0,1-1.22-1.31,1.19,1.19,0,0,1,1.15-1.31c1.32,0,3,0,4.8,0s3.62,0,5.12,0c2.28,0,3.27,1.25,3.27,2.56,0,1.57-2.15,4.54-4.26,6.66a20.62,20.62,0,0,0,6.56,2.59,1.59,1.59,0,0,1,1.34,1.53,1.65,1.65,0,0,1-1.79,1.6c-1.66,0-5.34-1.66-8.22-3.84a19.39,19.39,0,0,1-9.31,4.2,1.64,1.64,0,0,1-1.67-1.57,1.44,1.44,0,0,1,1.38-1.38,18.11,18.11,0,0,0,7.36-3.17c-1.66-1.63-3.33-3.8-3.33-4.57a1.46,1.46,0,0,1,1.54-1.31,1.33,1.33,0,0,1,1.18.67,15.07,15.07,0,0,0,2.69,3.45,11.34,11.34,0,0,0,3-4.48c0-.38-.55-.38-.77-.38h-2.21c-2.18,0-4.7,0-6.56.06Zm13.5-8.76a1.21,1.21,0,0,1,1.34-1.19c.74,0,1.54.45,1.54,1.22v.22c0,4.13-1.79,4.61-4.54,4.61-3.46,0-3.94-.93-3.94-3.71,0-1.15,0-2.53,0-3.49,0-.7-.38-1-1.92-1-1.82,0-2,.42-2,1,0,3-.36,5.32-3,7.49a2.16,2.16,0,0,1-1.31.51,1.7,1.7,0,0,1-1.76-1.53,1.22,1.22,0,0,1,.67-1.06c1.95-1.18,2.34-2.68,2.34-5.12,0-.35,0-.73,0-1.12v-.06c0-2.62,3-2.66,4.45-2.66,4.38,0,5.63.16,5.63,3.84,0,1-.06,1.89-.06,2.79s0,1.44,1,1.44,1.6,0,1.6-2v-.22Z" transform="translate(1)"/>
      <path class="cls-2" d="M216.68,331.37a1.55,1.55,0,0,1-3.07,0v0l.1-10.68c-2.15,4-2.76,4.51-3.59,4.51a1.62,1.62,0,0,1-1.6-1.51,1.41,1.41,0,0,1,.45-1,28.28,28.28,0,0,0,4.8-7.39l0-.87-2.82.07h0a1.3,1.3,0,0,1-1.38-1.34,1.33,1.33,0,0,1,1.41-1.38h2.79l-.07-3a14.9,14.9,0,0,1-2.65.42,1.4,1.4,0,0,1-1.32-1.47,1.16,1.16,0,0,1,1-1.25,24.44,24.44,0,0,0,7.17-1.83,1.16,1.16,0,0,1,.35-.06,1.65,1.65,0,0,1,1.47,1.53c0,1-1.15,1.35-3,1.89,0,.68-.06,2.11-.09,3.78h2.24a1.36,1.36,0,0,1,0,2.72h0l-2.28-.07c0,.71,0,1.41,0,2.08.83,0,3,2.05,3.46,2.69,0,0,.06.1.09.13.39-.93,1.22-1.47,2.85-1.5,1.35,0,3.81,0,6.11,0,1.67,0,3.27,0,4.32,0a2.9,2.9,0,0,1,3.14,3c.06,1.12.06,1.86.06,2.47v1.66c0,.51,0,2.46,0,3.58v.13c0,2-1.29,3.91-4.74,3.91-2.53,0-3.33-.52-3.33-1.64a1.38,1.38,0,0,1,1.38-1.44.91.91,0,0,1,.32,0,11.35,11.35,0,0,0,1.69.22c1,0,1.7-.38,1.7-1.79v-1.63c0-1.38,0-3.49-.06-5.19,0-1-.42-1-5.13-1-1.88,0-3.77,0-4.63.06s-1,.32-1,.93c0,1.7-.06,3.62-.06,5.67,0,1.5,0,3.1.06,4.7v.06a1.29,1.29,0,0,1-1.44,1.25,1.37,1.37,0,0,1-1.5-1.31c0-1.47,0-2.94,0-4.45,0-2,0-4.06,0-6a1.42,1.42,0,0,1-1,.45,1.24,1.24,0,0,1-1-.58c-.39-.54-.87-1.18-1.35-1.73,0,5,.16,12.16.16,12.16ZM221,310.05a1.26,1.26,0,0,1-1.37-1.28,1.23,1.23,0,0,1,1.34-1.24h0l5.63.06,0-1.95c0-.9.8-1.34,1.63-1.34a1.47,1.47,0,0,1,1.64,1.34l0,1.95,6.08-.06a1.27,1.27,0,1,1,0,2.52Zm7.2,6.66c-5.34,0-5.89-.26-5.89-2.85s.36-2.75,6.28-2.75c4.89,0,5.43,0,5.43,2.75S233.61,316.71,228.2,316.71Zm-.32,11.42c-3.17,0-3.71-.38-3.71-3.16,0-3.33,0-3.59,4.13-3.59,3.61,0,3.87.19,3.87,3.71C232.17,327.85,231.5,328.13,227.88,328.13Zm.26-15.2c-3.07,0-3.11,0-3.11,1s0,1,3,1,3.17,0,3.17-1S231.24,312.93,228.14,312.93Zm1.44,10.88c0-.44-.58-.54-1.47-.54-1.22,0-1.48.06-1.48,1.41,0,1.18,0,1.44,1.57,1.44,1.28,0,1.41-.1,1.41-1.35C229.61,324.49,229.61,324.23,229.58,323.81Z" transform="translate(1)"/>
      <path class="cls-2" d="M251.06,331.56a2.22,2.22,0,0,1-2.21-2.11,2.31,2.31,0,0,1,2.21-2.21,2.07,2.07,0,0,1,2.21,2.21A2.13,2.13,0,0,1,251.06,331.56Zm-1.38-8.13v-.67c0-3.11-.32-10.56-.51-15.58v-.1a1.74,1.74,0,0,1,1.86-1.76,1.81,1.81,0,0,1,1.92,1.86c0,3.77-.52,12.57-.52,15.67,0,.77,0,2.12-1.4,2.12a1.38,1.38,0,0,1-1.35-1.51Z" transform="translate(1)"/>
    </g>
  </g>
</svg>
